<svg width="1440" height="472" viewBox="0 0 1440 472" fill="none" xmlns="http://www.w3.org/2000/svg">
<mask id="mask0_148_8910" style="mask-type:alpha" maskUnits="userSpaceOnUse" x="0" y="0" width="1440" height="472">
<rect width="1440" height="472" fill="white"/>
</mask>
<g mask="url(#mask0_148_8910)">
<path d="M1290.75 49.094C1292.36 47.6349 1294.05 46.2668 1295.83 44.9863C1301.28 41.0507 1307.26 38.0166 1313.03 34.5905C1313.09 34.5988 1313.16 34.6054 1313.22 34.6153C1313.26 34.622 1313.3 34.6203 1313.34 34.612C1313.41 34.6584 1313.48 34.7063 1313.55 34.7543C1307.59 41.7819 1300.22 48.2586 1290.75 49.094ZM1289.4 48.9054C1291.13 44.5744 1293.7 40.7645 1297.64 38.0729C1301.95 35.1265 1307.24 33.8891 1312.4 34.5062C1304.39 38.1556 1296.02 42.7249 1289.4 48.9054ZM1288.93 48.1577C1288.45 42.614 1289.98 37.2011 1292.95 32.478C1295.69 28.1188 1299.41 24.5239 1303.35 21.255C1301.92 23.3378 1300.63 25.5298 1299.28 27.6589C1297.76 30.0527 1296.24 32.4449 1294.74 34.8536C1292.16 39.0192 1289.85 43.3105 1288.93 48.1577V48.1577ZM1304.03 20.6942C1303.64 26.2726 1301.98 31.5284 1299.24 36.4169C1299.23 36.4318 1299.23 36.445 1299.22 36.4583C1298.59 36.8073 1297.96 37.1911 1297.36 37.608C1293.88 40.0382 1290.88 43.6711 1289.45 47.7557C1290.32 42.9681 1292.87 38.6354 1295.41 34.5525C1298.27 29.9617 1301.4 25.4586 1304.01 20.714C1304.02 20.7074 1304.02 20.7008 1304.03 20.6942ZM1282.44 43.7456C1281.77 36.6634 1280.18 29.8095 1277.73 23.126C1276.43 19.5808 1274.82 16.1679 1272.92 12.9056C1272.92 12.8973 1272.92 12.8907 1272.93 12.8824C1278.24 15.617 1281.36 20.5585 1282.91 26.2709C1283.76 29.4174 1284.35 32.7658 1284.12 36.0331C1283.93 38.6685 1283.23 41.2277 1282.44 43.7456V43.7456ZM1273.71 29.5018C1271.72 24.2675 1271.44 18.4989 1272.87 13.0958C1277.93 22.4957 1280.48 32.9924 1281.44 43.605C1278.9 38.8918 1275.61 34.5144 1273.71 29.5018V29.5018ZM1264.29 35.5798C1264.53 35.603 1264.76 35.6294 1265 35.6609C1268.99 38.5063 1272.41 42.164 1275.18 46.1923C1276.43 48.0055 1277.48 49.8716 1278.39 51.7989C1271.47 48.874 1266.06 42.9465 1264.29 35.5798V35.5798ZM1278.69 49.8699C1275.52 44.1509 1270.8 39.259 1265.35 35.7138C1272.49 36.8652 1277.97 42.6934 1278.69 49.8699ZM1313.95 34.66C1313.96 34.5839 1313.94 34.5062 1313.86 34.4565C1313.77 34.4003 1313.67 34.3457 1313.58 34.2944C1313.58 34.1819 1313.52 34.0793 1313.37 34.0562C1308.9 33.3465 1304.23 33.9983 1300.17 35.9702C1302.96 31.1131 1304.5 25.5314 1304.76 19.9481C1304.77 19.6288 1304.39 19.5345 1304.18 19.7082C1299.59 23.5131 1295.14 27.7002 1292.09 32.8766C1289.2 37.7685 1287.49 43.7886 1288.85 49.4299C1286.59 51.6053 1284.55 53.976 1282.82 56.5733C1282.89 52.8841 1282.86 49.1983 1282.59 45.4909C1283.63 42.2815 1284.65 39.0142 1284.79 35.6195C1284.94 32.2447 1284.28 28.7574 1283.33 25.5281C1281.74 20.0936 1278.3 14.3763 1272.66 12.4457C1272.65 12.4424 1272.65 12.4407 1272.65 12.4374C1272.63 12.406 1272.6 12.4043 1272.58 12.4175C1272.56 12.4126 1272.55 12.4076 1272.54 12.4043C1272.42 12.3663 1272.34 12.5135 1272.39 12.5995C1272.38 12.6243 1272.37 12.6508 1272.36 12.6839C1270.88 18.1349 1271.05 23.9764 1272.97 29.2967C1273.97 32.0627 1275.48 34.5955 1276.97 37.1167C1278.46 39.6395 1279.9 42.2302 1281.54 44.6687C1281.78 47.6515 1281.9 50.6425 1281.92 53.617C1281.93 54.9189 1281.89 56.2176 1281.83 57.5146C1281.23 55.2961 1280.38 53.1538 1279.35 51.1057C1279.12 42.6091 1272.45 35.5881 1263.92 34.9793C1263.73 34.9644 1263.61 35.1695 1263.65 35.3383C1265.34 42.9896 1271.06 49.7491 1278.58 52.186C1279.72 54.6741 1280.64 57.2615 1281.41 59.9713C1281.46 60.1483 1281.57 60.2508 1281.7 60.2955C1281.61 62.0838 1281.52 63.8705 1281.49 65.6621C1281.48 66.3057 1282.46 66.3024 1282.49 65.6621C1282.59 63.2336 1282.7 60.8166 1282.77 58.4046C1282.77 58.4029 1282.77 58.4013 1282.77 58.3996C1284.91 55.1191 1287.43 52.1827 1290.26 49.5457C1300.06 49.4398 1308.09 42.346 1314.03 35.158C1314.18 34.9809 1314.1 34.7593 1313.95 34.66" fill="#DE0351"/>
<path d="M1344.61 119.328C1344.97 117.189 1345.45 115.065 1346.05 112.961C1347.89 106.491 1350.71 100.406 1353.11 94.141C1353.16 94.1095 1353.22 94.0748 1353.27 94.0434C1353.31 94.0219 1353.34 93.9954 1353.37 93.964C1353.45 93.9606 1353.53 93.9557 1353.62 93.9491C1353.3 103.155 1351.52 112.805 1344.61 119.328ZM1343.43 120.018C1342.11 115.543 1341.76 110.964 1343.19 106.413C1344.74 101.43 1348.13 97.175 1352.57 94.4619C1348.54 102.293 1344.8 111.068 1343.43 120.018ZM1342.6 119.72C1338.79 115.667 1336.63 110.474 1336.04 104.926C1335.49 99.807 1336.18 94.6803 1337.25 89.671C1337.42 92.1922 1337.76 94.7134 1338.02 97.2213C1338.31 100.04 1338.6 102.861 1338.92 105.678C1339.47 110.547 1340.32 115.348 1342.6 119.72V119.72ZM1337.44 88.8091C1340.59 93.4279 1342.54 98.5828 1343.42 104.118C1343.42 104.133 1343.43 104.146 1343.43 104.161C1343.15 104.83 1342.9 105.516 1342.68 106.216C1341.45 110.286 1341.35 114.99 1342.76 119.087C1340.47 114.79 1339.79 109.806 1339.26 105.026C1338.66 99.6515 1338.33 94.1774 1337.43 88.8388C1337.43 88.8289 1337.44 88.819 1337.44 88.8091ZM1334.77 120.279C1329.85 115.138 1324.36 110.744 1318.3 107.013C1315.08 105.035 1311.7 103.357 1308.19 101.971C1308.19 101.964 1308.18 101.958 1308.18 101.951C1314.05 100.805 1319.55 102.752 1324.31 106.275C1326.93 108.216 1329.47 110.481 1331.31 113.189C1332.8 115.371 1333.83 117.816 1334.77 120.279V120.279ZM1319.09 114.509C1314.29 111.632 1310.5 107.275 1308.27 102.15C1318.07 106.393 1326.57 113.055 1333.9 120.786C1328.98 118.666 1323.69 117.264 1319.09 114.509ZM1315.47 125.117C1315.67 124.988 1315.87 124.862 1316.07 124.743C1320.96 124.503 1325.92 125.251 1330.59 126.698C1332.69 127.35 1334.68 128.161 1336.58 129.107C1329.34 131.105 1321.42 129.8 1315.47 125.117V125.117ZM1335.63 127.41C1329.59 124.888 1322.85 123.973 1316.38 124.562C1322.7 121.045 1330.61 122.228 1335.63 127.41ZM1353.88 93.6232C1353.84 93.557 1353.77 93.5107 1353.68 93.5222C1353.57 93.5355 1353.47 93.5504 1353.36 93.5669C1353.29 93.4792 1353.18 93.4362 1353.05 93.509C1349.1 95.7258 1345.84 99.1255 1343.87 103.193C1343.05 97.6498 1340.8 92.3162 1337.54 87.7735C1337.36 87.5137 1337 87.6775 1336.94 87.9422C1335.69 93.7754 1334.8 99.8137 1335.61 105.773C1336.37 111.402 1338.77 117.184 1343.33 120.772C1342.9 123.878 1342.77 127.004 1343.02 130.114C1340.79 127.171 1338.48 124.296 1335.97 121.557C1334.8 118.392 1333.57 115.199 1331.59 112.443C1329.61 109.703 1326.93 107.372 1324.19 105.428C1319.56 102.151 1313.32 99.7955 1307.7 101.774C1307.7 101.774 1307.69 101.772 1307.69 101.771C1307.66 101.757 1307.63 101.777 1307.62 101.802C1307.61 101.805 1307.59 101.81 1307.58 101.814C1307.47 101.855 1307.49 102.024 1307.59 102.057C1307.59 102.085 1307.6 102.115 1307.61 102.146C1309.83 107.336 1313.58 111.819 1318.39 114.804C1320.89 116.355 1323.64 117.412 1326.37 118.466C1329.11 119.522 1331.84 120.665 1334.64 121.565C1336.67 123.757 1338.62 126.028 1340.48 128.352C1341.29 129.368 1342.07 130.41 1342.83 131.463C1340.98 130.098 1338.99 128.938 1336.91 127.974C1331.46 121.446 1321.87 120.069 1314.8 124.873C1314.64 124.981 1314.68 125.214 1314.81 125.323C1320.88 130.281 1329.56 132.043 1336.97 129.299C1339.41 130.54 1341.73 132.005 1344.02 133.655C1344.17 133.762 1344.32 133.774 1344.45 133.727C1345.48 135.188 1346.52 136.649 1347.61 138.07C1348 138.581 1348.77 137.971 1348.39 137.451C1346.97 135.483 1345.55 133.519 1344.11 131.582V131.577C1343.75 127.679 1343.92 123.81 1344.5 119.987C1352.13 113.831 1354.04 103.291 1354.25 93.9656C1354.25 93.7373 1354.05 93.6132 1353.88 93.6232" fill="#DE0351"/>
<path d="M1255.08 97.6221C1255.08 97.6139 1255.09 97.6056 1255.09 97.599C1257.88 91.2844 1260.28 84.6489 1261.69 77.8777C1262.35 74.6998 1262.75 71.406 1262.25 68.1883C1265.96 78.513 1263.09 90.1942 1255.08 97.6221ZM1255.1 82.0152C1256.61 77.0539 1259.35 72.7162 1261.81 68.2065C1262.07 74.4897 1260.24 80.6107 1258.29 86.5348C1257.04 90.2885 1255.61 93.9826 1253.99 97.5924C1253.64 92.3481 1253.54 87.1105 1255.1 82.0152ZM1242.53 94.7519C1243.09 90.4705 1244.89 86.4753 1245.99 82.3229C1246.23 84.7614 1246.63 87.1701 1246.78 89.6185C1246.95 92.2538 1246.97 94.8991 1246.89 97.5378C1246.82 100.033 1246.68 102.522 1246.48 105.01C1246.4 106.054 1246.28 107.103 1246.17 108.155C1243.77 103.978 1241.88 99.7132 1242.53 94.7519V94.7519ZM1250.86 94.6807C1250.89 98.8282 1249.17 102.628 1247.41 106.299C1247.44 105.834 1247.47 105.371 1247.5 104.909C1247.7 102.291 1247.84 99.6669 1247.86 97.0398C1247.89 92.454 1247.8 87.496 1246.53 83.026C1248.98 86.4372 1250.84 90.4357 1250.86 94.6807V94.6807ZM1262.01 66.749C1261.91 66.6663 1261.76 66.6547 1261.67 66.8036C1260.85 68.2694 1260.03 69.7517 1259.29 71.2687C1257.23 74.6998 1255.45 78.3542 1254.33 82.1376C1252.7 87.5936 1252.99 93.2481 1253.42 98.853C1252.36 101.149 1251.22 103.412 1250.01 105.632C1249.07 107.353 1248.09 109.047 1247.06 110.718C1247.18 109.712 1247.25 108.696 1247.32 107.684C1247.34 107.664 1247.36 107.642 1247.37 107.614C1249.49 103.495 1251.62 99.0449 1251.45 94.2969C1251.27 89.5407 1248.93 85.2263 1246.09 81.5338C1245.97 81.3832 1245.68 81.4147 1245.63 81.6115C1244.46 86.151 1242.4 90.5019 1241.93 95.2052C1241.43 100.176 1243.38 104.625 1246.12 108.65C1245.98 109.99 1245.85 111.332 1245.83 112.665C1245.83 112.667 1245.83 112.668 1245.83 112.67C1245.2 113.654 1244.56 114.632 1243.9 115.598C1243.53 116.134 1244.36 116.716 1244.72 116.179C1248.43 110.759 1251.68 105.039 1254.42 99.0763C1263.77 91.2464 1267.04 78.197 1262.39 66.8913C1262.32 66.7143 1262.15 66.6895 1262.01 66.749Z" fill="#DE0351"/>
<path d="M1321.03 78.7253C1327.54 73.0758 1334.33 66.8886 1343.27 66.0449C1340.31 69.1385 1337.77 72.8524 1334.16 75.2148C1330.29 77.7575 1325.56 78.4044 1321.06 79.0098C1321.05 78.9155 1321.04 78.8212 1321.03 78.7253ZM1322.35 64.2648C1323.87 58.4796 1326.5 53.2453 1329.07 47.9018C1329.36 53.3595 1330.32 59.1926 1328.73 64.4914C1327.21 69.5603 1323.67 73.5687 1320.98 78.0255C1320.67 73.4 1321.16 68.7894 1322.35 64.2648ZM1316.1 61.244C1316.95 58.0594 1319.2 56.0477 1321.61 53.9749C1323.83 52.0724 1326.11 50.2228 1328.27 48.2525C1325.27 53.194 1322.89 58.6996 1321.41 64.2483C1320.25 68.6206 1319.67 73.2362 1320.04 77.7658C1317.27 72.6688 1314.49 67.1731 1316.1 61.244ZM1341.91 65.5982C1334.15 66.824 1327.7 71.9425 1322.09 77.291C1323.31 75.6201 1324.45 73.8682 1325.56 72.1493C1326.38 70.8805 1327.16 69.5768 1327.83 68.2253C1332.05 65.9158 1337.12 64.8637 1341.91 65.5982ZM1321.36 81.5079C1321.27 80.9074 1321.2 80.3085 1321.13 79.708C1325.61 79.1141 1330.28 78.4407 1334.18 76.0122C1336.12 74.8029 1337.73 73.1684 1339.24 71.4628C1340.8 69.6976 1342.35 67.8878 1343.77 66.0035C1343.81 66.0002 1343.84 65.9969 1343.88 65.9936C1344.16 65.9754 1344.26 65.623 1344.09 65.4576C1344.07 65.4096 1344.02 65.3798 1343.96 65.3864C1343.95 65.3864 1343.95 65.3831 1343.94 65.3815C1338.52 64.4005 1333.14 64.9331 1328.23 67.4097C1328.62 66.561 1328.96 65.6941 1329.24 64.7991C1330.07 62.1688 1330.2 59.4193 1330.14 56.6813C1330.06 53.4968 1329.88 50.3023 1329.67 47.1226C1329.67 47.0697 1329.65 47.0234 1329.63 46.9837C1329.64 46.9737 1329.65 46.9622 1329.67 46.9506C1329.74 46.8794 1329.68 46.7703 1329.61 46.7421C1329.6 46.5866 1329.37 46.5072 1329.27 46.6693C1329.16 46.8414 1329.05 47.0168 1328.93 47.1905C1325.95 49.4552 1323.13 51.9748 1320.27 54.3868C1318.01 56.2926 1316.2 58.3489 1315.44 61.2688C1313.79 67.6479 1316.99 73.9923 1320.21 79.3291C1320.31 80.1033 1320.44 80.8726 1320.6 81.6369C1320.69 82.0637 1321.43 81.9446 1321.36 81.5079" fill="#DE0351"/>
<path d="M1233.73 -5.17285C1238.27 2.15252 1243.3 9.84019 1242.7 18.8083C1240.13 15.3839 1236.86 12.2869 1235.11 8.34964C1233.22 4.11621 1233.33 -0.651565 1233.45 -5.18939C1233.54 -5.18277 1233.64 -5.17946 1233.73 -5.17285ZM1247.8 -1.56145C1253.27 0.858838 1258.02 4.29157 1262.88 7.68295C1257.45 7.09401 1251.54 7.11386 1246.56 4.69688C1241.8 2.38413 1238.41 -1.75004 1234.44 -5.11495C1239.05 -4.68482 1243.52 -3.45565 1247.8 -1.56145V-1.56145ZM1251.78 -7.2573C1254.79 -5.90075 1256.42 -3.36466 1258.08 -0.64991C1259.6 1.84151 1261.06 4.38918 1262.66 6.83759C1258.27 3.08391 1253.21 -0.140377 1247.97 -2.48622C1243.84 -4.33576 1239.37 -5.64102 1234.84 -5.9967C1240.31 -7.91738 1246.18 -9.78346 1251.78 -7.2573V-7.2573ZM1243.36 17.5295C1243.39 9.67311 1239.37 2.49166 1234.98 -3.89736C1236.44 -2.42997 1237.98 -1.0271 1239.51 0.344342C1240.63 1.35679 1241.79 2.3345 1243.02 3.21791C1244.62 7.74416 1244.85 12.9206 1243.36 17.5295V17.5295ZM1230.94 -5.28865C1231.54 -5.28534 1232.15 -5.26384 1232.75 -5.2324C1232.62 -0.717738 1232.54 4.00041 1234.32 8.24046C1235.2 10.3514 1236.56 12.2009 1238 13.9611C1239.49 15.7859 1241.03 17.6007 1242.67 19.3063C1242.66 19.3427 1242.66 19.3791 1242.66 19.4155C1242.63 19.6934 1242.97 19.8472 1243.15 19.7083C1243.21 19.6934 1243.24 19.6454 1243.25 19.5892C1243.25 19.5825 1243.25 19.5759 1243.25 19.5677C1245.09 14.3813 1245.42 8.97994 1243.76 3.73406C1244.53 4.25518 1245.33 4.73659 1246.17 5.15679C1248.64 6.39092 1251.33 6.95835 1254.04 7.33223C1257.2 7.76566 1260.38 8.10149 1263.55 8.39762C1263.61 8.40258 1263.65 8.39596 1263.7 8.37942C1263.71 8.39431 1263.72 8.40754 1263.72 8.42078C1263.78 8.5035 1263.9 8.4671 1263.94 8.39265C1264.1 8.41251 1264.21 8.20075 1264.07 8.07171C1263.92 7.93275 1263.76 7.7971 1263.61 7.65979C1261.85 4.35278 1259.81 1.1682 1257.88 -2.0412C1256.36 -4.57729 1254.62 -6.68987 1251.86 -7.90415C1245.83 -10.5577 1239.05 -8.40706 1233.27 -6.08273C1232.49 -6.10589 1231.71 -6.10093 1230.93 -6.06122C1230.49 -6.03972 1230.49 -5.2903 1230.94 -5.28865Z" fill="#DE0351"/>
<path d="M1356.04 34.5832C1358.55 39.0813 1359.59 44.4347 1358.46 49.4738C1357.23 45.2387 1355.65 41.0831 1353.41 37.3211C1351.73 34.5071 1349.72 31.9015 1347.68 29.3423C1345.73 26.8922 1343.77 24.4372 1341.74 22.0417C1347.54 24.7747 1352.88 28.9237 1356.04 34.5832ZM1345.28 38.1235C1342.91 33.1572 1342.12 27.5936 1341.45 22.1708C1345.23 27.3687 1349.47 32.2771 1352.66 37.872C1355.06 42.079 1356.48 46.5903 1357.79 51.1778C1353.09 47.2901 1347.99 43.778 1345.28 38.1235V38.1235ZM1341.15 21.1054C1340.94 21.0061 1340.72 21.2195 1340.75 21.4329C1341.42 27.2942 1342.16 33.3573 1344.84 38.7025C1347.67 44.3669 1352.95 48.1222 1357.96 51.7866C1358.32 53.0554 1358.67 54.3309 1359.03 55.6048C1359.19 56.1441 1360.11 55.8827 1359.98 55.3334C1359.63 53.8247 1359.25 52.3077 1358.83 50.7973C1360.41 45.2784 1359.41 39.3046 1356.63 34.3284C1353.22 28.2239 1347.42 23.9525 1341.15 21.1054" fill="#DE0351"/>
<path d="M1287.36 108.693C1289.87 113.191 1290.91 118.545 1289.78 123.584C1288.55 119.349 1286.97 115.193 1284.73 111.431C1283.05 108.617 1281.04 106.012 1279 103.452C1277.05 101.002 1275.09 98.5473 1273.06 96.1518C1278.86 98.8848 1284.2 103.034 1287.36 108.693ZM1276.61 112.234C1274.23 107.267 1273.44 101.704 1272.77 96.2809C1276.55 101.479 1280.79 106.387 1283.98 111.982C1286.38 116.189 1287.8 120.7 1289.11 125.288C1284.41 121.4 1279.31 117.888 1276.61 112.234V112.234ZM1272.48 95.2155C1272.26 95.1162 1272.04 95.3296 1272.07 95.543C1272.75 101.404 1273.48 107.467 1276.16 112.813C1278.99 118.477 1284.27 122.232 1289.28 125.895C1289.64 127.166 1289.99 128.439 1290.36 129.715C1290.51 130.253 1291.43 129.993 1291.3 129.444C1290.95 127.935 1290.57 126.418 1290.16 124.907C1291.73 119.389 1290.73 113.415 1287.95 108.439C1284.54 102.332 1278.75 98.0626 1272.48 95.2155" fill="#DE0351"/>
<path d="M1426.48 49.094C1428.09 47.6349 1429.78 46.2668 1431.56 44.9863C1437.01 41.0507 1442.99 38.0166 1448.76 34.5905C1448.82 34.5988 1448.89 34.6054 1448.95 34.6153C1448.99 34.622 1449.03 34.6203 1449.07 34.612C1449.14 34.6584 1449.21 34.7063 1449.28 34.7543C1443.32 41.7819 1435.95 48.2586 1426.48 49.094ZM1425.13 48.9054C1426.86 44.5744 1429.43 40.7645 1433.37 38.0729C1437.68 35.1265 1442.97 33.8891 1448.13 34.5062C1440.12 38.1556 1431.75 42.7249 1425.13 48.9054ZM1424.66 48.1577C1424.18 42.614 1425.71 37.2011 1428.68 32.478C1431.42 28.1188 1435.14 24.5239 1439.08 21.255C1437.65 23.3378 1436.36 25.5298 1435.01 27.6589C1433.49 30.0527 1431.97 32.4449 1430.47 34.8536C1427.89 39.0192 1425.58 43.3105 1424.66 48.1577V48.1577ZM1439.76 20.6942C1439.37 26.2726 1437.71 31.5284 1434.97 36.4169C1434.96 36.4318 1434.96 36.445 1434.95 36.4583C1434.32 36.8073 1433.7 37.1911 1433.09 37.608C1429.6 40.0382 1426.61 43.6711 1425.18 47.7557C1426.05 42.9681 1428.6 38.6354 1431.14 34.5525C1434 29.9617 1437.13 25.4586 1439.74 20.714C1439.75 20.7074 1439.75 20.7008 1439.76 20.6942ZM1418.17 43.7456C1417.5 36.6634 1415.91 29.8095 1413.46 23.126C1412.16 19.5808 1410.55 16.1679 1408.65 12.9056L1408.66 12.8824C1413.97 15.617 1417.09 20.5585 1418.64 26.2709C1419.49 29.4174 1420.08 32.7658 1419.85 36.0331C1419.66 38.6685 1418.96 41.2277 1418.17 43.7456V43.7456ZM1409.44 29.5018C1407.45 24.2675 1407.17 18.4989 1408.6 13.0958C1413.66 22.4957 1416.21 32.9924 1417.18 43.605C1414.63 38.8918 1411.34 34.5144 1409.44 29.5018V29.5018ZM1400.02 35.5798C1400.26 35.603 1400.49 35.6294 1400.73 35.6609C1404.72 38.5063 1408.14 42.164 1410.91 46.1923C1412.16 48.0055 1413.21 49.8716 1414.12 51.7989C1407.2 48.874 1401.79 42.9465 1400.02 35.5798V35.5798ZM1414.42 49.8699C1411.24 44.1509 1406.53 39.259 1401.08 35.7138C1408.22 36.8652 1413.69 42.6934 1414.42 49.8699ZM1449.68 34.66C1449.69 34.5839 1449.67 34.5062 1449.59 34.4565C1449.5 34.4003 1449.4 34.3457 1449.31 34.2944C1449.31 34.1819 1449.25 34.0793 1449.1 34.0562C1444.63 33.3465 1439.97 33.9983 1435.9 35.9702C1438.69 31.1131 1440.23 25.5314 1440.49 19.9481C1440.5 19.6288 1440.12 19.5345 1439.91 19.7082C1435.32 23.5131 1430.87 27.7002 1427.82 32.8766C1424.93 37.7685 1423.22 43.7886 1424.58 49.4299C1422.32 51.6053 1420.28 53.976 1418.55 56.5733C1418.62 52.8841 1418.59 49.1983 1418.32 45.4909C1419.36 42.2815 1420.38 39.0142 1420.52 35.6195C1420.67 32.2447 1420.01 28.7574 1419.06 25.5281C1417.47 20.0936 1414.03 14.3763 1408.39 12.4457C1408.38 12.4424 1408.38 12.4407 1408.38 12.4374C1408.36 12.406 1408.33 12.4043 1408.31 12.4175C1408.29 12.4126 1408.28 12.4076 1408.27 12.4043C1408.15 12.3663 1408.07 12.5135 1408.12 12.5995C1408.11 12.6243 1408.1 12.6508 1408.09 12.6839C1406.61 18.1349 1406.78 23.9764 1408.71 29.2967C1409.7 32.0627 1411.21 34.5955 1412.7 37.1167C1414.19 39.6395 1415.63 42.2302 1417.27 44.6687C1417.51 47.6515 1417.63 50.6425 1417.65 53.617C1417.66 54.9189 1417.62 56.2176 1417.56 57.5146C1416.96 55.2961 1416.11 53.1538 1415.08 51.1057C1414.85 42.6091 1408.18 35.5881 1399.65 34.9793C1399.46 34.9644 1399.34 35.1695 1399.38 35.3383C1401.07 42.9896 1406.79 49.7491 1414.31 52.186C1415.45 54.6741 1416.37 57.2615 1417.14 59.9713C1417.19 60.1483 1417.3 60.2508 1417.43 60.2955C1417.34 62.0838 1417.25 63.8705 1417.22 65.6621C1417.21 66.3057 1418.19 66.3024 1418.22 65.6621C1418.32 63.2336 1418.43 60.8166 1418.5 58.4046C1418.5 58.4029 1418.5 58.4013 1418.51 58.3996C1420.63 55.1191 1423.16 52.1827 1425.99 49.5457C1435.79 49.4398 1443.82 42.346 1449.76 35.158C1449.91 34.9809 1449.83 34.7593 1449.68 34.66" fill="#DE0351"/>
<path d="M1390.81 97.6221C1390.82 97.6139 1390.82 97.6056 1390.82 97.599C1393.62 91.2844 1396.01 84.6489 1397.42 77.8777C1398.09 74.6998 1398.48 71.406 1397.99 68.1883C1401.69 78.513 1398.82 90.1942 1390.81 97.6221ZM1390.83 82.0152C1392.35 77.0539 1395.08 72.7162 1397.54 68.2065C1397.8 74.4897 1395.98 80.6107 1394.02 86.5348C1392.78 90.2885 1391.35 93.9826 1389.73 97.5924C1389.37 92.3481 1389.27 87.1105 1390.83 82.0152ZM1378.26 94.7519C1378.82 90.4705 1380.62 86.4753 1381.73 82.3229C1381.97 84.7614 1382.36 87.1701 1382.52 89.6185C1382.69 92.2538 1382.7 94.8991 1382.63 97.5378C1382.55 100.033 1382.41 102.522 1382.22 105.01C1382.14 106.054 1382.02 107.103 1381.9 108.155C1379.5 103.978 1377.61 99.7132 1378.26 94.7519V94.7519ZM1386.6 94.6807C1386.62 98.8282 1384.9 102.628 1383.14 106.299C1383.17 105.834 1383.2 105.371 1383.24 104.909C1383.43 102.291 1383.58 99.6669 1383.6 97.0398C1383.63 92.454 1383.53 87.496 1382.27 83.026C1384.71 86.4372 1386.57 90.4357 1386.6 94.6807V94.6807ZM1397.74 66.749C1397.64 66.6663 1397.49 66.6547 1397.41 66.8036C1396.59 68.2694 1395.76 69.7517 1395.03 71.2687C1392.96 74.6998 1391.19 78.3542 1390.06 82.1376C1388.43 87.5936 1388.72 93.2481 1389.15 98.853C1388.09 101.149 1386.96 103.412 1385.74 105.632C1384.8 107.353 1383.82 109.047 1382.8 110.718C1382.91 109.712 1382.99 108.696 1383.05 107.684C1383.07 107.664 1383.09 107.642 1383.11 107.614C1385.23 103.495 1387.35 99.0449 1387.18 94.2969C1387 89.5407 1384.66 85.2263 1381.82 81.5338C1381.7 81.3832 1381.41 81.4147 1381.36 81.6115C1380.19 86.151 1378.14 90.5019 1377.66 95.2052C1377.16 100.176 1379.12 104.625 1381.85 108.65C1381.71 109.99 1381.59 111.332 1381.57 112.665V112.67C1380.94 113.654 1380.29 114.632 1379.63 115.598C1379.27 116.134 1380.09 116.716 1380.46 116.179C1384.16 110.759 1387.41 105.039 1390.16 99.0763C1399.5 91.2464 1402.78 78.197 1398.12 66.8913C1398.05 66.7143 1397.88 66.6895 1397.74 66.749Z" fill="#DE0351"/>
<path d="M1369.46 -5.17285C1374 2.15252 1379.03 9.84019 1378.43 18.8083C1375.85 15.3839 1372.59 12.2869 1370.84 8.34964C1368.95 4.11621 1369.06 -0.651565 1369.18 -5.18939C1369.28 -5.18277 1369.37 -5.17946 1369.46 -5.17285ZM1383.53 -1.56145C1389 0.858838 1393.75 4.29157 1398.61 7.68295C1393.18 7.09401 1387.27 7.11386 1382.29 4.69688C1377.53 2.38413 1374.13 -1.75004 1370.17 -5.11495C1374.78 -4.68482 1379.25 -3.45565 1383.53 -1.56145V-1.56145ZM1387.51 -7.2573C1390.52 -5.90075 1392.15 -3.36466 1393.81 -0.64991C1395.33 1.84151 1396.79 4.38918 1398.39 6.83759C1393.99 3.08391 1388.94 -0.140377 1383.7 -2.48622C1379.57 -4.33576 1375.1 -5.64102 1370.57 -5.9967C1376.04 -7.91738 1381.91 -9.78346 1387.51 -7.2573V-7.2573ZM1379.09 17.5295C1379.12 9.67311 1375.1 2.49166 1370.71 -3.89736C1372.17 -2.42997 1373.71 -1.0271 1375.24 0.344342C1376.36 1.35679 1377.52 2.3345 1378.75 3.21791C1380.35 7.74416 1380.59 12.9206 1379.09 17.5295ZM1366.67 -5.28865C1367.27 -5.28534 1367.88 -5.26384 1368.48 -5.2324C1368.35 -0.717738 1368.27 4.00041 1370.05 8.24046C1370.93 10.3514 1372.29 12.2009 1373.73 13.9611C1375.22 15.7859 1376.76 17.6007 1378.4 19.3063C1378.39 19.3427 1378.39 19.3791 1378.39 19.4155C1378.36 19.6934 1378.69 19.8472 1378.88 19.7083C1378.94 19.6934 1378.97 19.6454 1378.98 19.5892C1378.98 19.5825 1378.98 19.5759 1378.99 19.5677C1380.82 14.3813 1381.15 8.97994 1379.49 3.73406C1380.26 4.25518 1381.06 4.73659 1381.9 5.15679C1384.37 6.39092 1387.06 6.95835 1389.78 7.33223C1392.93 7.76566 1396.11 8.10149 1399.28 8.39762C1399.34 8.40258 1399.39 8.39596 1399.43 8.37942C1399.44 8.39431 1399.45 8.40754 1399.46 8.42078C1399.51 8.5035 1399.63 8.4671 1399.67 8.39265C1399.83 8.41251 1399.94 8.20075 1399.8 8.07171C1399.65 7.93275 1399.49 7.7971 1399.34 7.65979C1397.58 4.35278 1395.54 1.1682 1393.61 -2.0412C1392.09 -4.57729 1390.35 -6.68987 1387.59 -7.90415C1381.56 -10.5577 1374.78 -8.40706 1369 -6.08273C1368.22 -6.10589 1367.44 -6.10093 1366.66 -6.06122C1366.22 -6.03972 1366.22 -5.2903 1366.67 -5.28865Z" fill="#DE0351"/>
<path d="M1423.09 108.693C1425.61 113.191 1426.64 118.545 1425.52 123.584C1424.28 119.349 1422.71 115.193 1420.46 111.431C1418.79 108.617 1416.77 106.012 1414.73 103.452C1412.78 101.002 1410.82 98.5473 1408.8 96.1518C1414.6 98.8848 1419.93 103.034 1423.09 108.693ZM1412.34 112.234C1409.96 107.267 1409.18 101.704 1408.5 96.2809C1412.28 101.479 1416.52 106.387 1419.71 111.982C1422.11 116.189 1423.54 120.7 1424.84 125.288C1420.15 121.4 1415.04 117.888 1412.34 112.234V112.234ZM1408.21 95.2155C1407.99 95.1162 1407.77 95.3296 1407.8 95.543C1408.48 101.404 1409.22 107.467 1411.89 112.813C1414.72 118.477 1420 122.232 1425.01 125.895C1425.37 127.166 1425.72 128.439 1426.09 129.715C1426.24 130.253 1427.16 129.993 1427.04 129.444C1426.68 127.935 1426.3 126.418 1425.89 124.907C1427.46 119.389 1426.47 113.415 1423.69 108.439C1420.27 102.332 1414.48 98.0626 1408.21 95.2155" fill="#DE0351"/>
<path d="M1290.75 195.806C1292.36 194.347 1294.05 192.981 1295.83 191.7C1301.28 187.763 1307.26 184.729 1313.03 181.303C1313.09 181.313 1313.16 181.318 1313.22 181.328C1313.26 181.334 1313.3 181.333 1313.34 181.324C1313.41 181.372 1313.48 181.419 1313.55 181.467C1307.59 188.494 1300.22 194.971 1290.75 195.806ZM1289.4 195.618C1291.13 191.287 1293.7 187.477 1297.64 184.785C1301.95 181.84 1307.24 180.601 1312.4 181.218C1304.39 184.87 1296.02 189.437 1289.4 195.618ZM1288.93 194.87C1288.45 189.326 1289.98 183.913 1292.95 179.19C1295.69 174.833 1299.41 171.236 1303.35 167.967C1301.92 170.052 1300.63 172.242 1299.28 174.371C1297.76 176.765 1296.24 179.159 1294.74 181.567C1292.16 185.731 1289.85 190.023 1288.93 194.87V194.87ZM1304.03 167.406C1303.64 172.986 1301.98 178.241 1299.24 183.129C1299.23 183.144 1299.23 183.157 1299.22 183.171C1298.59 183.52 1297.96 183.903 1297.36 184.32C1293.88 186.751 1290.88 190.383 1289.45 194.47C1290.32 189.68 1292.87 185.348 1295.41 181.265C1298.27 176.674 1301.4 172.171 1304.01 167.426C1304.02 167.42 1304.02 167.413 1304.03 167.406ZM1282.44 190.458C1281.77 183.376 1280.18 176.522 1277.73 169.838C1276.43 166.293 1274.82 162.88 1272.92 159.618C1272.92 159.61 1272.92 159.603 1272.93 159.595C1278.24 162.329 1281.36 167.271 1282.91 172.983C1283.76 176.13 1284.35 179.478 1284.12 182.745C1283.93 185.381 1283.23 187.94 1282.44 190.458V190.458ZM1273.71 176.214C1271.72 170.981 1271.44 165.211 1272.87 159.808C1277.93 169.21 1280.48 179.705 1281.44 190.317C1278.9 185.604 1275.61 181.227 1273.71 176.214V176.214ZM1264.29 182.292C1264.53 182.315 1264.76 182.342 1265 182.375C1268.99 185.219 1272.41 188.876 1275.18 192.905C1276.43 194.718 1277.48 196.584 1278.39 198.511C1271.47 195.586 1266.06 189.659 1264.29 182.292V182.292ZM1278.69 196.582C1275.52 190.863 1270.8 185.971 1265.35 182.426C1272.49 183.577 1277.97 189.406 1278.69 196.582ZM1313.95 181.372C1313.96 181.296 1313.94 181.218 1313.86 181.169C1313.77 181.113 1313.67 181.058 1313.58 181.007C1313.58 180.894 1313.52 180.792 1313.37 180.768C1308.9 180.059 1304.23 180.711 1300.17 182.683C1302.96 177.825 1304.5 172.245 1304.76 166.66C1304.77 166.341 1304.39 166.247 1304.18 166.42C1299.59 170.225 1295.14 174.413 1292.09 179.589C1289.2 184.481 1287.49 190.501 1288.85 196.144C1286.59 198.319 1284.55 200.688 1282.82 203.286C1282.89 199.596 1282.86 195.911 1282.59 192.203C1283.63 188.994 1284.65 185.726 1284.79 182.332C1284.94 178.957 1284.28 175.47 1283.33 172.24C1281.74 166.806 1278.3 161.089 1272.66 159.158C1272.65 159.155 1272.65 159.153 1272.65 159.15C1272.63 159.118 1272.6 159.117 1272.58 159.13C1272.56 159.127 1272.55 159.122 1272.54 159.117C1272.42 159.079 1272.34 159.226 1272.39 159.312C1272.38 159.337 1272.37 159.363 1272.36 159.396C1270.88 164.847 1271.05 170.689 1272.97 176.009C1273.97 178.775 1275.48 181.308 1276.97 183.829C1278.46 186.352 1279.9 188.942 1281.54 191.381C1281.78 194.364 1281.9 197.355 1281.92 200.329C1281.93 201.631 1281.89 202.93 1281.83 204.227C1281.23 202.008 1280.38 199.866 1279.35 197.82C1279.12 189.321 1272.45 182.3 1263.92 181.692C1263.73 181.677 1263.61 181.882 1263.65 182.051C1265.34 189.702 1271.06 196.461 1278.58 198.898C1279.72 201.386 1280.64 203.974 1281.41 206.684C1281.46 206.861 1281.57 206.963 1281.7 207.008C1281.61 208.796 1281.52 210.583 1281.49 212.374C1281.48 213.02 1282.46 213.015 1282.49 212.374C1282.59 209.946 1282.7 207.529 1282.77 205.117C1282.77 205.115 1282.77 205.114 1282.77 205.112C1284.91 201.831 1287.43 198.895 1290.26 196.258C1300.06 196.152 1308.09 189.058 1314.03 181.87C1314.18 181.693 1314.1 181.472 1313.95 181.372Z" fill="#DE0351"/>
<path d="M1344.61 266.039C1344.97 263.9 1345.45 261.776 1346.05 259.672C1347.89 253.201 1350.71 247.117 1353.11 240.854C1353.16 240.822 1353.22 240.787 1353.27 240.756C1353.31 240.734 1353.34 240.706 1353.37 240.677C1353.45 240.672 1353.53 240.667 1353.62 240.66C1353.3 249.868 1351.52 259.518 1344.61 266.039ZM1343.43 266.729C1342.11 262.256 1341.76 257.675 1343.19 253.124C1344.74 248.143 1348.13 243.888 1352.57 241.174C1348.54 249.004 1344.8 257.781 1343.43 266.729ZM1342.6 266.433C1338.79 262.378 1336.63 257.185 1336.04 251.638C1335.49 246.518 1336.18 241.391 1337.25 236.382C1337.42 238.903 1337.76 241.424 1338.02 243.934C1338.31 246.753 1338.6 249.574 1338.92 252.389C1339.47 257.258 1340.32 262.06 1342.6 266.433V266.433ZM1337.44 235.52C1340.59 240.139 1342.54 245.295 1343.42 250.831C1343.42 250.844 1343.43 250.859 1343.43 250.872C1343.15 251.542 1342.9 252.227 1342.68 252.927C1341.45 256.998 1341.35 261.703 1342.76 265.798C1340.47 261.501 1339.79 256.518 1339.26 251.739C1338.66 246.362 1338.33 240.888 1337.43 235.551C1337.43 235.54 1337.44 235.53 1337.44 235.52V235.52ZM1334.77 266.99C1329.85 261.85 1324.36 257.456 1318.3 253.726C1315.08 251.746 1311.7 250.07 1308.19 248.683C1308.19 248.677 1308.18 248.669 1308.18 248.662C1314.05 247.516 1319.55 249.463 1324.31 252.986C1326.93 254.929 1329.47 257.193 1331.31 259.9C1332.8 262.082 1333.83 264.529 1334.77 266.99V266.99ZM1319.09 261.222C1314.29 258.345 1310.5 253.987 1308.27 248.862C1318.07 253.105 1326.57 259.766 1333.9 267.498C1328.98 265.379 1323.69 263.976 1319.09 261.222V261.222ZM1315.47 271.829C1315.67 271.699 1315.87 271.574 1316.07 271.454C1320.96 271.215 1325.92 271.962 1330.59 273.409C1332.69 274.063 1334.68 274.873 1336.58 275.819C1329.34 277.816 1321.42 276.511 1315.47 271.829ZM1335.63 274.122C1329.59 271.601 1322.85 270.686 1316.38 271.273C1322.7 267.756 1330.61 268.939 1335.63 274.122ZM1353.88 240.334C1353.84 240.27 1353.77 240.223 1353.68 240.233C1353.57 240.248 1353.47 240.261 1353.36 240.278C1353.29 240.19 1353.18 240.149 1353.05 240.222C1349.1 242.438 1345.84 245.838 1343.87 249.904C1343.05 244.362 1340.8 239.029 1337.54 234.484C1337.36 234.226 1337 234.388 1336.94 234.655C1335.69 240.486 1334.8 246.526 1335.61 252.485C1336.37 258.115 1338.77 263.895 1343.33 267.483C1342.9 270.59 1342.77 273.717 1343.02 276.827C1340.79 273.882 1338.48 271.009 1335.97 268.269C1334.8 265.104 1333.57 261.911 1331.59 259.155C1329.61 256.416 1326.93 254.085 1324.19 252.141C1319.56 248.864 1313.32 246.508 1307.7 248.487C1307.7 248.485 1307.69 248.485 1307.69 248.483C1307.66 248.47 1307.63 248.488 1307.62 248.513C1307.61 248.518 1307.59 248.521 1307.58 248.526C1307.47 248.566 1307.49 248.735 1307.59 248.769C1307.59 248.798 1307.6 248.827 1307.61 248.857C1309.83 254.048 1313.58 258.532 1318.39 261.516C1320.89 263.066 1323.64 264.125 1326.37 265.177C1329.11 266.233 1331.84 267.377 1334.64 268.277C1336.67 270.468 1338.62 272.741 1340.48 275.063C1341.29 276.079 1342.07 277.123 1342.83 278.175C1340.98 276.81 1338.99 275.651 1336.91 274.686C1331.46 268.157 1321.87 266.78 1314.8 271.586C1314.64 271.694 1314.68 271.927 1314.81 272.034C1320.88 276.992 1329.56 278.756 1336.97 276.011C1339.41 277.252 1341.73 278.716 1344.02 280.366C1344.17 280.475 1344.32 280.485 1344.45 280.44C1345.48 281.901 1346.52 283.362 1347.61 284.781C1348 285.294 1348.77 284.683 1348.39 284.164C1346.97 282.194 1345.55 280.232 1344.11 278.293V278.288C1343.75 274.392 1343.92 270.522 1344.5 266.699C1352.13 260.543 1354.04 250.004 1354.25 240.678C1354.25 240.448 1354.05 240.324 1353.88 240.334" fill="#DE0351"/>
<path d="M1321.03 225.439C1327.54 219.789 1334.33 213.602 1343.27 212.758C1340.31 215.852 1337.77 219.564 1334.16 221.928C1330.29 224.469 1325.56 225.118 1321.06 225.723C1321.05 225.629 1321.04 225.533 1321.03 225.439ZM1322.35 210.978C1323.87 205.193 1326.5 199.959 1329.07 194.615C1329.36 200.073 1330.32 205.904 1328.73 211.205C1327.21 216.274 1323.67 220.282 1320.98 224.737C1320.67 220.113 1321.16 215.501 1322.35 210.978ZM1316.1 207.956C1316.95 204.773 1319.2 202.759 1321.61 200.687C1323.83 198.786 1326.11 196.935 1328.27 194.966C1325.27 199.906 1322.89 205.413 1321.41 210.962C1320.25 215.334 1319.67 219.95 1320.04 224.479C1317.27 219.382 1314.49 213.886 1316.1 207.956ZM1341.91 212.312C1334.15 213.537 1327.7 218.654 1322.09 224.004C1323.31 222.333 1324.45 220.582 1325.56 218.861C1326.38 217.592 1327.16 216.29 1327.83 214.937C1332.05 212.629 1337.12 211.575 1341.91 212.312ZM1321.36 228.221C1321.27 227.621 1321.2 227.02 1321.13 226.421C1325.61 225.827 1330.28 225.152 1334.18 222.726C1336.12 221.516 1337.73 219.88 1339.24 218.176C1340.8 216.409 1342.35 214.6 1343.77 212.715C1343.81 212.714 1343.84 212.709 1343.88 212.707C1344.16 212.687 1344.26 212.336 1344.09 212.171C1344.07 212.123 1344.02 212.092 1343.96 212.1C1343.95 212.098 1343.95 212.095 1343.94 212.093C1338.52 211.114 1333.14 211.647 1328.23 214.123C1328.62 213.274 1328.96 212.408 1329.24 211.513C1330.07 208.882 1330.2 206.133 1330.14 203.395C1330.06 200.208 1329.88 197.014 1329.67 193.836C1329.67 193.781 1329.65 193.735 1329.63 193.697L1329.67 193.662C1329.74 193.593 1329.68 193.482 1329.61 193.456C1329.6 193.298 1329.37 193.219 1329.27 193.381C1329.16 193.553 1329.05 193.728 1328.93 193.904C1325.95 196.167 1323.13 198.687 1320.27 201.099C1318.01 203.006 1316.2 205.062 1315.44 207.982C1313.79 214.361 1316.99 220.706 1320.21 226.043C1320.31 226.815 1320.44 227.586 1320.6 228.35C1320.69 228.777 1321.43 228.658 1321.36 228.221" fill="#DE0351"/>
<path d="M1356.04 181.297C1358.55 185.793 1359.59 191.147 1358.46 196.187C1357.23 191.952 1355.65 187.795 1353.41 184.035C1351.73 181.219 1349.72 178.613 1347.68 176.056C1345.73 173.604 1343.77 171.149 1341.74 168.755C1347.54 171.488 1352.88 175.637 1356.04 181.297ZM1345.28 184.837C1342.91 179.869 1342.12 174.306 1341.45 168.884C1345.23 174.082 1349.47 178.991 1352.66 184.586C1355.06 188.793 1356.48 193.304 1357.79 197.89C1353.09 194.004 1347.99 190.492 1345.28 184.837V184.837ZM1341.15 167.819C1340.94 167.72 1340.72 167.933 1340.75 168.147C1341.42 174.008 1342.16 180.069 1344.84 185.416C1347.67 191.081 1352.95 194.836 1357.96 198.499C1358.32 199.769 1358.67 201.043 1359.03 202.318C1359.19 202.856 1360.11 202.596 1359.98 202.047C1359.63 200.538 1359.25 199.021 1358.83 197.511C1360.41 191.992 1359.41 186.018 1356.63 181.042C1353.22 174.936 1347.42 170.664 1341.15 167.819" fill="#DE0351"/>
<path d="M1426.48 195.806C1428.09 194.347 1429.78 192.981 1431.56 191.7C1437.01 187.763 1442.99 184.729 1448.76 181.303C1448.82 181.313 1448.89 181.318 1448.95 181.328C1448.99 181.334 1449.03 181.333 1449.07 181.324C1449.14 181.372 1449.21 181.419 1449.28 181.467C1443.32 188.494 1435.95 194.971 1426.48 195.806ZM1425.13 195.618C1426.86 191.287 1429.43 187.477 1433.37 184.785C1437.68 181.84 1442.97 180.601 1448.13 181.218C1440.12 184.87 1431.75 189.437 1425.13 195.618ZM1424.66 194.87C1424.18 189.326 1425.71 183.913 1428.68 179.19C1431.42 174.833 1435.14 171.236 1439.08 167.967C1437.65 170.052 1436.36 172.242 1435.01 174.371C1433.49 176.765 1431.97 179.159 1430.47 181.567C1427.89 185.731 1425.58 190.023 1424.66 194.87V194.87ZM1439.76 167.406C1439.37 172.986 1437.71 178.241 1434.97 183.129C1434.96 183.144 1434.96 183.157 1434.95 183.171C1434.32 183.52 1433.7 183.903 1433.09 184.32C1429.6 186.751 1426.61 190.383 1425.18 194.47C1426.05 189.68 1428.6 185.348 1431.14 181.265C1434 176.674 1437.13 172.171 1439.74 167.426C1439.75 167.42 1439.75 167.413 1439.76 167.406ZM1418.17 190.458C1417.5 183.376 1415.91 176.522 1413.46 169.838C1412.16 166.293 1410.55 162.88 1408.65 159.618L1408.66 159.595C1413.97 162.329 1417.09 167.271 1418.64 172.983C1419.49 176.13 1420.08 179.478 1419.85 182.745C1419.66 185.381 1418.96 187.94 1418.17 190.458V190.458ZM1409.44 176.214C1407.45 170.981 1407.17 165.211 1408.6 159.808C1413.66 169.21 1416.21 179.705 1417.18 190.317C1414.63 185.604 1411.34 181.227 1409.44 176.214V176.214ZM1400.02 182.292C1400.26 182.315 1400.49 182.342 1400.73 182.375C1404.72 185.219 1408.14 188.876 1410.91 192.905C1412.16 194.718 1413.21 196.584 1414.12 198.511C1407.2 195.586 1401.79 189.659 1400.02 182.292V182.292ZM1414.42 196.582C1411.24 190.863 1406.53 185.971 1401.08 182.426C1408.22 183.577 1413.69 189.406 1414.42 196.582ZM1449.68 181.372C1449.69 181.296 1449.67 181.218 1449.59 181.169C1449.5 181.113 1449.4 181.058 1449.31 181.007C1449.31 180.894 1449.25 180.792 1449.1 180.768C1444.63 180.059 1439.97 180.711 1435.9 182.683C1438.69 177.825 1440.23 172.245 1440.49 166.66C1440.5 166.341 1440.12 166.247 1439.91 166.42C1435.32 170.225 1430.87 174.413 1427.82 179.589C1424.93 184.481 1423.22 190.501 1424.58 196.144C1422.32 198.319 1420.28 200.688 1418.55 203.286C1418.62 199.596 1418.59 195.911 1418.32 192.203C1419.36 188.994 1420.38 185.726 1420.52 182.332C1420.67 178.957 1420.01 175.47 1419.06 172.24C1417.47 166.806 1414.03 161.089 1408.39 159.158C1408.38 159.155 1408.38 159.153 1408.38 159.15C1408.36 159.118 1408.33 159.117 1408.31 159.13C1408.29 159.127 1408.28 159.122 1408.27 159.117C1408.15 159.079 1408.07 159.226 1408.12 159.312C1408.11 159.337 1408.1 159.363 1408.09 159.396C1406.61 164.847 1406.78 170.689 1408.71 176.009C1409.7 178.775 1411.21 181.308 1412.7 183.829C1414.19 186.352 1415.63 188.942 1417.27 191.381C1417.51 194.364 1417.63 197.355 1417.65 200.329C1417.66 201.631 1417.62 202.93 1417.56 204.227C1416.96 202.008 1416.11 199.866 1415.08 197.82C1414.85 189.321 1408.18 182.3 1399.65 181.692C1399.46 181.677 1399.34 181.882 1399.38 182.051C1401.07 189.702 1406.79 196.461 1414.31 198.898C1415.45 201.386 1416.37 203.974 1417.14 206.684C1417.19 206.861 1417.3 206.963 1417.43 207.008C1417.34 208.796 1417.25 210.583 1417.22 212.374C1417.21 213.02 1418.19 213.015 1418.22 212.374C1418.32 209.946 1418.43 207.529 1418.5 205.117C1418.5 205.115 1418.5 205.114 1418.51 205.112C1420.63 201.831 1423.16 198.895 1425.99 196.258C1435.79 196.152 1443.82 189.058 1449.76 181.87C1449.91 181.693 1449.83 181.472 1449.68 181.372" fill="#DE0351"/>
<path d="M1390.81 244.334C1390.82 244.327 1390.82 244.319 1390.82 244.311C1393.62 237.998 1396.01 231.362 1397.42 224.591C1398.09 221.413 1398.48 218.119 1397.99 214.9C1401.69 225.225 1398.82 236.907 1390.81 244.334ZM1390.83 228.727C1392.35 223.767 1395.08 219.429 1397.54 214.92C1397.8 221.203 1395.98 227.322 1394.02 233.246C1392.78 237.002 1391.35 240.696 1389.73 244.306C1389.37 239.061 1389.27 233.822 1390.83 228.727ZM1378.26 241.463C1378.82 237.184 1380.62 233.188 1381.73 229.036C1381.97 231.473 1382.36 233.883 1382.52 236.332C1382.69 238.967 1382.7 241.611 1382.63 244.251C1382.55 246.746 1382.41 249.235 1382.22 251.724C1382.14 252.767 1382.02 253.815 1381.9 254.867C1379.5 250.691 1377.61 246.426 1378.26 241.463V241.463ZM1386.6 241.394C1386.62 245.54 1384.9 249.34 1383.14 253.012C1383.17 252.547 1383.2 252.083 1383.24 251.623C1383.43 249.004 1383.58 246.378 1383.6 243.753C1383.63 239.167 1383.53 234.208 1382.27 229.739C1384.71 233.15 1386.57 237.147 1386.6 241.394V241.394ZM1397.74 213.462C1397.64 213.378 1397.49 213.366 1397.41 213.517C1396.59 214.983 1395.76 216.465 1395.03 217.982C1392.96 221.413 1391.19 225.067 1390.06 228.851C1388.43 234.307 1388.72 239.961 1389.15 245.566C1388.09 247.862 1386.96 250.124 1385.74 252.344C1384.8 254.064 1383.82 255.76 1382.8 257.429C1382.91 256.425 1382.99 255.409 1383.05 254.397C1383.07 254.375 1383.09 254.356 1383.11 254.328C1385.23 250.208 1387.35 245.756 1387.18 241.008C1387 236.254 1384.66 231.938 1381.82 228.245C1381.7 228.096 1381.41 228.126 1381.36 228.323C1380.19 232.864 1378.14 237.213 1377.66 241.918C1377.16 246.888 1379.12 251.338 1381.85 255.361C1381.71 256.703 1381.59 258.045 1381.57 259.378V259.383C1380.94 260.366 1380.29 261.344 1379.63 262.31C1379.27 262.846 1380.09 263.43 1380.46 262.892C1384.16 257.472 1387.41 251.75 1390.16 245.79C1399.5 237.958 1402.78 224.909 1398.12 213.605C1398.05 213.428 1397.88 213.401 1397.74 213.462" fill="#DE0351"/>
<path d="M1369.46 141.539C1374 148.865 1379.03 156.554 1378.43 165.521C1375.85 162.096 1372.59 158.999 1370.84 155.062C1368.95 150.828 1369.06 146.061 1369.18 141.523C1369.28 141.529 1369.37 141.533 1369.46 141.539ZM1383.53 145.151C1389 147.571 1393.75 151.004 1398.61 154.395C1393.18 153.806 1387.27 153.826 1382.29 151.409C1377.53 149.096 1374.13 144.964 1370.17 141.597C1374.78 142.027 1379.25 143.257 1383.53 145.151V145.151ZM1387.51 139.455C1390.52 140.811 1392.15 143.348 1393.81 146.062C1395.33 148.554 1396.79 151.101 1398.39 153.55C1393.99 149.796 1388.94 146.572 1383.7 144.226C1379.57 142.376 1375.1 141.071 1370.57 140.716C1376.04 138.795 1381.91 136.929 1387.51 139.455V139.455ZM1379.09 164.242C1379.12 156.387 1375.1 149.204 1370.71 142.815C1372.17 144.282 1373.71 145.685 1375.24 147.057C1376.36 148.069 1377.52 149.047 1378.75 149.93C1380.35 154.456 1380.59 159.633 1379.09 164.242ZM1366.67 141.424C1367.27 141.427 1367.88 141.448 1368.48 141.481C1368.35 145.994 1368.27 150.713 1370.05 154.953C1370.93 157.065 1372.29 158.915 1373.73 160.673C1375.22 162.498 1376.76 164.315 1378.4 166.018C1378.39 166.055 1378.39 166.091 1378.39 166.128C1378.36 166.406 1378.69 166.559 1378.88 166.422C1378.94 166.406 1378.97 166.358 1378.98 166.303C1378.98 166.295 1378.98 166.288 1378.99 166.28C1380.82 161.094 1381.15 155.692 1379.49 150.446C1380.26 150.967 1381.06 151.449 1381.9 151.869C1384.37 153.103 1387.06 153.672 1389.78 154.044C1392.93 154.478 1396.11 154.814 1399.28 155.11C1399.34 155.115 1399.39 155.108 1399.43 155.093C1399.44 155.107 1399.45 155.12 1399.46 155.133C1399.51 155.217 1399.63 155.179 1399.67 155.105C1399.83 155.125 1399.94 154.913 1399.8 154.784C1399.65 154.645 1399.49 154.509 1399.34 154.372C1397.58 151.065 1395.54 147.88 1393.61 144.673C1392.09 142.135 1390.35 140.022 1387.59 138.808C1381.56 136.156 1374.78 138.305 1369 140.629C1368.22 140.606 1367.44 140.611 1366.66 140.651C1366.22 140.672 1366.22 141.422 1366.67 141.424Z" fill="#DE0351"/>
<path d="M1423.09 255.405C1425.61 259.903 1426.64 265.255 1425.52 270.296C1424.28 266.061 1422.71 261.905 1420.46 258.143C1418.79 255.329 1416.77 252.724 1414.73 250.164C1412.78 247.714 1410.82 245.259 1408.8 242.864C1414.6 245.597 1419.93 249.746 1423.09 255.405ZM1412.34 258.947C1409.96 253.979 1409.18 248.416 1408.5 242.993C1412.28 248.191 1416.52 253.099 1419.71 258.694C1422.11 262.901 1423.54 267.412 1424.84 272C1420.15 268.114 1415.04 264.6 1412.34 258.947V258.947ZM1408.21 241.927C1407.99 241.828 1407.77 242.042 1407.8 242.255C1408.48 248.118 1409.22 254.179 1411.89 259.524C1414.72 265.189 1420 268.944 1425.01 272.607C1425.37 273.877 1425.72 275.153 1426.09 276.427C1426.24 276.964 1427.16 276.705 1427.04 276.155C1426.68 274.648 1426.3 273.131 1425.89 271.619C1427.46 266.1 1426.47 260.127 1423.69 255.15C1420.27 249.044 1414.48 244.774 1408.21 241.927" fill="#DE0351"/>
<path d="M1200.97 413.429C1201.32 411.29 1201.81 409.166 1202.41 407.062C1204.25 400.592 1207.06 394.507 1209.47 388.244C1209.52 388.212 1209.58 388.177 1209.63 388.146C1209.67 388.125 1209.7 388.096 1209.72 388.067C1209.81 388.062 1209.89 388.057 1209.98 388.05C1209.65 397.258 1207.88 406.908 1200.97 413.429ZM1199.79 414.119C1198.47 409.646 1198.12 405.065 1199.54 400.514C1201.1 395.533 1204.49 391.278 1208.93 388.565C1204.9 396.395 1201.15 405.171 1199.79 414.119ZM1198.96 413.823C1195.15 409.768 1192.99 404.575 1192.4 399.028C1191.85 393.908 1192.54 388.783 1193.61 383.772C1193.78 386.295 1194.12 388.814 1194.38 391.324C1194.67 394.143 1194.96 396.964 1195.28 399.779C1195.83 404.648 1196.68 409.451 1198.96 413.823V413.823ZM1193.8 382.91C1196.95 387.529 1198.9 392.686 1199.78 398.221C1199.78 398.234 1199.79 398.249 1199.79 398.262C1199.51 398.932 1199.25 399.617 1199.04 400.317C1197.81 404.388 1197.71 409.093 1199.12 413.188C1196.83 408.891 1196.15 403.909 1195.62 399.129C1195.01 393.753 1194.68 388.278 1193.79 382.94C1193.79 382.93 1193.79 382.922 1193.8 382.91V382.91ZM1191.13 414.38C1186.21 409.24 1180.72 404.847 1174.66 401.116C1171.44 399.136 1168.06 397.46 1164.55 396.074C1164.54 396.065 1164.54 396.059 1164.54 396.052C1170.4 394.906 1175.91 396.853 1180.67 400.377C1183.29 402.319 1185.82 404.582 1187.67 407.29C1189.15 409.472 1190.19 411.919 1191.13 414.38V414.38ZM1175.45 408.612C1170.65 405.735 1166.86 401.377 1164.63 396.252C1174.43 400.496 1182.93 407.156 1190.26 414.888C1185.34 412.769 1180.05 411.366 1175.45 408.612V408.612ZM1171.82 419.219C1172.02 419.089 1172.23 418.965 1172.43 418.844C1177.32 418.606 1182.28 419.352 1186.95 420.799C1189.05 421.453 1191.03 422.263 1192.94 423.21C1185.69 425.206 1177.78 423.901 1171.82 419.219ZM1191.98 421.512C1185.94 418.991 1179.21 418.076 1172.74 418.663C1179.06 415.146 1186.97 416.329 1191.98 421.512ZM1210.24 387.726C1210.2 387.66 1210.13 387.613 1210.04 387.623C1209.93 387.637 1209.82 387.653 1209.72 387.668C1209.65 387.58 1209.54 387.539 1209.41 387.612C1205.45 389.827 1202.2 393.227 1200.23 397.295C1199.41 391.753 1197.16 386.419 1193.9 381.875C1193.72 381.616 1193.36 381.779 1193.3 382.045C1192.05 387.876 1191.16 393.916 1191.97 399.875C1192.73 405.505 1195.12 411.285 1199.68 414.873C1199.26 417.98 1199.12 421.107 1199.37 424.217C1197.15 421.272 1194.84 418.399 1192.33 415.659C1191.16 412.494 1189.93 409.302 1187.94 406.546C1185.97 403.806 1183.29 401.475 1180.54 399.531C1175.92 396.254 1169.68 393.898 1164.06 395.877C1164.05 395.875 1164.05 395.875 1164.05 395.873C1164.01 395.86 1163.99 395.878 1163.98 395.903C1163.96 395.908 1163.95 395.911 1163.94 395.916C1163.82 395.956 1163.85 396.125 1163.95 396.16C1163.95 396.188 1163.96 396.218 1163.97 396.247C1166.19 401.439 1169.94 405.922 1174.75 408.906C1177.25 410.456 1179.99 411.515 1182.73 412.567C1185.46 413.623 1188.2 414.768 1190.99 415.667C1193.03 417.858 1194.98 420.131 1196.84 422.454C1197.65 423.469 1198.42 424.513 1199.18 425.565C1197.33 424.201 1195.34 423.041 1193.26 422.076C1187.82 415.547 1178.23 414.17 1171.16 418.974C1171 419.084 1171.04 419.317 1171.17 419.424C1177.24 424.382 1185.92 426.146 1193.32 423.4C1195.77 424.642 1198.09 426.106 1200.37 427.756C1200.52 427.865 1200.68 427.875 1200.8 427.83C1201.84 429.291 1202.87 430.752 1203.97 432.171C1204.36 432.684 1205.12 432.073 1204.75 431.554C1203.33 429.584 1201.91 427.622 1200.47 425.683C1200.47 425.681 1200.47 425.679 1200.47 425.678C1200.11 421.782 1200.27 417.912 1200.86 414.089C1208.49 407.933 1210.39 397.394 1210.61 388.068C1210.61 387.838 1210.41 387.714 1210.24 387.726" fill="#DE0351"/>
<path d="M1290.75 343.196C1292.36 341.737 1294.05 340.369 1295.83 339.09C1301.28 335.153 1307.26 332.12 1313.03 328.691C1313.09 328.701 1313.16 328.708 1313.22 328.718C1313.26 328.724 1313.3 328.722 1313.34 328.713C1313.41 328.761 1313.48 328.81 1313.55 328.856C1307.59 335.884 1300.22 342.361 1290.75 343.196ZM1289.4 343.009C1291.13 338.678 1293.7 334.867 1297.64 332.175C1301.95 329.23 1307.24 327.991 1312.4 328.61C1304.39 332.259 1296.02 336.827 1289.4 343.009ZM1288.93 342.26C1288.45 336.716 1289.98 331.305 1292.95 326.58C1295.69 322.221 1299.41 318.624 1303.35 315.357C1301.92 317.442 1300.63 319.632 1299.28 321.761C1297.76 324.155 1296.24 326.549 1294.74 328.957C1292.16 333.121 1289.85 337.413 1288.93 342.26V342.26ZM1304.03 314.796C1303.64 320.375 1301.98 325.631 1299.24 330.521C1299.23 330.534 1299.23 330.547 1299.22 330.559C1298.59 330.91 1297.96 331.293 1297.36 331.712C1293.88 334.14 1290.88 337.773 1289.45 341.858C1290.32 337.07 1292.87 332.739 1295.41 328.656C1298.27 324.064 1301.4 319.561 1304.01 314.818C1304.02 314.81 1304.02 314.803 1304.03 314.796ZM1282.44 337.849C1281.77 330.766 1280.18 323.913 1277.73 317.23C1276.43 313.683 1274.82 310.272 1272.92 307.008C1272.92 306.999 1272.92 306.993 1272.93 306.985C1278.24 309.719 1281.36 314.662 1282.91 320.373C1283.76 323.52 1284.35 326.868 1284.12 330.135C1283.93 332.771 1283.23 335.33 1282.44 337.849V337.849ZM1273.71 323.604C1271.72 318.37 1271.44 312.601 1272.87 307.196C1277.93 316.6 1280.48 327.095 1281.44 337.707C1278.9 332.996 1275.61 328.617 1273.71 323.604V323.604ZM1264.29 329.682C1264.53 329.705 1264.76 329.732 1265 329.765C1268.99 332.609 1272.41 336.266 1275.18 340.293C1276.43 342.108 1277.48 343.974 1278.39 345.901C1271.47 342.975 1266.06 337.047 1264.29 329.682V329.682ZM1278.69 343.974C1275.52 338.253 1270.8 333.363 1265.35 329.816C1272.49 330.966 1277.97 336.797 1278.69 343.974ZM1313.95 328.761C1313.96 328.686 1313.94 328.608 1313.86 328.559C1313.77 328.502 1313.67 328.45 1313.58 328.397C1313.58 328.284 1313.52 328.182 1313.37 328.158C1308.9 327.449 1304.23 328.1 1300.17 330.072C1302.96 325.217 1304.5 319.635 1304.76 314.05C1304.77 313.731 1304.39 313.637 1304.18 313.81C1299.59 317.615 1295.14 321.801 1292.09 326.979C1289.2 331.871 1287.49 337.892 1288.85 343.532C1286.59 345.709 1284.55 348.078 1282.82 350.675C1282.89 346.985 1282.86 343.3 1282.59 339.593C1283.63 336.385 1284.65 333.116 1284.79 329.722C1284.94 326.347 1284.28 322.858 1283.33 319.632C1281.74 314.197 1278.3 308.48 1272.66 306.548C1272.65 306.546 1272.65 306.543 1272.65 306.54C1272.63 306.508 1272.6 306.506 1272.58 306.52C1272.56 306.515 1272.55 306.51 1272.54 306.506C1272.42 306.468 1272.34 306.616 1272.39 306.7C1272.38 306.727 1272.37 306.753 1272.36 306.784C1270.88 312.235 1271.05 318.079 1272.97 323.399C1273.97 326.165 1275.48 328.698 1276.97 331.219C1278.46 333.742 1279.9 336.332 1281.54 338.771C1281.78 341.755 1281.9 344.745 1281.92 347.719C1281.93 349.021 1281.89 350.32 1281.83 351.617C1281.23 349.398 1280.38 347.256 1279.35 345.21C1279.12 336.711 1272.45 329.69 1263.92 329.081C1263.73 329.068 1263.61 329.272 1263.65 329.44C1265.34 337.092 1271.06 343.851 1278.58 346.288C1279.72 348.776 1280.64 351.364 1281.41 354.073C1281.46 354.252 1281.57 354.353 1281.7 354.398C1281.61 356.186 1281.52 357.974 1281.49 359.764C1281.48 360.408 1282.46 360.403 1282.49 359.764C1282.59 357.337 1282.7 354.92 1282.77 352.507C1282.77 352.505 1282.77 352.505 1282.77 352.503C1284.91 349.221 1287.43 346.285 1290.26 343.646C1300.06 343.542 1308.09 336.448 1314.03 329.26C1314.18 329.083 1314.1 328.863 1313.95 328.761" fill="#DE0351"/>
<path d="M1344.61 413.429C1344.97 411.29 1345.45 409.166 1346.05 407.062C1347.89 400.592 1350.71 394.507 1353.11 388.244C1353.16 388.212 1353.22 388.177 1353.27 388.146C1353.31 388.125 1353.34 388.096 1353.37 388.067C1353.45 388.062 1353.53 388.057 1353.62 388.05C1353.3 397.258 1351.52 406.908 1344.61 413.429ZM1343.43 414.119C1342.11 409.646 1341.76 405.065 1343.19 400.514C1344.74 395.533 1348.13 391.278 1352.57 388.565C1348.54 396.395 1344.8 405.171 1343.43 414.119ZM1342.6 413.823C1338.79 409.768 1336.63 404.575 1336.04 399.028C1335.49 393.908 1336.18 388.783 1337.25 383.772C1337.42 386.295 1337.76 388.814 1338.02 391.324C1338.31 394.143 1338.6 396.964 1338.92 399.779C1339.47 404.648 1340.32 409.451 1342.6 413.823V413.823ZM1337.44 382.91C1340.59 387.529 1342.54 392.686 1343.42 398.221C1343.42 398.234 1343.43 398.249 1343.43 398.262C1343.15 398.932 1342.9 399.617 1342.68 400.317C1341.45 404.388 1341.35 409.093 1342.76 413.188C1340.47 408.891 1339.79 403.909 1339.26 399.129C1338.66 393.753 1338.33 388.278 1337.43 382.94C1337.43 382.93 1337.44 382.922 1337.44 382.91V382.91ZM1334.77 414.38C1329.85 409.24 1324.36 404.847 1318.3 401.116C1315.08 399.136 1311.7 397.46 1308.19 396.074C1308.19 396.065 1308.18 396.059 1308.18 396.052C1314.05 394.906 1319.55 396.853 1324.31 400.377C1326.93 402.319 1329.47 404.582 1331.31 407.29C1332.8 409.472 1333.83 411.919 1334.77 414.38V414.38ZM1319.09 408.612C1314.29 405.735 1310.5 401.377 1308.27 396.252C1318.07 400.496 1326.57 407.156 1333.9 414.888C1328.98 412.769 1323.69 411.366 1319.09 408.612V408.612ZM1315.47 419.219C1315.67 419.089 1315.87 418.965 1316.07 418.844C1320.96 418.606 1325.92 419.352 1330.59 420.799C1332.69 421.453 1334.68 422.263 1336.58 423.21C1329.34 425.206 1321.42 423.901 1315.47 419.219ZM1335.63 421.512C1329.59 418.991 1322.85 418.076 1316.38 418.663C1322.7 415.146 1330.61 416.329 1335.63 421.512ZM1353.88 387.726C1353.84 387.66 1353.77 387.613 1353.68 387.623C1353.57 387.637 1353.47 387.653 1353.36 387.668C1353.29 387.58 1353.18 387.539 1353.05 387.612C1349.1 389.827 1345.84 393.227 1343.87 397.295C1343.05 391.753 1340.8 386.419 1337.54 381.875C1337.36 381.616 1337 381.779 1336.94 382.045C1335.69 387.876 1334.8 393.916 1335.61 399.875C1336.37 405.505 1338.77 411.285 1343.33 414.873C1342.9 417.98 1342.77 421.107 1343.02 424.217C1340.79 421.272 1338.48 418.399 1335.97 415.659C1334.8 412.494 1333.57 409.302 1331.59 406.546C1329.61 403.806 1326.93 401.475 1324.19 399.531C1319.56 396.254 1313.32 393.898 1307.7 395.877C1307.7 395.875 1307.69 395.875 1307.69 395.873C1307.66 395.86 1307.63 395.878 1307.62 395.903C1307.61 395.908 1307.59 395.911 1307.58 395.916C1307.47 395.956 1307.49 396.125 1307.59 396.16C1307.59 396.188 1307.6 396.218 1307.61 396.247C1309.83 401.439 1313.58 405.922 1318.39 408.906C1320.89 410.456 1323.64 411.515 1326.37 412.567C1329.11 413.623 1331.84 414.768 1334.64 415.667C1336.67 417.858 1338.62 420.131 1340.48 422.454C1341.29 423.469 1342.07 424.513 1342.83 425.565C1340.98 424.201 1338.99 423.041 1336.91 422.076C1331.46 415.547 1321.87 414.17 1314.8 418.974C1314.64 419.084 1314.68 419.317 1314.81 419.424C1320.88 424.382 1329.56 426.146 1336.97 423.4C1339.41 424.642 1341.73 426.106 1344.02 427.756C1344.17 427.865 1344.32 427.875 1344.45 427.83C1345.48 429.291 1346.52 430.752 1347.61 432.171C1348 432.684 1348.77 432.073 1348.39 431.554C1346.97 429.584 1345.55 427.622 1344.11 425.683V425.678C1343.75 421.782 1343.92 417.912 1344.5 414.089C1352.13 407.933 1354.04 397.394 1354.25 388.068C1354.25 387.838 1354.05 387.714 1353.88 387.726" fill="#DE0351"/>
<path d="M1255.08 391.724C1255.08 391.717 1255.09 391.709 1255.09 391.701C1257.88 385.388 1260.28 378.751 1261.69 371.979C1262.35 368.803 1262.75 365.509 1262.25 362.292C1265.96 372.615 1263.09 384.298 1255.08 391.724ZM1255.1 376.117C1256.61 371.156 1259.35 366.82 1261.81 362.31C1262.07 368.593 1260.24 374.714 1258.29 380.637C1257.04 384.39 1255.61 388.086 1253.99 391.696C1253.64 386.45 1253.54 381.212 1255.1 376.117ZM1242.53 388.854C1243.09 384.574 1244.89 380.579 1245.99 376.426C1246.23 378.865 1246.63 381.273 1246.78 383.722C1246.95 386.357 1246.97 389.001 1246.89 391.641C1246.82 394.134 1246.68 396.626 1246.48 399.114C1246.4 400.156 1246.28 401.205 1246.17 402.257C1243.77 398.081 1241.88 393.817 1242.53 388.854V388.854ZM1250.86 388.784C1250.89 392.93 1249.17 396.73 1247.41 400.402C1247.44 399.938 1247.47 399.473 1247.5 399.011C1247.7 396.392 1247.84 393.769 1247.86 391.143C1247.89 386.557 1247.8 381.599 1246.53 377.129C1248.98 380.541 1250.84 384.537 1250.86 388.784V388.784ZM1262.01 360.852C1261.91 360.768 1261.76 360.756 1261.67 360.907C1260.85 362.373 1260.03 363.853 1259.29 365.37C1257.23 368.803 1255.45 372.458 1254.33 376.241C1252.7 381.697 1252.99 387.351 1253.42 392.956C1252.36 395.253 1251.22 397.514 1250.01 399.734C1249.07 401.455 1248.09 403.15 1247.06 404.82C1247.18 403.815 1247.25 402.8 1247.32 401.787C1247.34 401.766 1247.36 401.746 1247.37 401.716C1249.49 397.598 1251.62 393.147 1251.45 388.399C1251.27 383.642 1248.93 379.33 1246.09 375.635C1245.97 375.487 1245.68 375.516 1245.63 375.713C1244.46 380.254 1242.4 384.604 1241.93 389.309C1241.43 394.278 1243.38 398.728 1246.12 402.752C1245.98 404.093 1245.85 405.435 1245.83 406.768C1245.83 406.77 1245.83 406.772 1245.83 406.773C1245.2 407.756 1244.56 408.734 1243.9 409.7C1243.53 410.236 1244.36 410.82 1244.72 410.282C1248.43 404.863 1251.68 399.14 1254.42 393.18C1263.77 385.348 1267.04 372.299 1262.39 360.995C1262.32 360.818 1262.15 360.793 1262.01 360.852" fill="#DE0351"/>
<path d="M1321.03 372.828C1327.54 367.179 1334.33 360.992 1343.27 360.148C1340.31 363.24 1337.77 366.954 1334.16 369.318C1330.29 371.859 1325.56 372.507 1321.06 373.113C1321.05 373.017 1321.04 372.923 1321.03 372.828ZM1322.35 358.368C1323.87 352.583 1326.5 347.348 1329.07 342.003C1329.36 347.463 1330.32 353.294 1328.73 358.595C1327.21 363.663 1323.67 367.672 1320.98 372.127C1320.67 367.503 1321.16 362.891 1322.35 358.368ZM1316.1 355.345C1316.95 352.162 1319.2 350.149 1321.61 348.076C1323.83 346.175 1326.11 344.326 1328.27 342.356C1325.27 347.295 1322.89 352.803 1321.41 358.35C1320.25 362.724 1319.67 367.339 1320.04 371.869C1317.27 366.772 1314.49 361.276 1316.1 355.345ZM1341.91 359.7C1334.15 360.927 1327.7 366.044 1322.09 371.394C1323.31 369.722 1324.45 367.971 1325.56 366.251C1326.38 364.984 1327.16 363.68 1327.83 362.327C1332.05 360.019 1337.12 358.965 1341.91 359.7ZM1321.36 375.611C1321.27 375.01 1321.2 374.41 1321.13 373.811C1325.61 373.217 1330.28 372.542 1334.18 370.114C1336.12 368.906 1337.73 367.271 1339.24 365.566C1340.8 363.801 1342.35 361.989 1343.77 360.107C1343.81 360.103 1343.84 360.098 1343.88 360.097C1344.16 360.077 1344.26 359.724 1344.09 359.559C1344.07 359.511 1344.02 359.481 1343.96 359.489C1343.95 359.488 1343.95 359.486 1343.94 359.485C1338.52 358.504 1333.14 359.036 1328.23 361.513C1328.62 360.662 1328.96 359.796 1329.24 358.902C1330.07 356.272 1330.2 353.521 1330.14 350.784C1330.06 347.598 1329.88 344.404 1329.67 341.224C1329.67 341.171 1329.65 341.125 1329.63 341.087C1329.64 341.075 1329.65 341.065 1329.67 341.054C1329.74 340.983 1329.68 340.872 1329.61 340.845C1329.6 340.688 1329.37 340.609 1329.27 340.771C1329.16 340.944 1329.05 341.118 1328.93 341.294C1325.95 343.558 1323.13 346.076 1320.27 348.488C1318.01 350.394 1316.2 352.452 1315.44 355.37C1313.79 361.751 1316.99 368.095 1320.21 373.432C1320.31 374.205 1320.44 374.976 1320.6 375.74C1320.69 376.167 1321.43 376.046 1321.36 375.611" fill="#DE0351"/>
<path d="M1356.04 328.686C1358.55 333.183 1359.59 338.536 1358.46 343.577C1357.23 339.34 1355.65 335.186 1353.41 331.424C1351.73 328.609 1349.72 326.005 1347.68 323.445C1345.73 320.995 1343.77 318.539 1341.74 316.145C1347.54 318.878 1352.88 323.027 1356.04 328.686ZM1345.28 332.227C1342.91 327.26 1342.12 321.695 1341.45 316.272C1345.23 321.472 1349.47 326.379 1352.66 331.975C1355.06 336.182 1356.48 340.693 1357.79 345.279C1353.09 341.393 1347.99 337.881 1345.28 332.227V332.227ZM1341.15 315.208C1340.94 315.109 1340.72 315.323 1340.75 315.536C1341.42 321.397 1342.16 327.46 1344.84 332.806C1347.67 338.47 1352.95 342.225 1357.96 345.888C1358.32 347.159 1358.67 348.432 1359.03 349.706C1359.19 350.246 1360.11 349.984 1359.98 349.437C1359.63 347.928 1359.25 346.411 1358.83 344.9C1360.41 339.382 1359.41 333.408 1356.63 328.432C1353.22 322.325 1347.42 318.054 1341.15 315.208" fill="#DE0351"/>
<path d="M1287.36 402.795C1289.87 407.293 1290.91 412.645 1289.78 417.686C1288.55 413.451 1286.97 409.295 1284.73 405.533C1283.05 402.719 1281.04 400.114 1279 397.554C1277.05 395.104 1275.09 392.648 1273.06 390.254C1278.86 392.987 1284.2 397.136 1287.36 402.795ZM1276.61 406.337C1274.23 401.369 1273.44 395.806 1272.77 390.383C1276.55 395.581 1280.79 400.489 1283.98 406.084C1286.38 410.291 1287.8 414.802 1289.11 419.39C1284.41 415.504 1279.31 411.99 1276.61 406.337V406.337ZM1272.48 389.318C1272.26 389.218 1272.04 389.432 1272.07 389.647C1272.75 395.508 1273.48 401.569 1276.16 406.915C1278.99 412.579 1284.27 416.334 1289.28 419.997C1289.64 421.268 1289.99 422.543 1290.36 423.817C1290.51 424.355 1291.43 424.095 1291.3 423.546C1290.95 422.039 1290.57 420.521 1290.16 419.009C1291.73 413.491 1290.73 407.517 1287.95 402.541C1284.54 396.434 1278.75 392.163 1272.48 389.318" fill="#DE0351"/>
<path d="M1426.48 343.196C1428.09 341.737 1429.78 340.369 1431.56 339.09C1437.01 335.153 1442.99 332.12 1448.76 328.691C1448.82 328.701 1448.89 328.708 1448.95 328.718C1448.99 328.724 1449.03 328.722 1449.07 328.713C1449.14 328.761 1449.21 328.81 1449.28 328.856C1443.32 335.884 1435.95 342.361 1426.48 343.196ZM1425.13 343.009C1426.86 338.678 1429.43 334.867 1433.37 332.175C1437.68 329.23 1442.97 327.991 1448.13 328.61C1440.12 332.259 1431.75 336.827 1425.13 343.009ZM1424.66 342.26C1424.18 336.716 1425.71 331.305 1428.68 326.58C1431.42 322.221 1435.14 318.624 1439.08 315.357C1437.65 317.442 1436.36 319.632 1435.01 321.761C1433.49 324.155 1431.97 326.549 1430.47 328.957C1427.89 333.121 1425.58 337.413 1424.66 342.26V342.26ZM1439.76 314.796C1439.37 320.375 1437.71 325.631 1434.97 330.521C1434.96 330.534 1434.96 330.547 1434.95 330.559C1434.32 330.91 1433.7 331.293 1433.09 331.712C1429.6 334.14 1426.61 337.773 1425.18 341.858C1426.05 337.07 1428.6 332.739 1431.14 328.656C1434 324.064 1437.13 319.561 1439.74 314.818C1439.75 314.81 1439.75 314.803 1439.76 314.796ZM1418.17 337.849C1417.5 330.766 1415.91 323.913 1413.46 317.23C1412.16 313.683 1410.55 310.272 1408.65 307.008C1408.65 306.999 1408.65 306.993 1408.66 306.985C1413.97 309.719 1417.09 314.662 1418.64 320.373C1419.49 323.52 1420.08 326.868 1419.85 330.135C1419.66 332.771 1418.96 335.33 1418.17 337.849V337.849ZM1409.44 323.604C1407.45 318.37 1407.17 312.601 1408.6 307.196C1413.66 316.6 1416.21 327.095 1417.18 337.707C1414.63 332.996 1411.34 328.617 1409.44 323.604V323.604ZM1400.02 329.682C1400.26 329.705 1400.49 329.732 1400.73 329.765C1404.72 332.609 1408.14 336.266 1410.91 340.293C1412.16 342.108 1413.21 343.974 1414.12 345.901C1407.2 342.975 1401.79 337.047 1400.02 329.682V329.682ZM1414.42 343.974C1411.24 338.253 1406.53 333.363 1401.08 329.816C1408.22 330.966 1413.69 336.797 1414.42 343.974ZM1449.68 328.761C1449.69 328.686 1449.67 328.608 1449.59 328.559C1449.5 328.502 1449.4 328.45 1449.31 328.397C1449.31 328.284 1449.25 328.182 1449.1 328.158C1444.63 327.449 1439.97 328.1 1435.9 330.072C1438.69 325.217 1440.23 319.635 1440.49 314.05C1440.5 313.731 1440.12 313.637 1439.91 313.81C1435.32 317.615 1430.87 321.801 1427.82 326.979C1424.93 331.871 1423.22 337.892 1424.58 343.532C1422.32 345.709 1420.28 348.078 1418.55 350.675C1418.62 346.985 1418.59 343.3 1418.32 339.593C1419.36 336.385 1420.38 333.116 1420.52 329.722C1420.67 326.347 1420.01 322.858 1419.06 319.632C1417.47 314.197 1414.03 308.48 1408.39 306.548C1408.38 306.546 1408.38 306.543 1408.38 306.54C1408.36 306.508 1408.33 306.506 1408.31 306.52C1408.29 306.515 1408.28 306.51 1408.27 306.506C1408.15 306.468 1408.07 306.616 1408.12 306.7C1408.11 306.727 1408.1 306.753 1408.09 306.784C1406.61 312.235 1406.78 318.079 1408.71 323.399C1409.7 326.165 1411.21 328.698 1412.7 331.219C1414.19 333.742 1415.63 336.332 1417.27 338.771C1417.51 341.755 1417.63 344.745 1417.65 347.719C1417.66 349.021 1417.62 350.32 1417.56 351.617C1416.96 349.398 1416.11 347.256 1415.08 345.21C1414.85 336.711 1408.18 329.69 1399.65 329.081C1399.46 329.068 1399.34 329.272 1399.38 329.44C1401.07 337.092 1406.79 343.851 1414.31 346.288C1415.45 348.776 1416.37 351.364 1417.14 354.073C1417.19 354.252 1417.3 354.353 1417.43 354.398C1417.34 356.186 1417.25 357.974 1417.22 359.764C1417.21 360.408 1418.19 360.403 1418.22 359.764C1418.32 357.337 1418.43 354.92 1418.5 352.507C1418.5 352.505 1418.5 352.505 1418.51 352.503C1420.63 349.221 1423.16 346.285 1425.99 343.646C1435.79 343.542 1443.82 336.448 1449.76 329.26C1449.91 329.083 1449.83 328.863 1449.68 328.761" fill="#DE0351"/>
<path d="M1390.81 391.724C1390.82 391.717 1390.82 391.709 1390.82 391.701C1393.62 385.388 1396.01 378.751 1397.42 371.979C1398.09 368.803 1398.48 365.509 1397.99 362.292C1401.69 372.615 1398.82 384.298 1390.81 391.724ZM1390.83 376.117C1392.35 371.156 1395.08 366.82 1397.54 362.31C1397.8 368.593 1395.98 374.714 1394.02 380.637C1392.78 384.39 1391.35 388.086 1389.73 391.696C1389.37 386.45 1389.27 381.212 1390.83 376.117ZM1378.26 388.854C1378.82 384.574 1380.62 380.579 1381.73 376.426C1381.97 378.865 1382.36 381.273 1382.52 383.722C1382.69 386.357 1382.7 389.001 1382.63 391.641C1382.55 394.134 1382.41 396.626 1382.22 399.114C1382.14 400.156 1382.02 401.205 1381.9 402.257C1379.5 398.081 1377.61 393.817 1378.26 388.854V388.854ZM1386.6 388.784C1386.62 392.93 1384.9 396.73 1383.14 400.402C1383.17 399.938 1383.2 399.473 1383.24 399.011C1383.43 396.392 1383.58 393.769 1383.6 391.143C1383.63 386.557 1383.53 381.599 1382.27 377.129C1384.71 380.541 1386.57 384.537 1386.6 388.784V388.784ZM1397.74 360.852C1397.64 360.768 1397.49 360.756 1397.41 360.907C1396.59 362.373 1395.76 363.853 1395.03 365.37C1392.96 368.803 1391.19 372.458 1390.06 376.241C1388.43 381.697 1388.72 387.351 1389.15 392.956C1388.09 395.253 1386.96 397.514 1385.74 399.734C1384.8 401.455 1383.82 403.15 1382.8 404.82C1382.91 403.815 1382.99 402.8 1383.05 401.787C1383.07 401.766 1383.09 401.746 1383.11 401.716C1385.23 397.598 1387.35 393.147 1387.18 388.399C1387 383.642 1384.66 379.33 1381.82 375.635C1381.7 375.487 1381.41 375.516 1381.36 375.713C1380.19 380.254 1378.14 384.604 1377.66 389.309C1377.16 394.278 1379.12 398.728 1381.85 402.752C1381.71 404.093 1381.59 405.435 1381.57 406.768V406.773C1380.94 407.756 1380.29 408.734 1379.63 409.7C1379.27 410.236 1380.09 410.82 1380.46 410.282C1384.16 404.863 1387.41 399.14 1390.16 393.18C1399.5 385.348 1402.78 372.299 1398.12 360.995C1398.05 360.818 1397.88 360.793 1397.74 360.852" fill="#DE0351"/>
<path d="M1369.46 288.929C1374 296.254 1379.03 303.942 1378.43 312.908C1375.85 309.486 1372.59 306.389 1370.84 302.451C1368.95 298.218 1369.06 293.45 1369.18 288.911C1369.28 288.917 1369.37 288.921 1369.46 288.929ZM1383.53 292.54C1389 294.961 1393.75 298.395 1398.61 301.785C1393.18 301.196 1387.27 301.216 1382.29 298.799C1377.53 296.486 1374.13 292.352 1370.17 288.987C1374.78 289.417 1379.25 290.646 1383.53 292.54V292.54ZM1387.51 286.844C1390.52 288.201 1392.15 290.737 1393.81 293.452C1395.33 295.942 1396.79 298.491 1398.39 300.939C1393.99 297.186 1388.94 293.961 1383.7 291.616C1379.57 289.766 1375.1 288.461 1370.57 288.105C1376.04 286.184 1381.91 284.318 1387.51 286.844V286.844ZM1379.09 311.631C1379.12 303.777 1375.1 296.595 1370.71 290.204C1372.17 291.672 1373.71 293.075 1375.24 294.446C1376.36 295.459 1377.52 296.436 1378.75 297.32C1380.35 301.848 1380.59 307.022 1379.09 311.631ZM1366.67 288.813C1367.27 288.816 1367.88 288.838 1368.48 288.871C1368.35 293.384 1368.27 298.102 1370.05 302.342C1370.93 304.455 1372.29 306.304 1373.73 308.063C1375.22 309.888 1376.76 311.704 1378.4 313.408C1378.39 313.444 1378.39 313.481 1378.39 313.517C1378.36 313.794 1378.69 313.949 1378.88 313.81C1378.94 313.794 1378.97 313.747 1378.98 313.693C1378.98 313.684 1378.98 313.678 1378.99 313.669C1380.82 308.481 1381.15 303.082 1379.49 297.838C1380.26 298.357 1381.06 298.837 1381.9 299.257C1384.37 300.491 1387.06 301.062 1389.78 301.436C1392.93 301.867 1396.11 302.202 1399.28 302.499C1399.34 302.504 1399.39 302.498 1399.43 302.481C1399.44 302.496 1399.45 302.509 1399.46 302.523C1399.51 302.607 1399.63 302.569 1399.67 302.493C1399.83 302.514 1399.94 302.303 1399.8 302.174C1399.65 302.035 1399.49 301.899 1399.34 301.762C1397.58 298.455 1395.54 295.272 1393.61 292.062C1392.09 289.525 1390.35 287.41 1387.59 286.198C1381.56 283.544 1374.78 285.695 1369 288.017C1368.22 287.998 1367.44 288.001 1366.66 288.041C1366.22 288.062 1366.22 288.811 1366.67 288.813Z" fill="#DE0351"/>
<path d="M1423.09 402.795C1425.61 407.293 1426.64 412.645 1425.52 417.686C1424.28 413.451 1422.71 409.295 1420.46 405.533C1418.79 402.719 1416.77 400.114 1414.73 397.554C1412.78 395.104 1410.82 392.648 1408.8 390.254C1414.6 392.987 1419.93 397.136 1423.09 402.795ZM1412.34 406.337C1409.96 401.369 1409.18 395.806 1408.5 390.383C1412.28 395.581 1416.52 400.489 1419.71 406.084C1422.11 410.291 1423.54 414.802 1424.84 419.39C1420.15 415.504 1415.04 411.99 1412.34 406.337V406.337ZM1408.21 389.318C1407.99 389.218 1407.77 389.432 1407.8 389.647C1408.48 395.508 1409.22 401.569 1411.89 406.915C1414.72 412.579 1420 416.334 1425.01 419.997C1425.37 421.268 1425.72 422.543 1426.09 423.817C1426.24 424.355 1427.16 424.095 1427.04 423.546C1426.68 422.039 1426.3 420.521 1425.89 419.009C1427.46 413.491 1426.47 407.517 1423.69 402.541C1420.27 396.434 1414.48 392.163 1408.21 389.318" fill="#DE0351"/>
<path d="M1147.11 489.907C1148.71 488.448 1150.41 487.08 1152.18 485.801C1157.64 481.864 1163.62 478.832 1169.39 475.402C1169.45 475.412 1169.51 475.419 1169.58 475.429C1169.62 475.437 1169.66 475.434 1169.7 475.424C1169.77 475.472 1169.84 475.521 1169.91 475.568C1163.95 482.595 1156.58 489.072 1147.11 489.907ZM1145.76 489.72C1147.49 485.389 1150.06 481.578 1153.99 478.886C1158.3 475.941 1163.6 474.702 1168.76 475.321C1160.75 478.971 1152.37 483.538 1145.76 489.72ZM1145.29 488.971C1144.81 483.429 1146.33 478.016 1149.3 473.291C1152.04 468.932 1155.76 465.337 1159.71 462.068C1158.28 464.153 1156.99 466.343 1155.63 468.474C1154.12 470.866 1152.6 473.26 1151.1 475.669C1148.52 479.832 1146.21 484.125 1145.29 488.971V488.971ZM1160.39 461.507C1160 467.086 1158.34 472.342 1155.6 477.232C1155.59 477.245 1155.59 477.258 1155.58 477.272C1154.94 477.621 1154.32 478.004 1153.72 478.423C1150.23 480.852 1147.24 484.486 1145.81 488.569C1146.67 483.781 1149.23 479.45 1151.77 475.367C1154.63 470.775 1157.76 466.272 1160.37 461.529C1160.37 461.522 1160.38 461.514 1160.39 461.507ZM1138.8 484.561C1138.12 477.477 1136.54 470.624 1134.09 463.941C1132.79 460.394 1131.17 456.983 1129.28 453.719C1129.28 453.711 1129.28 453.704 1129.28 453.696C1134.6 456.43 1137.71 461.373 1139.26 467.084C1140.12 470.231 1140.7 473.581 1140.47 476.846C1140.29 479.482 1139.58 482.041 1138.8 484.561V484.561ZM1130.07 470.315C1128.08 465.081 1127.8 459.312 1129.23 453.909C1134.29 463.311 1136.84 473.806 1137.8 484.418C1135.25 479.707 1131.97 475.328 1130.07 470.315V470.315ZM1120.65 476.393C1120.88 476.416 1121.12 476.443 1121.35 476.476C1125.34 479.32 1128.77 482.977 1131.54 487.006C1132.78 488.819 1133.84 490.687 1134.75 492.612C1127.82 489.687 1122.42 483.758 1120.65 476.393ZM1135.05 490.685C1131.87 484.966 1127.15 480.074 1121.71 476.527C1128.85 477.679 1134.32 483.508 1135.05 490.685V490.685ZM1170.31 475.472C1170.32 475.397 1170.3 475.319 1170.22 475.27C1170.12 475.214 1170.03 475.161 1169.94 475.108C1169.94 474.995 1169.88 474.893 1169.73 474.869C1165.25 474.16 1160.59 474.812 1156.53 476.784C1159.32 471.928 1160.86 466.346 1161.11 460.761C1161.13 460.442 1160.75 460.348 1160.54 460.521C1155.94 464.326 1151.5 468.512 1148.44 473.69C1145.55 478.582 1143.85 484.604 1145.21 490.243C1142.95 492.42 1140.91 494.789 1139.17 497.387C1139.25 493.696 1139.22 490.012 1138.95 486.304C1139.99 483.096 1141 479.828 1141.15 476.433C1141.3 473.058 1140.64 469.569 1139.69 466.343C1138.09 460.909 1134.65 455.191 1129.01 453.261L1129.01 453.251C1128.99 453.219 1128.96 453.218 1128.93 453.231C1128.92 453.226 1128.91 453.221 1128.9 453.218C1128.78 453.18 1128.7 453.327 1128.75 453.413C1128.74 453.438 1128.72 453.464 1128.71 453.497C1127.24 458.947 1127.41 464.79 1129.33 470.11C1130.33 472.876 1131.83 475.409 1133.33 477.93C1134.82 480.453 1136.26 483.044 1137.89 485.482C1138.14 488.466 1138.26 491.456 1138.28 494.43C1138.28 495.732 1138.25 497.031 1138.19 498.328C1137.58 496.109 1136.74 493.967 1135.71 491.921C1135.48 483.422 1128.8 476.401 1120.28 475.793C1120.09 475.779 1119.97 475.985 1120.01 476.152C1121.7 483.803 1127.42 490.562 1134.93 492.999C1136.08 495.487 1137 498.075 1137.77 500.785C1137.82 500.963 1137.93 501.064 1138.06 501.109C1137.97 502.897 1137.87 504.685 1137.85 506.477C1137.84 507.119 1138.82 507.116 1138.85 506.477C1138.95 504.049 1139.06 501.632 1139.13 499.218C1139.13 499.216 1139.13 499.216 1139.13 499.215C1141.26 495.932 1143.79 492.996 1146.62 490.357C1156.42 490.253 1164.45 483.161 1170.39 475.971C1170.54 475.794 1170.45 475.574 1170.31 475.472" fill="#DE0351"/>
<path d="M1212.4 475.399C1214.91 479.897 1215.94 485.249 1214.82 490.289C1213.58 486.054 1212.01 481.899 1209.77 478.137C1208.09 475.321 1206.08 472.717 1204.04 470.158C1202.08 467.708 1200.12 465.251 1198.1 462.857C1203.9 465.59 1209.23 469.739 1212.4 475.399ZM1201.64 478.939C1199.27 473.973 1198.48 468.408 1197.81 462.985C1201.58 468.184 1205.83 473.091 1209.02 478.688C1211.42 482.894 1212.84 487.406 1214.14 491.992C1209.45 488.106 1204.35 484.593 1201.64 478.939V478.939ZM1197.51 461.921C1197.3 461.822 1197.08 462.035 1197.1 462.248C1197.78 468.11 1198.52 474.173 1201.19 479.518C1204.03 485.182 1209.31 488.938 1214.32 492.6C1214.67 493.871 1215.02 495.145 1215.39 496.419C1215.54 496.958 1216.47 496.697 1216.34 496.149C1215.98 494.64 1215.61 493.123 1215.19 491.613C1216.76 486.094 1215.77 480.12 1212.99 475.144C1209.58 469.038 1203.78 464.766 1197.51 461.921" fill="#DE0351"/>
<path d="M1290.75 489.907C1292.36 488.448 1294.05 487.08 1295.83 485.801C1301.28 481.864 1307.26 478.832 1313.03 475.402C1313.09 475.412 1313.16 475.419 1313.22 475.429C1313.26 475.437 1313.3 475.434 1313.34 475.424C1313.41 475.472 1313.48 475.521 1313.55 475.568C1307.59 482.595 1300.22 489.072 1290.75 489.907ZM1289.4 489.72C1291.13 485.389 1293.7 481.578 1297.64 478.886C1301.95 475.941 1307.24 474.702 1312.4 475.321C1304.39 478.971 1296.02 483.538 1289.4 489.72ZM1288.93 488.971C1288.45 483.429 1289.98 478.016 1292.95 473.291C1295.69 468.932 1299.41 465.337 1303.35 462.068C1301.92 464.153 1300.63 466.343 1299.28 468.474C1297.76 470.866 1296.24 473.26 1294.74 475.669C1292.16 479.832 1289.85 484.125 1288.93 488.971V488.971ZM1304.03 461.507C1303.64 467.086 1301.98 472.342 1299.24 477.232C1299.23 477.245 1299.23 477.258 1299.22 477.272C1298.59 477.621 1297.96 478.004 1297.36 478.423C1293.88 480.852 1290.88 484.486 1289.45 488.569C1290.32 483.781 1292.87 479.45 1295.41 475.367C1298.27 470.775 1301.4 466.272 1304.01 461.529C1304.02 461.522 1304.02 461.514 1304.03 461.507ZM1282.44 484.561C1281.77 477.477 1280.18 470.624 1277.73 463.941C1276.43 460.394 1274.82 456.983 1272.92 453.719C1272.92 453.711 1272.92 453.704 1272.93 453.696C1278.24 456.43 1281.36 461.373 1282.91 467.084C1283.76 470.231 1284.35 473.581 1284.12 476.846C1283.93 479.482 1283.23 482.041 1282.44 484.561V484.561ZM1273.71 470.315C1271.72 465.081 1271.44 459.312 1272.87 453.909C1277.93 463.311 1280.48 473.806 1281.44 484.418C1278.9 479.707 1275.61 475.328 1273.71 470.315V470.315ZM1264.29 476.393C1264.53 476.416 1264.76 476.443 1265 476.476C1268.99 479.32 1272.41 482.977 1275.18 487.006C1276.43 488.819 1277.48 490.687 1278.39 492.612C1271.47 489.687 1266.06 483.758 1264.29 476.393V476.393ZM1278.69 490.685C1275.52 484.966 1270.8 480.074 1265.35 476.527C1272.49 477.679 1277.97 483.508 1278.69 490.685ZM1313.95 475.472C1313.96 475.397 1313.94 475.319 1313.86 475.27C1313.77 475.214 1313.67 475.161 1313.58 475.108C1313.58 474.995 1313.52 474.893 1313.37 474.869C1308.9 474.16 1304.23 474.812 1300.17 476.784C1302.96 471.928 1304.5 466.346 1304.76 460.761C1304.77 460.442 1304.39 460.348 1304.18 460.521C1299.59 464.326 1295.14 468.512 1292.09 473.69C1289.2 478.582 1287.49 484.604 1288.85 490.243C1286.59 492.42 1284.55 494.789 1282.82 497.387C1282.89 493.696 1282.86 490.012 1282.59 486.304C1283.63 483.096 1284.65 479.828 1284.79 476.433C1284.94 473.058 1284.28 469.569 1283.33 466.343C1281.74 460.909 1278.3 455.191 1272.66 453.261L1272.65 453.251C1272.63 453.219 1272.6 453.218 1272.58 453.231C1272.56 453.226 1272.55 453.221 1272.54 453.218C1272.42 453.18 1272.34 453.327 1272.39 453.413C1272.38 453.438 1272.37 453.464 1272.36 453.497C1270.88 458.947 1271.05 464.79 1272.97 470.11C1273.97 472.876 1275.48 475.409 1276.97 477.93C1278.46 480.453 1279.9 483.044 1281.54 485.482C1281.78 488.466 1281.9 491.456 1281.92 494.43C1281.93 495.732 1281.89 497.031 1281.83 498.328C1281.23 496.109 1280.38 493.967 1279.35 491.921C1279.12 483.422 1272.45 476.401 1263.92 475.793C1263.73 475.779 1263.61 475.985 1263.65 476.152C1265.34 483.803 1271.06 490.562 1278.58 492.999C1279.72 495.487 1280.64 498.075 1281.41 500.785C1281.46 500.963 1281.57 501.064 1281.7 501.109C1281.61 502.897 1281.52 504.685 1281.49 506.477C1281.48 507.119 1282.46 507.116 1282.49 506.477C1282.59 504.049 1282.7 501.632 1282.77 499.218C1282.77 499.216 1282.77 499.216 1282.77 499.215C1284.91 495.932 1287.43 492.996 1290.26 490.357C1300.06 490.253 1308.09 483.161 1314.03 475.971C1314.18 475.794 1314.1 475.574 1313.95 475.472" fill="#DE0351"/>
<path d="M1233.73 435.641C1238.27 442.966 1243.3 450.654 1242.7 459.622C1240.13 456.198 1236.86 453.101 1235.11 449.164C1233.22 444.93 1233.33 440.162 1233.45 435.625C1233.54 435.631 1233.64 435.635 1233.73 435.641ZM1247.8 439.253C1253.27 441.673 1258.02 445.107 1262.88 448.497C1257.45 447.908 1251.54 447.928 1246.56 445.511C1241.8 443.198 1238.41 439.064 1234.44 435.699C1239.05 436.129 1243.52 437.358 1247.8 439.253V439.253ZM1251.78 433.557C1254.79 434.913 1256.42 437.449 1258.08 440.164C1259.6 442.655 1261.06 445.203 1262.66 447.652C1258.27 443.898 1253.21 440.674 1247.97 438.328C1243.84 436.478 1239.37 435.173 1234.84 434.817C1240.31 432.897 1246.18 431.031 1251.78 433.557V433.557ZM1243.36 458.343C1243.39 450.489 1239.37 443.307 1234.98 436.917C1236.44 438.384 1237.98 439.787 1239.51 441.158C1240.63 442.171 1241.79 443.148 1243.02 444.032C1244.62 448.56 1244.85 453.735 1243.36 458.343V458.343ZM1230.94 435.525C1231.54 435.529 1232.15 435.55 1232.75 435.583C1232.62 440.096 1232.54 444.814 1234.32 449.054C1235.2 451.167 1236.56 453.017 1238 454.775C1239.49 456.6 1241.03 458.416 1242.67 460.12C1242.66 460.157 1242.66 460.193 1242.66 460.229C1242.63 460.507 1242.97 460.661 1243.15 460.522C1243.21 460.506 1243.24 460.461 1243.25 460.405C1243.25 460.397 1243.25 460.39 1243.25 460.382C1245.09 455.194 1245.42 449.794 1243.76 444.55C1244.53 445.069 1245.33 445.551 1246.17 445.969C1248.64 447.205 1251.33 447.774 1254.04 448.148C1257.2 448.58 1260.38 448.914 1263.55 449.212C1263.61 449.217 1263.65 449.21 1263.7 449.193C1263.71 449.208 1263.72 449.222 1263.72 449.235C1263.78 449.319 1263.9 449.281 1263.94 449.205C1264.1 449.226 1264.21 449.015 1264.07 448.886C1263.92 448.747 1263.76 448.611 1263.61 448.474C1261.85 445.167 1259.81 441.984 1257.88 438.774C1256.36 436.237 1254.62 434.122 1251.86 432.91C1245.83 430.256 1239.05 432.407 1233.27 434.731C1232.49 434.71 1231.71 434.713 1230.93 434.753C1230.49 434.774 1230.49 435.524 1230.94 435.525Z" fill="#DE0351"/>
<path d="M1356.04 475.399C1358.55 479.897 1359.59 485.249 1358.46 490.289C1357.23 486.054 1355.65 481.899 1353.41 478.137C1351.73 475.321 1349.72 472.717 1347.68 470.158C1345.73 467.708 1343.77 465.251 1341.74 462.857C1347.54 465.59 1352.88 469.739 1356.04 475.399ZM1345.28 478.939C1342.91 473.973 1342.12 468.408 1341.45 462.985C1345.23 468.184 1349.47 473.091 1352.66 478.688C1355.06 482.894 1356.48 487.406 1357.79 491.992C1353.09 488.106 1347.99 484.593 1345.28 478.939V478.939ZM1341.15 461.921C1340.94 461.822 1340.72 462.035 1340.75 462.248C1341.42 468.11 1342.16 474.173 1344.84 479.518C1347.67 485.182 1352.95 488.938 1357.96 492.6C1358.32 493.871 1358.67 495.145 1359.03 496.419C1359.19 496.958 1360.11 496.697 1359.98 496.149C1359.63 494.64 1359.25 493.123 1358.83 491.613C1360.41 486.094 1359.41 480.12 1356.63 475.144C1353.22 469.038 1347.42 464.766 1341.15 461.921" fill="#DE0351"/>
<path d="M1426.48 489.907C1428.09 488.448 1429.78 487.08 1431.56 485.801C1437.01 481.864 1442.99 478.832 1448.76 475.402C1448.82 475.412 1448.89 475.419 1448.95 475.429C1448.99 475.437 1449.03 475.434 1449.07 475.424C1449.14 475.472 1449.21 475.521 1449.28 475.568C1443.32 482.595 1435.95 489.072 1426.48 489.907ZM1425.13 489.72C1426.86 485.389 1429.43 481.578 1433.37 478.886C1437.68 475.941 1442.97 474.702 1448.13 475.321C1440.12 478.971 1431.75 483.538 1425.13 489.72ZM1424.66 488.971C1424.18 483.429 1425.71 478.016 1428.68 473.291C1431.42 468.932 1435.14 465.337 1439.08 462.068C1437.65 464.153 1436.36 466.343 1435.01 468.474C1433.49 470.866 1431.97 473.26 1430.47 475.669C1427.89 479.832 1425.58 484.125 1424.66 488.971V488.971ZM1439.76 461.507C1439.37 467.086 1437.71 472.342 1434.97 477.232C1434.96 477.245 1434.96 477.258 1434.95 477.272C1434.32 477.621 1433.7 478.004 1433.09 478.423C1429.6 480.852 1426.61 484.486 1425.18 488.569C1426.05 483.781 1428.6 479.45 1431.14 475.367C1434 470.775 1437.13 466.272 1439.74 461.529C1439.75 461.522 1439.75 461.514 1439.76 461.507ZM1418.17 484.561C1417.5 477.477 1415.91 470.624 1413.46 463.941C1412.16 460.394 1410.55 456.983 1408.65 453.719C1408.65 453.711 1408.65 453.704 1408.66 453.696C1413.97 456.43 1417.09 461.373 1418.64 467.084C1419.49 470.231 1420.08 473.581 1419.85 476.846C1419.66 479.482 1418.96 482.041 1418.17 484.561V484.561ZM1409.44 470.315C1407.45 465.081 1407.17 459.312 1408.6 453.909C1413.66 463.311 1416.21 473.806 1417.18 484.418C1414.63 479.707 1411.34 475.328 1409.44 470.315V470.315ZM1400.02 476.393C1400.26 476.416 1400.49 476.443 1400.73 476.476C1404.72 479.32 1408.14 482.977 1410.91 487.006C1412.16 488.819 1413.21 490.687 1414.12 492.612C1407.2 489.687 1401.79 483.758 1400.02 476.393V476.393ZM1414.42 490.685C1411.24 484.966 1406.53 480.074 1401.08 476.527C1408.22 477.679 1413.69 483.508 1414.42 490.685ZM1449.68 475.472C1449.69 475.397 1449.67 475.319 1449.59 475.27C1449.5 475.214 1449.4 475.161 1449.31 475.108C1449.31 474.995 1449.25 474.893 1449.1 474.869C1444.63 474.16 1439.97 474.812 1435.9 476.784C1438.69 471.928 1440.23 466.346 1440.49 460.761C1440.5 460.442 1440.12 460.348 1439.91 460.521C1435.32 464.326 1430.87 468.512 1427.82 473.69C1424.93 478.582 1423.22 484.604 1424.58 490.243C1422.32 492.42 1420.28 494.789 1418.55 497.387C1418.62 493.696 1418.59 490.012 1418.32 486.304C1419.36 483.096 1420.38 479.828 1420.52 476.433C1420.67 473.058 1420.01 469.569 1419.06 466.343C1417.47 460.909 1414.03 455.191 1408.39 453.261L1408.38 453.251C1408.36 453.219 1408.33 453.218 1408.31 453.231C1408.29 453.226 1408.28 453.221 1408.27 453.218C1408.15 453.18 1408.07 453.327 1408.12 453.413C1408.11 453.438 1408.1 453.464 1408.09 453.497C1406.61 458.947 1406.78 464.79 1408.71 470.11C1409.7 472.876 1411.21 475.409 1412.7 477.93C1414.19 480.453 1415.63 483.044 1417.27 485.482C1417.51 488.466 1417.63 491.456 1417.65 494.43C1417.66 495.732 1417.62 497.031 1417.56 498.328C1416.96 496.109 1416.11 493.967 1415.08 491.921C1414.85 483.422 1408.18 476.401 1399.65 475.793C1399.46 475.779 1399.34 475.985 1399.38 476.152C1401.07 483.803 1406.79 490.562 1414.31 492.999C1415.45 495.487 1416.37 498.075 1417.14 500.785C1417.19 500.963 1417.3 501.064 1417.43 501.109C1417.34 502.897 1417.25 504.685 1417.22 506.477C1417.21 507.119 1418.19 507.116 1418.22 506.477C1418.32 504.049 1418.43 501.632 1418.5 499.218C1418.5 499.216 1418.5 499.216 1418.51 499.215C1420.63 495.932 1423.16 492.996 1425.99 490.357C1435.79 490.253 1443.82 483.161 1449.76 475.971C1449.91 475.794 1449.83 475.574 1449.68 475.472" fill="#DE0351"/>
<path d="M1369.46 435.641C1374 442.966 1379.03 450.654 1378.43 459.622C1375.85 456.198 1372.59 453.101 1370.84 449.164C1368.95 444.93 1369.06 440.162 1369.18 435.625C1369.28 435.631 1369.37 435.635 1369.46 435.641ZM1383.53 439.253C1389 441.673 1393.75 445.107 1398.61 448.497C1393.18 447.908 1387.27 447.928 1382.29 445.511C1377.53 443.198 1374.13 439.064 1370.17 435.699C1374.78 436.129 1379.25 437.358 1383.53 439.253V439.253ZM1387.51 433.557C1390.52 434.913 1392.15 437.449 1393.81 440.164C1395.33 442.655 1396.79 445.203 1398.39 447.652C1393.99 443.898 1388.94 440.674 1383.7 438.328C1379.57 436.478 1375.1 435.173 1370.57 434.817C1376.04 432.897 1381.91 431.031 1387.51 433.557V433.557ZM1379.09 458.343C1379.12 450.489 1375.1 443.307 1370.71 436.917C1372.17 438.384 1373.71 439.787 1375.24 441.158C1376.36 442.171 1377.52 443.148 1378.75 444.032C1380.35 448.56 1380.59 453.735 1379.09 458.343ZM1366.67 435.525C1367.27 435.529 1367.88 435.55 1368.48 435.583C1368.35 440.096 1368.27 444.814 1370.05 449.054C1370.93 451.167 1372.29 453.017 1373.73 454.775C1375.22 456.6 1376.76 458.416 1378.4 460.12C1378.39 460.157 1378.39 460.193 1378.39 460.229C1378.36 460.507 1378.69 460.661 1378.88 460.522C1378.94 460.506 1378.97 460.461 1378.98 460.405C1378.98 460.397 1378.98 460.39 1378.99 460.382C1380.82 455.194 1381.15 449.794 1379.49 444.55C1380.26 445.069 1381.06 445.551 1381.9 445.969C1384.37 447.205 1387.06 447.774 1389.78 448.148C1392.93 448.58 1396.11 448.914 1399.28 449.212C1399.34 449.217 1399.39 449.21 1399.43 449.193C1399.44 449.208 1399.45 449.222 1399.46 449.235C1399.51 449.319 1399.63 449.281 1399.67 449.205C1399.83 449.226 1399.94 449.015 1399.8 448.886C1399.65 448.747 1399.49 448.611 1399.34 448.474C1397.58 445.167 1395.54 441.984 1393.61 438.774C1392.09 436.237 1390.35 434.122 1387.59 432.91C1381.56 430.256 1374.78 432.407 1369 434.731C1368.22 434.71 1367.44 434.713 1366.66 434.753C1366.22 434.774 1366.22 435.524 1366.67 435.525Z" fill="#DE0351"/>
</g>
</svg>
