<svg width="22" height="14" viewBox="0 0 22 14" fill="none" xmlns="http://www.w3.org/2000/svg">
<path fill-rule="evenodd" clip-rule="evenodd" d="M10.6667 10.855C10.6465 11.8303 9.84313 12.6065 8.86773 12.5932C7.89234 12.5798 7.11051 11.7818 7.11709 10.8064C7.12367 9.8309 7.91619 9.04354 8.89167 9.04333C9.3673 9.04817 9.82153 9.24177 10.1544 9.58153C10.4873 9.92129 10.6716 10.3794 10.6667 10.855V10.855Z" stroke="#0093A2" stroke-width="1.5" stroke-linecap="round" stroke-linejoin="round"/>
<path fill-rule="evenodd" clip-rule="evenodd" d="M19.1209 10.855C19.1007 11.8303 18.2973 12.6065 17.3219 12.5932C16.3465 12.5798 15.5647 11.7818 15.5713 10.8064C15.5778 9.8309 16.3704 9.04354 17.3459 9.04333C17.8215 9.04817 18.2757 9.24177 18.6086 9.58153C18.9415 9.92129 19.1257 10.3794 19.1209 10.855V10.855Z" stroke="#0093A2" stroke-width="1.5" stroke-linecap="round" stroke-linejoin="round"/>
<path d="M15.3617 11.605C15.7759 11.605 16.1117 11.2692 16.1117 10.855C16.1117 10.4408 15.7759 10.105 15.3617 10.105V11.605ZM10.6667 10.105C10.2525 10.105 9.91667 10.4408 9.91667 10.855C9.91667 11.2692 10.2525 11.605 10.6667 11.605V10.105ZM14.615 10.855C14.615 11.2692 14.9508 11.605 15.365 11.605C15.7792 11.605 16.115 11.2692 16.115 10.855H14.615ZM16.115 6.46583C16.115 6.05162 15.7792 5.71583 15.365 5.71583C14.9508 5.71583 14.615 6.05162 14.615 6.46583H16.115ZM15.365 10.105C14.9508 10.105 14.615 10.4408 14.615 10.855C14.615 11.2692 14.9508 11.605 15.365 11.605V10.105ZM15.5742 11.605C15.9884 11.605 16.3242 11.2692 16.3242 10.855C16.3242 10.4408 15.9884 10.105 15.5742 10.105V11.605ZM19.1083 10.1052C18.6942 10.1139 18.3656 10.4567 18.3743 10.8709C18.3831 11.285 18.7259 11.6136 19.14 11.6048L19.1083 10.1052ZM21 8.90417L21.7499 8.89063C21.7492 8.85099 21.7453 8.81147 21.7383 8.77245L21 8.90417ZM21.3033 6.33411C21.2306 5.92634 20.8411 5.65474 20.4333 5.72749C20.0255 5.80024 19.7539 6.18978 19.8267 6.59755L21.3033 6.33411ZM15.3617 1.81417C14.9475 1.81417 14.6117 2.14995 14.6117 2.56417C14.6117 2.97838 14.9475 3.31417 15.3617 3.31417V1.81417ZM18.3375 2.56417L18.3375 3.31418L18.3422 3.31415L18.3375 2.56417ZM19.6955 3.13655L19.1553 3.65687L19.1553 3.65687L19.6955 3.13655ZM20.2167 4.515L19.4674 4.48222C19.465 4.53732 19.4686 4.59253 19.4783 4.64683L20.2167 4.515ZM19.8267 6.59767C19.8995 7.00543 20.2891 7.27696 20.6968 7.20416C21.1046 7.13135 21.3761 6.74177 21.3033 6.334L19.8267 6.59767ZM16.1117 2.56417C16.1117 2.14995 15.7759 1.81417 15.3617 1.81417C14.9475 1.81417 14.6117 2.14995 14.6117 2.56417H16.1117ZM14.6117 6.46583C14.6117 6.88005 14.9475 7.21583 15.3617 7.21583C15.7759 7.21583 16.1117 6.88005 16.1117 6.46583H14.6117ZM14.6117 2.56417C14.6117 2.97838 14.9475 3.31417 15.3617 3.31417C15.7759 3.31417 16.1117 2.97838 16.1117 2.56417H14.6117ZM15.3617 1.8975L14.6117 1.89258V1.8975H15.3617ZM14.475 1L14.4792 0.25H14.475V1ZM6.4875 1L6.4875 0.249992L6.484 0.250008L6.4875 1ZM5.85821 1.26411L5.32541 0.73626L5.32541 0.73626L5.85821 1.26411ZM5.6 1.89583L6.35001 1.89583L6.34999 1.89232L5.6 1.89583ZM5.6 9.95833L6.35 9.96185V9.95833H5.6ZM5.85821 10.5901L5.32541 11.1179L5.32541 11.1179L5.85821 10.5901ZM6.4875 10.8542L6.484 11.6042H6.4875V10.8542ZM7.11333 11.6042C7.52755 11.6042 7.86333 11.2684 7.86333 10.8542C7.86333 10.44 7.52755 10.1042 7.11333 10.1042V11.6042ZM15.3633 5.715C14.9491 5.715 14.6133 6.05079 14.6133 6.465C14.6133 6.87921 14.9491 7.215 15.3633 7.215V5.715ZM20.5667 7.215C20.9809 7.215 21.3167 6.87921 21.3167 6.465C21.3167 6.05079 20.9809 5.715 20.5667 5.715V7.215ZM1 1.91667C0.585786 1.91667 0.25 2.25245 0.25 2.66667C0.25 3.08088 0.585786 3.41667 1 3.41667V1.91667ZM3.60833 3.41667C4.02255 3.41667 4.35833 3.08088 4.35833 2.66667C4.35833 2.25245 4.02255 1.91667 3.60833 1.91667V3.41667ZM1.83333 4.41667C1.41912 4.41667 1.08333 4.75245 1.08333 5.16667C1.08333 5.58088 1.41912 5.91667 1.83333 5.91667V4.41667ZM3.5 5.91667C3.91421 5.91667 4.25 5.58088 4.25 5.16667C4.25 4.75245 3.91421 4.41667 3.5 4.41667V5.91667ZM2.34167 6.91667C1.92745 6.91667 1.59167 7.25245 1.59167 7.66667C1.59167 8.08088 1.92745 8.41667 2.34167 8.41667V6.91667ZM3.5 8.41667C3.91421 8.41667 4.25 8.08088 4.25 7.66667C4.25 7.25245 3.91421 6.91667 3.5 6.91667V8.41667ZM15.3617 10.105H10.6667V11.605H15.3617V10.105ZM16.115 10.855V6.46583H14.615V10.855H16.115ZM15.365 11.605H15.5742V10.105H15.365V11.605ZM19.14 11.6048C20.6092 11.5738 21.7764 10.3599 21.7499 8.89063L20.2501 8.9177C20.2617 9.56052 19.7511 10.0916 19.1083 10.1052L19.14 11.6048ZM21.7383 8.77245L21.3033 6.33411L19.8267 6.59755L20.2617 9.03589L21.7383 8.77245ZM15.3617 3.31417H18.3375V1.81417H15.3617V3.31417ZM18.3422 3.31415C18.6488 3.31222 18.9427 3.4361 19.1553 3.65687L20.2356 2.61624C19.738 2.09957 19.0501 1.80966 18.3328 1.81418L18.3422 3.31415ZM19.1553 3.65687C19.368 3.87764 19.4808 4.17597 19.4674 4.48222L20.9659 4.54778C20.9973 3.83109 20.7333 3.1329 20.2356 2.61624L19.1553 3.65687ZM19.4783 4.64683L19.8267 6.59767L21.3033 6.334L20.955 4.38317L19.4783 4.64683ZM14.6117 2.56417V6.46583H16.1117V2.56417H14.6117ZM16.1117 2.56417V1.8975H14.6117V2.56417H16.1117ZM16.1117 1.90242C16.1145 1.46675 15.9441 1.04782 15.6379 0.737889L14.5708 1.79209C14.5972 1.81884 14.6119 1.85499 14.6117 1.89258L16.1117 1.90242ZM15.6379 0.737889C15.3317 0.427957 14.9149 0.252445 14.4792 0.250012L14.4708 1.74999C14.5084 1.7502 14.5444 1.76534 14.5708 1.79209L15.6379 0.737889ZM14.475 0.25H6.4875V1.75H14.475V0.25ZM6.484 0.250008C6.0486 0.252038 5.63185 0.426948 5.32541 0.73626L6.39102 1.79195C6.41746 1.76526 6.45342 1.75017 6.491 1.74999L6.484 0.250008ZM5.32541 0.73626C5.01898 1.04557 4.84797 1.46395 4.85001 1.89935L6.34999 1.89232C6.34982 1.85475 6.36457 1.81864 6.39102 1.79195L5.32541 0.73626ZM4.85 1.89583V9.95833H6.35V1.89583H4.85ZM4.85001 9.95482C4.84797 10.3902 5.01898 10.8086 5.32541 11.1179L6.39102 10.0622C6.36457 10.0355 6.34982 9.99942 6.34999 9.96185L4.85001 9.95482ZM5.32541 11.1179C5.63185 11.4272 6.0486 11.6021 6.484 11.6042L6.491 10.1042C6.45342 10.104 6.41746 10.0889 6.39102 10.0622L5.32541 11.1179ZM6.4875 11.6042H7.11333V10.1042H6.4875V11.6042ZM15.3633 7.215H20.5667V5.715H15.3633V7.215ZM1 3.41667H3.60833V1.91667H1V3.41667ZM1.83333 5.91667H3.5V4.41667H1.83333V5.91667ZM2.34167 8.41667H3.5V6.91667H2.34167V8.41667Z" fill="#0093A2"/>
</svg>
