<svg width="20" height="20" viewBox="0 0 20 20" fill="none" xmlns="http://www.w3.org/2000/svg">
<path d="M2.14991 17.0586C1.40314 14.183 1.10756 10.6607 1.0256 8.74863C1.00195 8.19685 1.44772 7.75 2 7.75H18C18.5523 7.75 18.998 8.19685 18.9744 8.74863C18.8924 10.6607 18.5969 14.183 17.8501 17.0586C17.6501 17.8287 17.0868 18.4292 16.3043 18.5736C15.133 18.7896 13.1135 19 10 19C6.88651 19 4.86695 18.7896 3.69568 18.5736C2.91323 18.4292 2.3499 17.8287 2.14991 17.0586Z" fill="#F2F3F5"/>
<path d="M1.0256 8.74863L0.276291 8.78074L1.0256 8.74863ZM2.14991 17.0586L2.87583 16.8701L2.87583 16.8701L2.14991 17.0586ZM3.69568 18.5736L3.83173 17.836L3.83173 17.836L3.69568 18.5736ZM18.9744 8.74863L19.7237 8.78074L19.7237 8.78074L18.9744 8.74863ZM17.8501 17.0586L18.576 17.2471L18.576 17.2471L17.8501 17.0586ZM16.3043 18.5736L16.1683 17.836L16.1683 17.836L16.3043 18.5736ZM0.276291 8.78074C0.359088 10.7125 0.657599 14.296 1.42399 17.2471L2.87583 16.8701C2.14868 14.07 1.85603 10.6089 1.77491 8.71651L0.276291 8.78074ZM3.55963 19.3111C4.78925 19.5379 6.85701 19.75 10 19.75V18.25C6.91602 18.25 4.94465 18.0413 3.83173 17.836L3.55963 19.3111ZM18.2251 8.71651C18.144 10.6089 17.8513 14.07 17.1242 16.8701L18.576 17.2471C19.3424 14.296 19.6409 10.7125 19.7237 8.78074L18.2251 8.71651ZM16.1683 17.836C15.0553 18.0413 13.084 18.25 10 18.25V19.75C13.143 19.75 15.2107 19.5379 16.4404 19.3111L16.1683 17.836ZM2 8.5H18V7H2V8.5ZM17.1242 16.8701C16.986 17.4022 16.6218 17.7523 16.1683 17.836L16.4404 19.3111C17.5517 19.1061 18.3142 18.2552 18.576 17.2471L17.1242 16.8701ZM19.7237 8.78074C19.7664 7.78447 18.9608 7 18 7V8.5C18.1438 8.5 18.2297 8.60922 18.2251 8.71651L19.7237 8.78074ZM1.42399 17.2471C1.68577 18.2552 2.44831 19.1061 3.55963 19.3111L3.83173 17.836C3.37815 17.7523 3.01403 17.4022 2.87583 16.8701L1.42399 17.2471ZM1.77491 8.71651C1.77032 8.60922 1.85623 8.5 2 8.5V7C1.0392 7 0.233589 7.78447 0.276291 8.78074L1.77491 8.71651Z" fill="#353949"/>
<path d="M4.00092 7.75C4.00092 8.16421 4.3367 8.5 4.75092 8.5C5.16513 8.5 5.50092 8.16421 5.50092 7.75H4.00092ZM14.5009 7.75C14.5009 8.16421 14.8367 8.5 15.2509 8.5C15.6651 8.5 16.0009 8.16421 16.0009 7.75H14.5009ZM5.50092 7.75V6H4.00092V7.75H5.50092ZM9.75092 1.75H10.2509V0.25H9.75092V1.75ZM14.5009 6V7.75H16.0009V6H14.5009ZM10.2509 1.75C12.5981 1.75 14.5009 3.65279 14.5009 6H16.0009C16.0009 2.82436 13.4266 0.25 10.2509 0.25V1.75ZM5.50092 6C5.50092 3.65279 7.4037 1.75 9.75092 1.75V0.25C6.57528 0.25 4.00092 2.82436 4.00092 6H5.50092Z" fill="#353949"/>
<path d="M7.00031 12.25V14.5M13.0003 12.25V14.5" stroke="#353949" stroke-width="1.5" stroke-linecap="round" stroke-linejoin="round"/>
</svg>
