<svg width="20" height="20" viewBox="0 0 20 20" fill="none" xmlns="http://www.w3.org/2000/svg">
<g clip-path="url(#clip0_10_16811)">
<path d="M2.85788 5.1004C2.85788 4.50604 3.094 3.93602 3.51427 3.51574C3.93455 3.09546 4.50457 2.85935 5.09894 2.85935H6.1176C6.70934 2.85901 7.27693 2.62465 7.69652 2.20741L8.40959 1.49434C8.61785 1.28491 8.86546 1.11871 9.13817 1.00529C9.41089 0.891881 9.70334 0.833496 9.9987 0.833496C10.2941 0.833496 10.5865 0.891881 10.8592 1.00529C11.1319 1.11871 11.3795 1.28491 11.5878 1.49434L12.3009 2.20741C12.7205 2.62465 13.2881 2.85901 13.8798 2.85935H14.8985C15.4928 2.85935 16.0628 3.09546 16.4831 3.51574C16.9034 3.93602 17.1395 4.50604 17.1395 5.1004V6.11906C17.1398 6.7108 17.3742 7.27839 17.7915 7.69799L18.5045 8.41105C18.714 8.61931 18.8802 8.86692 18.9936 9.13964C19.107 9.41236 19.1654 9.7048 19.1654 10.0002C19.1654 10.2955 19.107 10.588 18.9936 10.8607C18.8802 11.1334 18.714 11.381 18.5045 11.5893L17.7915 12.3023C17.3742 12.7219 17.1398 13.2895 17.1395 13.8813V14.8999C17.1395 15.4943 16.9034 16.0643 16.4831 16.4846C16.0628 16.9049 15.4928 17.141 14.8985 17.141H13.8798C13.2881 17.1413 12.7205 17.3757 12.3009 17.7929L11.5878 18.506C11.3795 18.7154 11.1319 18.8816 10.8592 18.995C10.5865 19.1084 10.2941 19.1668 9.9987 19.1668C9.70334 19.1668 9.41089 19.1084 9.13817 18.995C8.86546 18.8816 8.61785 18.7154 8.40959 18.506L7.69652 17.7929C7.27693 17.3757 6.70934 17.1413 6.1176 17.141H5.09894C4.50457 17.141 3.93455 16.9049 3.51427 16.4846C3.094 16.0643 2.85788 15.4943 2.85788 14.8999V13.8813C2.85755 13.2895 2.62319 12.7219 2.20594 12.3023L1.49288 11.5893C1.28344 11.381 1.11724 11.1334 1.00383 10.8607C0.890416 10.588 0.832031 10.2955 0.832031 10.0002C0.832031 9.7048 0.890416 9.41236 1.00383 9.13964C1.11724 8.86692 1.28344 8.61931 1.49288 8.41105L2.20594 7.69799C2.62319 7.27839 2.85755 6.7108 2.85788 6.11906V5.1004" fill="#E2195B"/>
<path d="M2.85788 5.1004C2.85788 4.50604 3.094 3.93602 3.51427 3.51574C3.93455 3.09546 4.50457 2.85935 5.09894 2.85935H6.1176C6.70934 2.85901 7.27693 2.62465 7.69652 2.20741L8.40959 1.49434C8.61785 1.28491 8.86546 1.11871 9.13817 1.00529C9.41089 0.891881 9.70334 0.833496 9.9987 0.833496C10.2941 0.833496 10.5865 0.891881 10.8592 1.00529C11.1319 1.11871 11.3795 1.28491 11.5878 1.49434L12.3009 2.20741C12.7205 2.62465 13.2881 2.85901 13.8798 2.85935H14.8985C15.4928 2.85935 16.0628 3.09546 16.4831 3.51574C16.9034 3.93602 17.1395 4.50604 17.1395 5.1004V6.11906C17.1398 6.7108 17.3742 7.27839 17.7915 7.69799L18.5045 8.41105C18.714 8.61931 18.8802 8.86692 18.9936 9.13964C19.107 9.41236 19.1654 9.7048 19.1654 10.0002C19.1654 10.2955 19.107 10.588 18.9936 10.8607C18.8802 11.1334 18.714 11.381 18.5045 11.5893L17.7915 12.3023C17.3742 12.7219 17.1398 13.2895 17.1395 13.8813V14.8999C17.1395 15.4943 16.9034 16.0643 16.4831 16.4846C16.0628 16.9049 15.4928 17.141 14.8985 17.141H13.8798C13.2881 17.1413 12.7205 17.3757 12.3009 17.7929L11.5878 18.506C11.3795 18.7154 11.1319 18.8816 10.8592 18.995C10.5865 19.1084 10.2941 19.1668 9.9987 19.1668C9.70334 19.1668 9.41089 19.1084 9.13817 18.995C8.86546 18.8816 8.61785 18.7154 8.40959 18.506L7.69652 17.7929C7.27693 17.3757 6.70934 17.1413 6.1176 17.141H5.09894C4.50457 17.141 3.93455 16.9049 3.51427 16.4846C3.094 16.0643 2.85788 15.4943 2.85788 14.8999V13.8813C2.85755 13.2895 2.62319 12.7219 2.20594 12.3023L1.49288 11.5893C1.28344 11.381 1.11724 11.1334 1.00383 10.8607C0.890416 10.588 0.832031 10.2955 0.832031 10.0002C0.832031 9.7048 0.890416 9.41236 1.00383 9.13964C1.11724 8.86692 1.28344 8.61931 1.49288 8.41105L2.20594 7.69799C2.62319 7.27839 2.85755 6.7108 2.85788 6.11906V5.1004" stroke="#E2195B" stroke-width="2"/>
<path d="M6.66797 13.3332L13.3346 6.6665" stroke="white" stroke-width="2" stroke-linecap="round" stroke-linejoin="round"/>
<path d="M7.22352 7.77761C7.53035 7.77761 7.77908 7.52888 7.77908 7.22206C7.77908 6.91523 7.53035 6.6665 7.22352 6.6665C6.9167 6.6665 6.66797 6.91523 6.66797 7.22206C6.66797 7.52888 6.9167 7.77761 7.22352 7.77761Z" fill="white" stroke="white" stroke-width="2" stroke-linecap="round" stroke-linejoin="round"/>
<path d="M12.7782 13.3333C13.085 13.3333 13.3338 13.0845 13.3338 12.7777C13.3338 12.4709 13.085 12.2222 12.7782 12.2222C12.4714 12.2222 12.2227 12.4709 12.2227 12.7777C12.2227 13.0845 12.4714 13.3333 12.7782 13.3333Z" fill="white" stroke="white" stroke-width="2" stroke-linecap="round" stroke-linejoin="round"/>
</g>
<defs>
<clipPath id="clip0_10_16811">
<rect width="20" height="20" fill="white"/>
</clipPath>
</defs>
</svg>
