<svg width="160" height="49" viewBox="0 0 160 49" fill="none" xmlns="http://www.w3.org/2000/svg">
<path d="M39.5633 30.8464C39.561 30.8243 39.2945 28.5984 38.8294 26.7162L38.8086 26.6281C38.7093 26.2286 38.6083 25.813 38.5077 25.3848C40.4585 25.2145 42.4027 25.3939 44.2941 25.929C43.6556 30.6362 41.4481 35.0116 38.0391 38.3508C39.1204 36.1028 39.659 33.4768 39.5633 30.8464" fill="#3094A4"/>
<path d="M6.47658 25.2978C6.91221 25.2978 7.35948 25.3192 7.84045 25.3614C7.73262 25.8216 7.62232 26.272 7.51204 26.7162C7.04884 28.5984 6.78171 30.8243 6.77741 30.8586C6.67754 33.671 7.33008 36.547 8.58611 38.8943C4.88539 35.5188 2.4885 30.9817 1.79492 26.0091C3.33831 25.5379 4.91174 25.2978 6.47658 25.2978Z" fill="#3094A4"/>
<path d="M9.03233 27.09C9.14997 26.6085 9.27374 26.1042 9.39505 25.5822C16.9791 26.9865 22.4664 33.5692 22.4664 41.2893C22.4664 42.0711 22.3923 42.8903 22.233 43.8633C21.529 43.9895 20.8667 44.0508 20.2123 44.0508C19.0666 44.0508 17.9227 43.8915 16.8149 43.5814C16.2941 43.424 15.7825 43.2298 15.3064 43.0441C13.9015 42.4332 12.665 41.5798 11.6314 40.5051C9.35708 38.1394 8.22971 34.9534 8.37124 31.2999C8.37368 31.2748 8.61326 28.7909 9.03233 27.09" fill="#3094A4"/>
<path d="M9.72656 24.0522C10.1726 21.7876 10.3148 19.8876 10.1671 18.134C13.3599 21.9151 17.9877 23.872 22.0867 25.6054C27.8307 28.0353 32.3683 29.9549 31.4603 35.7383L31.4585 35.7976C30.2613 39.4279 27.4447 42.2708 23.8848 43.4534C23.9841 42.6685 24.0326 41.9584 24.0326 41.2893C24.0326 32.837 18.0262 25.6134 9.72656 24.0522Z" fill="#E31059"/>
<path d="M31.9339 29.9612C31.9431 30.0126 31.9505 30.0647 31.9584 30.1191C30.143 27.3118 26.5189 25.78 22.698 24.1638C17.6954 22.0487 12.0346 19.6549 9.35156 13.9819C17.5611 14.6197 30.1638 20.5948 31.9339 29.9612" fill="#E31059"/>
<path d="M33.1437 11.304C32.9139 11.834 32.7197 12.4118 32.5389 13.0981C30.2928 13.6287 28.03 14.4288 25.8109 15.4766C25.2828 14.9434 24.6872 14.5024 24.0352 14.1629C26.5129 12.4253 28.3922 11.3531 33.1437 11.304Z" fill="#E31059"/>
<path d="M22.0337 13.4792C21.584 13.397 21.1607 13.3565 20.7433 13.3565C19.616 13.3565 18.477 13.6397 17.4446 14.1758C17.0826 14.0483 16.7204 13.9245 16.3656 13.8125C15.3614 13.4179 14.7383 12.8982 14.7383 12.459C14.7383 11.6992 17.5053 10.2195 22.576 10.2195C24.1291 10.2195 25.678 10.3801 26.999 10.6711C25.1843 11.3598 23.6659 12.3543 22.0337 13.4792" fill="#E31059"/>
<path d="M24.3105 16.217C23.9424 16.4155 23.5784 16.6311 23.2261 16.8377L23.1906 16.8584C22.0644 16.1955 20.8617 15.5865 19.6094 15.0394C21.2911 14.684 23.0171 15.1374 24.3105 16.217" fill="#E31059"/>
<path d="M33.6457 31.9565C33.6457 31.1288 33.5898 30.3893 33.4728 29.6809C32.4147 24.0583 28.1858 20.1547 24.7363 17.8338C28.6766 15.6612 33.2957 14.2243 37.1987 13.9603C35.1982 18.5158 36.4157 23.4608 37.3089 27.0899C37.7287 28.7908 37.9671 31.2747 37.9683 31.2905C38.1117 34.9533 36.9842 38.1393 34.7093 40.505C34.0378 41.2028 33.251 41.8143 32.3044 42.3762C30.2715 43.3547 28.1308 44.0004 25.9275 44.3C30.5828 42.0612 33.6457 37.2252 33.6457 31.9565" fill="#E31059"/>
<path d="M26.6997 45.7755C25.6041 46.3576 24.3898 46.6627 23.143 46.6627C21.9225 46.6627 20.7295 46.3698 19.6494 45.8104C20.8117 45.9869 21.9267 46.0727 23.0388 46.0727C24.2525 46.0727 25.4804 45.9734 26.6997 45.7755V45.7755ZM33.6459 31.9566C33.6459 31.1289 33.5901 30.3893 33.4731 29.681C32.4149 24.0583 28.1861 20.1548 24.7366 17.8338C28.6769 15.6613 33.296 14.2244 37.1989 13.9604C35.1984 18.5158 36.4159 23.4609 37.3092 27.09C37.7289 28.7909 37.9673 31.2748 37.9686 31.2906C38.112 34.9534 36.9845 38.1394 34.7095 40.505C34.038 41.2029 33.2513 41.8144 32.3047 42.3762C30.2717 43.3547 28.131 44.0005 25.9277 44.3001C30.5831 42.0613 33.6459 37.2252 33.6459 31.9566V31.9566ZM9.03306 27.09C9.15069 26.6084 9.27447 26.1042 9.39577 25.5821C16.9798 26.9864 22.4671 33.5692 22.4671 41.2893C22.4671 42.0711 22.3931 42.8903 22.2337 43.8633C21.5298 43.9895 20.8674 44.0508 20.213 44.0508C19.0673 44.0508 17.9234 43.8915 16.8156 43.5814C16.2948 43.424 15.7832 43.2297 15.3071 43.0441C13.9022 42.4332 12.6658 41.5797 11.6322 40.505C9.3578 38.1394 8.23043 34.9534 8.37196 31.2999C8.3744 31.2748 8.61398 28.7909 9.03306 27.09V27.09ZM39.1749 13.5284L39.8618 12.3501H38.4984C37.2272 12.3501 35.8051 12.4868 34.2653 12.7589C34.4902 12.0953 34.7738 11.466 35.1133 10.8852L35.8014 9.70876H34.4449C32.6932 9.61873 31.1675 9.69229 29.7761 9.9282C28.0281 9.11759 25.4081 8.65503 22.5744 8.65503C17.9013 8.65503 13.17 9.96129 13.17 12.4587C13.17 12.6259 13.1945 12.7962 13.2423 12.9702C11.3374 12.5591 9.52138 12.3501 7.84442 12.3501H6.48055L7.168 13.5284C9.1703 16.9595 8.77205 20.8121 8.17467 23.8163C7.59567 23.7611 7.02586 23.7348 6.47565 23.7348C4.85873 23.7348 3.23078 23.9664 1.63223 24.4258C1.59854 23.9713 1.56545 23.5032 1.56545 23.0357C1.56545 11.1965 11.1983 1.56424 23.0388 1.56424C34.878 1.56424 44.5098 11.1965 44.5098 23.0357C44.5098 23.464 44.479 23.8929 44.4503 24.3088L44.4472 24.3512C42.383 23.8035 40.2742 23.6319 38.1731 23.8439C37.5727 20.8269 37.1708 16.9625 39.1749 13.5284ZM24.3107 16.217C23.9426 16.4154 23.5786 16.6311 23.2263 16.8377L23.1908 16.8584C22.0646 16.1955 20.8619 15.5865 19.6096 15.0394C21.2913 14.6839 23.0173 15.1374 24.3107 16.217V16.217ZM22.0321 13.4788C21.5825 13.3967 21.1591 13.3562 20.7417 13.3562C19.6144 13.3562 18.4754 13.6393 17.443 14.1754C17.081 14.0479 16.7188 13.9241 16.364 13.8122C15.3598 13.4175 14.7367 12.8979 14.7367 12.4587C14.7367 11.6989 17.5037 10.2192 22.5744 10.2192C24.1275 10.2192 25.6764 10.3798 26.9974 10.6707C25.1827 11.3595 23.6643 12.3539 22.0321 13.4788V13.4788ZM33.1441 11.3043C32.9144 11.8343 32.7202 12.4121 32.5393 13.0983C30.2932 13.629 28.0305 14.4291 25.8113 15.4768C25.2832 14.9437 24.6876 14.5026 24.0356 14.1632C26.5134 12.4256 28.3926 11.3534 33.1441 11.3043ZM31.9322 29.9611C31.9414 30.0126 31.9488 30.0647 31.9566 30.1191C30.1412 27.3118 26.5172 25.7799 22.6963 24.1637C17.6936 22.0486 12.0328 19.6549 9.34983 13.9819C17.5594 14.6196 30.1621 20.5947 31.9322 29.9611V29.9611ZM9.72664 24.0522C10.1727 21.7876 10.3148 19.8876 10.1672 18.134C13.36 21.9151 17.9877 23.872 22.0867 25.6054C27.8308 28.0353 32.3684 29.9549 31.4603 35.7383L31.4586 35.7976C30.2614 39.4279 27.4448 42.2708 23.8849 43.4534C23.9842 42.6685 24.0326 41.9584 24.0326 41.2893C24.0326 32.837 18.0263 25.6134 9.72664 24.0522ZM6.47565 25.2978C6.91128 25.2978 7.35855 25.3193 7.83952 25.3615C7.73169 25.8217 7.62139 26.272 7.51111 26.7162C7.04791 28.5984 6.78078 30.8243 6.77648 30.8586C6.67661 33.671 7.32914 36.547 8.58518 38.8943C4.88445 35.5189 2.48757 30.9818 1.79399 26.0091C3.33738 25.5379 4.91081 25.2978 6.47565 25.2978ZM39.5639 30.8464C39.5616 30.8243 39.2951 28.5984 38.83 26.7162L38.8092 26.628C38.7099 26.2285 38.6089 25.813 38.5083 25.3848C40.4591 25.2145 42.4033 25.3939 44.2947 25.9289C43.6562 30.6362 41.4487 35.0116 38.0396 38.3508C39.121 36.1028 39.6596 33.4768 39.5639 30.8464V30.8464ZM23.0388 -4.4693e-05C10.3357 -4.4693e-05 0 10.3332 0 23.0357C0 32.5821 5.76797 41.0013 14.6895 44.4845C15.2073 44.7082 15.6968 44.8889 16.1863 45.036C17.9399 47.0646 20.4729 48.2263 23.143 48.2263C25.8714 48.2263 28.4403 47.0224 30.1964 44.9232C39.6976 41.8083 46.0764 33.0185 46.0764 23.0357C46.0764 10.3332 35.7413 -4.4693e-05 23.0388 -4.4693e-05" fill="#1B1C40"/>
<path d="M70.7106 15.6676H60.1666C60.1145 15.6676 60.0618 15.6889 60.0251 15.7258C59.9889 15.7643 59.9676 15.8145 59.9687 15.8666L59.9847 17.0896L59.9767 18.2898C59.9767 21.1451 59.9153 23.499 59.7935 25.2826C59.6735 27.0271 59.3664 28.5183 58.8854 29.7149C58.4425 30.8044 57.8305 31.3146 56.9591 31.3146C56.7207 31.3146 56.4757 31.2718 56.2282 31.1927C55.9812 31.1118 55.7067 30.9783 55.3858 30.7852L55.1676 30.6524C55.1191 30.6229 55.0653 30.6132 55.0089 30.6303C54.9555 30.6463 54.9127 30.6824 54.8876 30.7332L54.5267 31.4771C54.4814 31.5672 54.5126 31.6738 54.5954 31.7282L54.7639 31.8398C55.1351 32.0898 55.5102 32.273 55.877 32.3851C56.2496 32.5009 56.6075 32.5591 56.9402 32.5591C58.331 32.5591 59.3573 31.8092 59.9908 30.3288C60.5661 28.9785 60.9239 27.3132 61.055 25.3806C61.1832 23.4838 61.2443 20.9019 61.2401 17.7066L61.2352 16.9102H68.1053L68.1158 32.0972C68.1158 32.2068 68.2023 32.2945 68.3125 32.2945H70.7332C70.7853 32.2945 70.8361 32.2749 70.873 32.2361C70.9109 32.1988 70.9299 32.1492 70.9299 32.0972L70.9073 15.8647C70.9073 15.7551 70.8203 15.6676 70.7106 15.6676" fill="#1B1C40"/>
<path d="M80.7986 29.1298L80.7912 29.5176C80.4678 29.8209 80.1822 30.0703 79.9427 30.2615C79.7319 30.4294 79.4831 30.5721 79.1964 30.6867C78.6965 30.8858 77.887 30.9416 77.3112 30.656C77.0519 30.5304 76.8565 30.3602 76.7082 30.1334C76.5636 29.919 76.4913 29.6801 76.4877 29.3976C76.4705 28.805 76.6267 28.3235 76.9655 27.9252C77.3245 27.5042 77.8577 27.1618 78.5531 26.9105C79.1504 26.6949 79.9016 26.5245 80.7949 26.4027L80.7986 29.1298ZM82.9952 22.2277C82.6514 21.5647 82.1257 21.0587 81.4285 20.7223C80.7594 20.3995 79.9121 20.2376 78.9133 20.2376C78.0434 20.2376 77.2395 20.3687 76.5269 20.6297C75.8148 20.8865 75.1336 21.2767 74.4982 21.7871L74.3377 21.9164C74.2604 21.9802 74.2402 22.0905 74.2935 22.1757L74.7489 22.9176C74.7794 22.9673 74.8303 23.0004 74.8903 23.0078C74.9344 23.0194 75.0055 22.9985 75.0502 22.9599L75.2555 22.7719C75.5588 22.5041 75.8884 22.2706 76.2407 22.0806C76.5942 21.8913 76.9809 21.7424 77.392 21.6383C77.7921 21.5335 78.2234 21.4802 78.6712 21.4802C79.4034 21.4802 79.9193 21.7057 80.2442 22.1677C80.5994 22.6738 80.7832 23.4273 80.7912 24.4034V25.1913C79.3092 25.3616 78.0758 25.6129 77.1219 25.9352C76.0183 26.3082 75.1893 26.8028 74.6599 27.4038C74.1061 28.0336 73.839 28.8179 73.8695 29.7412C73.9001 30.3018 74.084 30.8061 74.4166 31.2393C74.7354 31.6584 75.1549 31.9869 75.6647 32.219C76.1673 32.4451 76.718 32.5591 77.3019 32.5591C77.9042 32.5591 78.4606 32.4758 78.9556 32.3097C79.4359 32.1492 79.8765 31.9194 80.2655 31.6279C80.6135 31.3625 81.0105 31.0034 81.4482 30.5573L82.3366 32.1914C82.3708 32.2557 82.4369 32.2945 82.5105 32.2945H83.3125C83.3646 32.2945 83.4149 32.2749 83.4516 32.2361C83.4902 32.1988 83.5092 32.1492 83.5092 32.0972L83.5012 24.5847C83.494 23.6571 83.3236 22.8655 82.9952 22.2277" fill="#1B1C40"/>
<path d="M88.8597 26.8049H90.4417C91.0525 26.8049 91.566 26.895 91.9697 27.0726C92.3581 27.2491 92.6382 27.4807 92.8299 27.7847C93.0192 28.0837 93.1155 28.453 93.1143 28.8856C93.1155 29.6001 92.9108 30.1276 92.4875 30.4989C92.0585 30.8794 91.3619 31.0729 90.4183 31.0729H88.8597V26.8049ZM92.428 24.712C92.2693 24.9901 92.0359 25.2009 91.7056 25.3559C91.3655 25.5195 90.9268 25.6046 90.4012 25.6046H88.8536L88.8474 21.7207H90.2756C91.1353 21.7207 91.7595 21.8948 92.1321 22.2372C92.5014 22.5772 92.6829 23.0442 92.689 23.6587C92.6817 24.0643 92.594 24.4185 92.428 24.712V24.712ZM93.8832 26.1726C93.8832 26.1707 93.8806 26.1707 93.8806 26.1707C93.8403 26.153 93.7992 26.1365 93.7588 26.1205C94.0027 25.987 94.219 25.8344 94.407 25.6666C95.0406 25.0881 95.3574 24.3842 95.3475 23.5761C95.3574 22.9424 95.1679 22.3794 94.7851 21.9089C94.418 21.4523 93.8844 21.097 93.2007 20.8519C92.548 20.6178 91.7435 20.5002 90.8123 20.5002H86.3334C86.2813 20.5002 86.2318 20.5192 86.1949 20.5578C86.1557 20.5946 86.1367 20.6448 86.1367 20.6969L86.1485 32.0969C86.1485 32.2065 86.2354 32.2942 86.345 32.2942H90.4048C91.5445 32.2942 92.5113 32.1856 93.2741 31.9731C94.086 31.7446 94.7195 31.3818 95.1595 30.8893C95.6201 30.3795 95.8499 29.7257 95.848 28.9493C95.848 28.3331 95.6722 27.7767 95.3205 27.2908C94.9769 26.824 94.4922 26.4471 93.8832 26.1726" fill="#1B1C40"/>
<path d="M103.432 25.5618L107.757 20.8305C107.809 20.7723 107.822 20.6895 107.792 20.6178C107.759 20.5462 107.689 20.5002 107.61 20.5002H106.444C106.391 20.5002 106.336 20.5204 106.3 20.5615L101.472 25.748H100.484V20.6969C100.484 20.5866 100.397 20.5002 100.287 20.5002H97.9584C97.9063 20.5002 97.8561 20.5192 97.8194 20.5578C97.7809 20.5946 97.7617 20.6448 97.7617 20.6969L97.7735 32.0969C97.7735 32.2065 97.8597 32.2942 97.9702 32.2942H100.287C100.397 32.2942 100.484 32.2065 100.484 32.0969V26.979L101.318 26.9881L105.775 32.2242C105.812 32.2683 105.867 32.2942 105.925 32.2942H108.773C108.851 32.2942 108.92 32.2493 108.953 32.1795C108.986 32.1085 108.974 32.0275 108.924 31.9676L103.432 25.5618" fill="#1B1C40"/>
<path d="M116.563 29.1311L116.558 29.5158C116.244 29.8135 115.949 30.0703 115.71 30.2615C115.499 30.4319 115.248 30.5721 114.962 30.6867C114.461 30.8858 113.656 30.9416 113.076 30.656C112.819 30.5304 112.622 30.3602 112.473 30.1334C112.328 29.919 112.257 29.6801 112.253 29.3976C112.236 28.8062 112.393 28.3253 112.733 27.9252C113.092 27.5042 113.625 27.1618 114.32 26.9105C114.918 26.6949 115.669 26.5228 116.56 26.4027L116.563 29.1311ZM118.761 22.2277C118.417 21.563 117.889 21.0562 117.194 20.7223C116.527 20.3995 115.68 20.2376 114.681 20.2376C113.809 20.2376 113.005 20.3687 112.294 20.6297C111.582 20.8865 110.898 21.2767 110.261 21.7884L110.102 21.9183C110.028 21.9802 110.007 22.0905 110.06 22.1732L110.514 22.9152C110.545 22.966 110.595 23.0004 110.653 23.0078C110.711 23.0194 110.771 22.9985 110.813 22.9599L111.023 22.7719C111.327 22.4997 111.66 22.2682 112.007 22.0806C112.361 21.8913 112.748 21.7424 113.159 21.6383C113.557 21.5335 113.988 21.4802 114.439 21.4802C115.171 21.4802 115.687 21.7057 116.011 22.1677C116.367 22.6738 116.551 23.4273 116.558 24.4034V25.1913C115.076 25.3616 113.842 25.6129 112.886 25.9352C111.786 26.3082 110.957 26.8028 110.425 27.4038C109.873 28.0336 109.606 28.8179 109.635 29.7412C109.667 30.3018 109.851 30.8061 110.181 31.2393C110.501 31.6584 110.922 31.9869 111.432 32.219C111.932 32.4451 112.483 32.5591 113.069 32.5591C113.671 32.5591 114.228 32.4758 114.722 32.3097C115.199 32.1492 115.64 31.9213 116.033 31.6279C116.382 31.3606 116.78 31.0015 117.215 30.5573L118.104 32.1914C118.138 32.2557 118.204 32.2945 118.278 32.2945H119.08C119.132 32.2945 119.182 32.2749 119.219 32.2361C119.257 32.1988 119.276 32.1492 119.276 32.0972L119.268 24.5847C119.261 23.659 119.091 22.8667 118.761 22.2277" fill="#1B1C40"/>
<path d="M137.317 17.563V17.5605C136.753 16.9527 136.001 16.479 135.087 16.1543C134.188 15.8296 133.135 15.6673 131.957 15.6673H127.084C127.032 15.6673 126.982 15.6869 126.945 15.7255C126.906 15.7622 126.887 15.8124 126.887 15.8644L126.91 32.0969C126.91 32.2065 126.999 32.2942 127.107 32.2942H129.528C129.58 32.2942 129.63 32.2746 129.667 32.2358C129.706 32.1985 129.725 32.1489 129.725 32.0969L129.716 16.9099H131.509C132.23 16.9099 132.883 17.0317 133.449 17.2713C134.007 17.5072 134.466 17.8436 134.815 18.2718C135.164 18.697 135.396 19.2087 135.506 19.7925C135.634 20.4574 135.604 21.1742 135.425 21.9199C135.251 22.6293 134.852 23.2512 134.235 23.7726C133.626 24.283 132.742 24.5416 131.605 24.5416H130.233C130.16 24.5416 130.095 24.5809 130.059 24.6427C130.024 24.7065 130.026 24.7837 130.064 24.8437L130.588 25.6837C130.625 25.7419 130.689 25.7762 130.756 25.7762H131.837C133.559 25.7762 134.957 25.4655 135.995 24.8499C137.051 24.2267 137.769 23.4388 138.13 22.5049C138.49 21.5914 138.582 20.6589 138.411 19.7313C138.254 18.9114 137.887 18.1811 137.317 17.563" fill="#1B1C40"/>
<path d="M144.601 31.3361C144.139 31.3361 143.747 31.2007 143.401 30.9201C143.026 30.6155 142.729 30.2284 142.497 29.7339C142.251 29.2199 142.068 28.6403 141.95 28.0146C141.766 27.0404 141.743 26.016 141.884 24.9695C142.017 23.947 142.323 23.0812 142.786 22.4C143.211 21.781 143.745 21.4802 144.421 21.4802C144.875 21.4802 145.279 21.6187 145.617 21.8913C145.99 22.1946 146.297 22.5941 146.533 23.0856C146.784 23.6014 146.968 24.1749 147.081 24.7894C147.265 25.752 147.286 26.7739 147.147 27.8309C147.014 28.8608 146.709 29.7303 146.245 30.4123C145.824 31.0329 145.285 31.3361 144.601 31.3361V31.3361ZM148.906 22.5929C148.408 21.8662 147.769 21.2885 147.011 20.8749C146.25 20.46 145.393 20.2494 144.468 20.2494C143.336 20.2494 142.3 20.6046 141.388 21.3062C140.485 21.9973 139.814 22.9378 139.396 24.1013C138.978 25.2612 138.891 26.5093 139.134 27.8137C139.303 28.6947 139.632 29.5017 140.113 30.2112C140.604 30.9317 141.235 31.5077 141.988 31.9237C142.754 32.3447 143.621 32.5591 144.565 32.5591C145.69 32.5591 146.723 32.2032 147.633 31.4984C148.535 30.8061 149.209 29.8694 149.632 28.7137C150.053 27.5662 150.142 26.3145 149.896 24.9904C149.728 24.1129 149.396 23.3073 148.906 22.5929Z" fill="#1B1C40"/>
<path d="M159.426 27.093C159.052 26.606 158.514 26.2249 157.835 25.9639C157.794 25.9486 157.754 25.9333 157.716 25.9179C158.285 25.6282 158.726 25.2624 159.029 24.8322C159.363 24.3549 159.532 23.8347 159.529 23.2864C159.529 22.6828 159.344 22.145 158.979 21.6842C158.626 21.2338 158.116 20.8845 157.47 20.645C156.287 20.2044 154.839 20.1793 153.391 20.5617C152.733 20.7376 152.102 20.9752 151.515 21.2705L151.304 21.3772C151.256 21.4004 151.22 21.4409 151.206 21.4912C151.189 21.5433 151.192 21.5977 151.217 21.6437L151.576 22.3373C151.625 22.4341 151.742 22.4745 151.84 22.4243L152.04 22.3263C152.616 22.0512 153.163 21.8404 153.665 21.7019C154.715 21.4115 155.568 21.4177 156.073 21.7056C156.318 21.8452 156.495 22.0322 156.624 22.3012C156.764 22.5751 156.83 22.9187 156.827 23.325C156.832 23.7673 156.729 24.1497 156.519 24.4647C156.305 24.7893 155.993 25.0387 155.566 25.2304C155.114 25.4326 154.571 25.5502 153.961 25.5822H153.737C153.63 25.5822 153.543 25.6643 153.54 25.7709L153.52 26.3486L153.567 26.5883C153.585 26.6807 153.665 26.7481 153.761 26.7481L154.001 26.7506C154.741 26.7567 155.375 26.8725 155.885 27.0968C156.37 27.3051 156.735 27.587 156.973 27.9331C157.205 28.2732 157.325 28.675 157.325 29.1254C157.325 29.5543 157.234 29.9231 157.051 30.2515C156.869 30.5745 156.612 30.8239 156.26 31.0126C155.58 31.3704 154.493 31.3973 153.273 31.0921C152.718 30.9531 152.15 30.7387 151.581 30.4581L151.377 30.3582C151.287 30.3135 151.166 30.3502 151.115 30.4451L150.747 31.1498C150.697 31.2472 150.733 31.3666 150.833 31.417L151.04 31.5253C151.567 31.7937 152.178 32.0235 152.859 32.2048C153.541 32.3807 154.235 32.4702 154.92 32.4702C155.87 32.4702 156.725 32.3359 157.465 32.0737C158.241 31.7979 158.859 31.3919 159.3 30.8661C159.769 30.3171 160.006 29.6665 160 28.9318C160.008 28.2131 159.815 27.5931 159.426 27.093" fill="#1B1C40"/>
</svg>
