<svg width="20" height="18" viewBox="0 0 20 18" fill="none" xmlns="http://www.w3.org/2000/svg">
<path d="M0.442405 10.5269C0.165387 10.8348 0.190464 11.309 0.498415 11.586C0.806366 11.8631 1.28058 11.838 1.5576 11.53L0.442405 10.5269ZM18.4424 11.53C18.7194 11.838 19.1936 11.8631 19.5016 11.586C19.8095 11.309 19.8346 10.8348 19.5576 10.5269L18.4424 11.53ZM9.25654 1.84992L9.81414 2.3515L9.25654 1.84992ZM10.7435 1.84992L10.1859 2.3515L10.7435 1.84992ZM1.5576 11.53L9.81414 2.3515L8.69894 1.34833L0.442405 10.5269L1.5576 11.53ZM10.1859 2.3515L18.4424 11.53L19.5576 10.5269L11.3011 1.34833L10.1859 2.3515ZM9.81414 2.3515C9.91345 2.2411 10.0865 2.2411 10.1859 2.3515L11.3011 1.34833C10.6058 0.575486 9.39416 0.575486 8.69894 1.34833L9.81414 2.3515Z" fill="#7D818E"/>
<path d="M3.76897 7.95665L9.25484 1.83168C9.6523 1.38792 10.3472 1.38792 10.7446 1.83168L16.2305 7.95665L16.5167 9.91356C16.7859 11.7536 16.7727 13.6239 16.4777 15.46V15.46C16.3352 16.3463 15.5703 16.9981 14.6726 16.9981H5.32685C4.42913 16.9981 3.66423 16.3463 3.5218 15.46V15.46C3.22677 13.6239 3.21359 11.7536 3.48273 9.91356L3.76897 7.95665Z" fill="#F2F6F7"/>
<path d="M3.76897 7.95665L3.21029 7.45627C3.11199 7.56603 3.04819 7.70231 3.02686 7.84811L3.76897 7.95665ZM16.2305 7.95665L16.9726 7.84811C16.9513 7.70231 16.8875 7.56603 16.7892 7.45627L16.2305 7.95665ZM16.5167 9.91356L15.7746 10.0221L16.5167 9.91356ZM10.7446 1.83168L10.186 2.33206L10.7446 1.83168ZM14.6726 16.2481H5.32685V17.7481H14.6726V16.2481ZM4.32764 8.45703L9.81351 2.33206L8.69616 1.3313L3.21029 7.45627L4.32764 8.45703ZM10.186 2.33206L15.6718 8.45703L16.7892 7.45627L11.3033 1.3313L10.186 2.33206ZM15.4884 8.0652L15.7746 10.0221L17.2588 9.80501L16.9726 7.84811L15.4884 8.0652ZM4.22484 10.0221L4.51107 8.0652L3.02686 7.84811L2.74063 9.80501L4.22484 10.0221ZM4.2623 15.341C3.97937 13.5803 3.96674 11.7867 4.22484 10.0221L2.74063 9.80501C2.46045 11.7205 2.47416 13.6676 2.7813 15.579L4.2623 15.341ZM15.7746 10.0221C16.0327 11.7867 16.0201 13.5803 15.7372 15.341L17.2182 15.579C17.5253 13.6676 17.539 11.7205 17.2588 9.80501L15.7746 10.0221ZM9.81351 2.33206C9.91288 2.22112 10.0866 2.22112 10.186 2.33206L11.3033 1.3313C10.6078 0.554708 9.39172 0.554711 8.69616 1.3313L9.81351 2.33206ZM5.32685 16.2481C4.79741 16.2481 4.3463 15.8637 4.2623 15.341L2.7813 15.579C2.98216 16.829 4.06084 17.7481 5.32685 17.7481V16.2481ZM14.6726 17.7481C15.9386 17.7481 17.0173 16.829 17.2182 15.579L15.7372 15.341C15.6532 15.8637 15.2021 16.2481 14.6726 16.2481V17.7481Z" fill="#7D818E"/>
<path d="M9.9995 10.5039C11.3257 10.5039 12.4009 11.5342 12.4009 12.8052V17.0003H7.59814V12.8052C7.59814 11.5342 8.67327 10.5039 9.9995 10.5039Z" fill="white" stroke="#7D818E" stroke-width="1.5" stroke-linecap="round" stroke-linejoin="round"/>
</svg>
