<svg width="22" height="14" viewBox="0 0 22 14" fill="none" xmlns="http://www.w3.org/2000/svg">
<path fill-rule="evenodd" clip-rule="evenodd" d="M18.1825 2.57547C20.2832 4.6761 20.2832 8.08189 18.1825 10.1825C16.0819 12.2832 12.6761 12.2832 10.5755 10.1825C8.47484 8.0819 8.47484 4.67611 10.5755 2.57547C12.6761 0.474842 16.0819 0.474842 18.1825 2.57547" fill="#F2F6F7"/>
<path d="M18.1825 2.57547C20.2832 4.6761 20.2832 8.08189 18.1825 10.1825C16.0819 12.2832 12.6761 12.2832 10.5755 10.1825C8.47484 8.0819 8.47484 4.67611 10.5755 2.57547C12.6761 0.474842 16.0819 0.474842 18.1825 2.57547" stroke="#7D818E" stroke-width="1.5" stroke-linecap="round" stroke-linejoin="round"/>
<path d="M20.9999 12.9999L18.1799 10.1799" stroke="#7D818E" stroke-width="1.5" stroke-linecap="round" stroke-linejoin="round"/>
<path d="M1 3H5" stroke="#7D818E" stroke-width="1.5" stroke-linecap="round" stroke-linejoin="round"/>
<path d="M1 8H6" stroke="#7D818E" stroke-width="1.5" stroke-linecap="round" stroke-linejoin="round"/>
<path d="M1 13H9" stroke="#7D818E" stroke-width="1.5" stroke-linecap="round" stroke-linejoin="round"/>
</svg>
