<svg width="13" height="7" viewBox="0 0 13 7" fill="none" xmlns="http://www.w3.org/2000/svg">
<path d="M3.99592 1.37629C4.20374 1.19445 4.2248 0.878566 4.04296 0.670748C3.86111 0.462929 3.54523 0.441871 3.33741 0.623712L3.99592 1.37629ZM0.670748 2.95704C0.462929 3.13889 0.441871 3.45477 0.623712 3.66259C0.805553 3.8704 1.12143 3.89146 1.32925 3.70962L0.670748 2.95704ZM1 2.83333C0.723858 2.83333 0.5 3.05719 0.5 3.33333C0.5 3.60948 0.723858 3.83333 1 3.83333V2.83333ZM11.6667 3.83333C11.9428 3.83333 12.1667 3.60948 12.1667 3.33333C12.1667 3.05719 11.9428 2.83333 11.6667 2.83333V3.83333ZM1.32925 2.95704C1.12143 2.7752 0.805553 2.79626 0.623712 3.00408C0.441871 3.2119 0.462929 3.52778 0.670748 3.70962L1.32925 2.95704ZM3.33741 6.04296C3.54523 6.2248 3.86111 6.20374 4.04296 5.99592C4.2248 5.7881 4.20374 5.47222 3.99592 5.29038L3.33741 6.04296ZM11.9959 3.70962C12.2037 3.52778 12.2248 3.2119 12.043 3.00408C11.8611 2.79626 11.5452 2.7752 11.3374 2.95704L11.9959 3.70962ZM8.67075 5.29038C8.46293 5.47222 8.44187 5.7881 8.62371 5.99592C8.80555 6.20374 9.12143 6.2248 9.32925 6.04296L8.67075 5.29038ZM11.3374 3.70962C11.5452 3.89146 11.8611 3.8704 12.043 3.66259C12.2248 3.45477 12.2037 3.13889 11.9959 2.95704L11.3374 3.70962ZM9.32925 0.623712C9.12143 0.441871 8.80555 0.462929 8.62371 0.670748C8.44187 0.878566 8.46293 1.19445 8.67075 1.37629L9.32925 0.623712ZM3.33741 0.623712L0.670748 2.95704L1.32925 3.70962L3.99592 1.37629L3.33741 0.623712ZM1 3.83333H11.6667V2.83333H1V3.83333ZM0.670748 3.70962L3.33741 6.04296L3.99592 5.29038L1.32925 2.95704L0.670748 3.70962ZM11.3374 2.95704L8.67075 5.29038L9.32925 6.04296L11.9959 3.70962L11.3374 2.95704ZM11.9959 2.95704L9.32925 0.623712L8.67075 1.37629L11.3374 3.70962L11.9959 2.95704Z" fill="#505567"/>
</svg>
