<svg width="7" height="13" viewBox="0 0 7 13" fill="none" xmlns="http://www.w3.org/2000/svg">
<path d="M1.37629 8.67071C1.19445 8.46289 0.878566 8.44183 0.670748 8.62367C0.462929 8.80551 0.441871 9.12139 0.623712 9.32921L1.37629 8.67071ZM2.95704 11.9959C3.13889 12.2037 3.45477 12.2248 3.66259 12.0429C3.8704 11.8611 3.89146 11.5452 3.70962 11.3374L2.95704 11.9959ZM2.83333 11.6666C2.83333 11.9428 3.05719 12.1666 3.33333 12.1666C3.60948 12.1666 3.83333 11.9428 3.83333 11.6666H2.83333ZM3.83333 0.99996C3.83333 0.723818 3.60948 0.49996 3.33333 0.49996C3.05719 0.49996 2.83333 0.723818 2.83333 0.99996H3.83333ZM2.95704 11.3374C2.7752 11.5452 2.79626 11.8611 3.00408 12.0429C3.2119 12.2248 3.52778 12.2037 3.70962 11.9959L2.95704 11.3374ZM6.04296 9.32921C6.2248 9.12139 6.20374 8.80551 5.99592 8.62367C5.7881 8.44183 5.47222 8.46289 5.29038 8.67071L6.04296 9.32921ZM3.70962 0.670708C3.52778 0.462889 3.2119 0.441831 3.00408 0.623672C2.79626 0.805513 2.7752 1.12139 2.95704 1.32921L3.70962 0.670708ZM5.29038 3.99588C5.47222 4.2037 5.7881 4.22476 5.99592 4.04291C6.20374 3.86107 6.2248 3.54519 6.04296 3.33737L5.29038 3.99588ZM3.70962 1.32921C3.89146 1.12139 3.8704 0.805513 3.66259 0.623672C3.45477 0.441831 3.13889 0.462889 2.95704 0.670708L3.70962 1.32921ZM0.623712 3.33737C0.441871 3.54519 0.462929 3.86107 0.670748 4.04291C0.878566 4.22476 1.19445 4.2037 1.37629 3.99588L0.623712 3.33737ZM0.623712 9.32921L2.95704 11.9959L3.70962 11.3374L1.37629 8.67071L0.623712 9.32921ZM3.83333 11.6666L3.83333 0.99996H2.83333L2.83333 11.6666H3.83333ZM3.70962 11.9959L6.04296 9.32921L5.29038 8.67071L2.95704 11.3374L3.70962 11.9959ZM2.95704 1.32921L5.29038 3.99588L6.04296 3.33737L3.70962 0.670708L2.95704 1.32921ZM2.95704 0.670708L0.623712 3.33737L1.37629 3.99588L3.70962 1.32921L2.95704 0.670708Z" fill="#505567"/>
</svg>
