<svg width="18" height="18" viewBox="0 0 18 18" fill="none" xmlns="http://www.w3.org/2000/svg">
<path fill-rule="evenodd" clip-rule="evenodd" d="M9 16.5V16.5C4.8575 16.5 1.5 13.1425 1.5 9V9C1.5 4.8575 4.8575 1.5 9 1.5V1.5C13.1425 1.5 16.5 4.8575 16.5 9V9C16.5 13.1425 13.1425 16.5 9 16.5Z" stroke="#7D818E" stroke-width="1.5" stroke-linecap="round" stroke-linejoin="round"/>
<path d="M9 13.1667V9H8.16667" stroke="#7D818E" stroke-width="1.5" stroke-linecap="round" stroke-linejoin="round"/>
<path d="M8.79083 5.66659C8.67583 5.66659 8.5825 5.75992 8.58333 5.87492C8.58333 5.98992 8.67667 6.08325 8.79167 6.08325C8.90667 6.08325 9 5.98992 9 5.87492C9 5.75992 8.90667 5.66659 8.79083 5.66659" stroke="#7D818E" stroke-width="1.5" stroke-linecap="round" stroke-linejoin="round"/>
</svg>
