<svg width="16" height="20" viewBox="0 0 16 20" fill="none" xmlns="http://www.w3.org/2000/svg">
<path d="M8.57939 18.7743C10.2569 17.365 15.0003 12.9431 15.0003 8.00014C15.0003 4.13407 11.8662 1 8.00014 1C4.13407 1 1 4.13407 1 8.00014C1 12.9431 5.74337 17.365 7.4209 18.7743C7.76046 19.0596 8.23983 19.0596 8.57939 18.7743Z" fill="#F2F3F5" stroke="#7D818E" stroke-width="1.5" stroke-linecap="round" stroke-linejoin="round"/>
<path d="M8.00031 10.4562C9.58379 10.4562 10.8674 9.17257 10.8674 7.5891C10.8674 6.00563 9.58379 4.72197 8.00031 4.72197C6.41684 4.72197 5.13318 6.00563 5.13318 7.5891C5.13318 9.17257 6.41684 10.4562 8.00031 10.4562Z" fill="#F2F3F5" stroke="#7D818E" stroke-width="1.5" stroke-linecap="round" stroke-linejoin="round"/>
</svg>
