<svg width="20" height="20" viewBox="0 0 20 20" fill="none" xmlns="http://www.w3.org/2000/svg">
<path d="M18.9995 1H17.5665C16.6339 1 15.8251 1.64455 15.617 2.55362L14.6556 6.75228" stroke="#505567" stroke-width="1.5" stroke-linecap="round" stroke-linejoin="round"/>
<path d="M1.03248 7.51013C1.19739 10.0582 1.95639 12.1531 2.52493 13.2926C2.71501 13.6737 3.02522 13.9751 3.43123 14.1034C4.10697 14.3169 5.43555 14.592 7.7957 14.592C10.1559 14.592 11.4844 14.3169 12.1602 14.1034C12.5662 13.9751 12.8764 13.6737 13.0665 13.2926C13.7078 12.0072 14.5914 9.50636 14.5914 6.51065H2C1.44772 6.51065 0.99681 6.959 1.03248 7.51013Z" fill="#F2F3F5" stroke="#505567" stroke-width="1.5" stroke-linecap="round" stroke-linejoin="round"/>
<path d="M2.83684 19.0013C3.24259 19.0013 3.57151 18.6724 3.57151 18.2666C3.57151 17.8609 3.24259 17.5319 2.83684 17.5319C2.4311 17.5319 2.10217 17.8609 2.10217 18.2666C2.10217 18.6724 2.4311 19.0013 2.83684 19.0013Z" fill="#505567" stroke="#505567" stroke-width="1.5" stroke-linecap="round" stroke-linejoin="round"/>
<path d="M12.3879 19.0013C12.7936 19.0013 13.1225 18.6724 13.1225 18.2666C13.1225 17.8609 12.7936 17.5319 12.3879 17.5319C11.9821 17.5319 11.6532 17.8609 11.6532 18.2666C11.6532 18.6724 11.9821 19.0013 12.3879 19.0013Z" fill="#505567" stroke="#505567" stroke-width="1.5" stroke-linecap="round" stroke-linejoin="round"/>
</svg>
