<svg width="18" height="20" viewBox="0 0 18 20" fill="none" xmlns="http://www.w3.org/2000/svg">
<path d="M15.7719 11.2471C15.7282 11.1901 15.7045 11.1194 15.7047 11.0466V8.95343C15.7045 8.88064 15.7282 8.80992 15.7719 8.75286L16.707 7.543C16.8752 7.32555 16.976 7.06076 16.9962 6.78321C17.0164 6.50566 16.9551 6.22827 16.8203 5.98729L16.2749 5.01271C16.1404 4.77152 15.9386 4.57782 15.6958 4.45694C15.453 4.33606 15.1806 4.29361 14.9141 4.33514L13.4324 4.56786C13.3624 4.57801 13.291 4.564 13.2295 4.528L11.4739 3.48143C11.4121 3.44304 11.3647 3.38411 11.3395 3.31429L10.7929 1.87943C10.695 1.62059 10.5239 1.39822 10.3018 1.24134C10.0797 1.08446 9.81692 1.00035 9.54783 1H8.45466C8.18557 1.00035 7.92283 1.08446 7.70073 1.24134C7.47862 1.39822 7.30747 1.62059 7.20959 1.87943L6.66052 3.31429C6.63436 3.38221 6.58705 3.4392 6.52605 3.47629L4.76678 4.528C4.70526 4.56409 4.63389 4.57811 4.56383 4.56786L3.08594 4.33514C2.81942 4.29361 2.54698 4.33606 2.30419 4.45694C2.06141 4.57782 1.85958 4.77152 1.72508 5.01271L1.17974 5.98729C1.04489 6.22827 0.98356 6.50566 1.00377 6.78321C1.02399 7.06076 1.1248 7.32555 1.29304 7.543L2.22809 8.75286C2.27184 8.80992 2.29555 8.88064 2.29532 8.95343V11.0466C2.29555 11.1194 2.27184 11.1901 2.22809 11.2471L1.29304 12.457C1.1248 12.6744 1.02399 12.9392 1.00377 13.2168C0.98356 13.4943 1.04489 13.7717 1.17974 14.0127L1.72508 14.9873C1.85958 15.2285 2.06141 15.4222 2.30419 15.5431C2.54698 15.6639 2.81942 15.7064 3.08594 15.6649L4.56757 15.4321C4.63762 15.4219 4.70899 15.4359 4.77051 15.472L6.52605 16.5186C6.58705 16.5557 6.63436 16.6127 6.66052 16.6806L7.2071 18.1206C7.30498 18.3794 7.47613 18.6018 7.69824 18.7587C7.92034 18.9155 8.18308 18.9996 8.45217 19H9.54285C9.81194 18.9996 10.0747 18.9155 10.2968 18.7587C10.5189 18.6018 10.69 18.3794 10.7879 18.1206L11.3345 16.6806C11.3607 16.6127 11.408 16.5557 11.469 16.5186L13.2245 15.472C13.2861 15.436 13.3574 15.422 13.4275 15.4321L14.9091 15.6649C15.1756 15.7064 15.448 15.6639 15.6908 15.5431C15.9336 15.4222 16.1354 15.2285 16.2699 14.9873L16.8153 14.0127C16.9501 13.7717 17.0115 13.4943 16.9912 13.2168C16.971 12.9392 16.8702 12.6744 16.702 12.457L15.7719 11.2471ZM9 12.8929C8.44593 12.8929 7.90431 12.7232 7.44363 12.4053C6.98294 12.0875 6.62388 11.6356 6.41184 11.107C6.19981 10.5784 6.14434 9.99679 6.25243 9.43563C6.36052 8.87447 6.62733 8.35901 7.01911 7.95444C7.41089 7.54987 7.91005 7.27435 8.45347 7.16273C8.99689 7.05111 9.56016 7.1084 10.072 7.32735C10.5839 7.5463 11.0215 7.91709 11.3293 8.39282C11.6371 8.86854 11.8014 9.42785 11.8014 10C11.8014 10.7672 11.5063 11.503 10.9809 12.0456C10.4555 12.5881 9.74298 12.8929 9 12.8929Z" fill="#F2F3F5" stroke="#505567" stroke-width="1.5"/>
</svg>
