<svg width="19" height="19" viewBox="0 0 19 19" fill="none" xmlns="http://www.w3.org/2000/svg">
<path d="M1.36507 14.9964C1.53597 16.4347 2.69476 17.576 4.1407 17.6604C5.76228 17.755 7.3987 17.8045 9.20778 17.8045C11.0168 17.8045 12.6533 17.755 14.2749 17.6604C15.7208 17.576 16.8796 16.4347 17.0505 14.9964C17.2372 13.4249 17.4156 11.8018 17.4156 10.1416C17.4156 8.48141 17.2372 6.85835 17.0505 5.28684C16.8796 3.84856 15.7208 2.70722 14.2749 2.62287C12.6533 2.52828 11.0168 2.4787 9.20778 2.4787C7.39871 2.4787 5.76228 2.52828 4.1407 2.62287C2.69476 2.70722 1.53597 3.84856 1.36507 5.28684C1.17834 6.85835 1 8.48141 1 10.1416C1 11.8018 1.17834 13.4249 1.36507 14.9964Z" fill="white"/>
<path d="M16.8281 8.86914L1.58917 8.86914L1.80308 3.44541L9.11881 2.91481L16.8281 3.44542L16.8281 8.86914Z" fill="#F2F3F5"/>
<path d="M6.18823 1L6.18823 4.41328" stroke="#505567" stroke-width="1.5" stroke-linecap="round"/>
<path d="M12.2178 1L12.2178 4.41328" stroke="#505567" stroke-width="1.5" stroke-linecap="round"/>
<path d="M1.36507 14.9964C1.53597 16.4347 2.69476 17.576 4.1407 17.6604C5.76228 17.755 7.3987 17.8045 9.20778 17.8045C11.0168 17.8045 12.6533 17.755 14.2749 17.6604C15.7208 17.576 16.8796 16.4347 17.0505 14.9964C17.2372 13.4249 17.4156 11.8018 17.4156 10.1416C17.4156 8.48141 17.2372 6.85835 17.0505 5.28684C16.8796 3.84856 15.7208 2.70722 14.2749 2.62287C12.6533 2.52828 11.0168 2.4787 9.20778 2.4787C7.39871 2.4787 5.76228 2.52828 4.1407 2.62287C2.69476 2.70722 1.53597 3.84856 1.36507 5.28684C1.17834 6.85835 1 8.48141 1 10.1416C1 11.8018 1.17834 13.4249 1.36507 14.9964Z" stroke="#505567" stroke-width="1.5"/>
<path d="M1.39294 8.35881H17.1038" stroke="#505567" stroke-width="1.5"/>
</svg>
