<svg width="20" height="20" viewBox="0 0 20 20" fill="none" xmlns="http://www.w3.org/2000/svg">
<path d="M10.0006 19.0011C15.7609 19.0011 19.0011 15.7609 19.0011 10.0006C19.0011 4.2402 15.7609 1 10.0006 1C4.2402 1 1 4.2402 1 10.0006C1 15.7609 4.2402 19.0011 10.0006 19.0011Z" fill="#F2F3F5" stroke="#505567" stroke-width="1.5" stroke-linecap="round" stroke-linejoin="round"/>
<path d="M6.39966 13.6017L13.6001 6.40128" stroke="#505567" stroke-width="1.5" stroke-linecap="round" stroke-linejoin="round"/>
<path d="M7.1197 7.84136C7.51737 7.84136 7.83975 7.51899 7.83975 7.12132C7.83975 6.72365 7.51737 6.40128 7.1197 6.40128C6.72203 6.40128 6.39966 6.72365 6.39966 7.12132C6.39966 7.51899 6.72203 7.84136 7.1197 7.84136Z" fill="#505567" stroke="#505567" stroke-width="1.5" stroke-linecap="round" stroke-linejoin="round"/>
<path d="M12.8803 13.602C13.278 13.602 13.6004 13.2796 13.6004 12.8819C13.6004 12.4842 13.278 12.1619 12.8803 12.1619C12.4827 12.1619 12.1603 12.4842 12.1603 12.8819C12.1603 13.2796 12.4827 13.602 12.8803 13.602Z" fill="#505567" stroke="#505567" stroke-width="1.5" stroke-linecap="round" stroke-linejoin="round"/>
</svg>
