<svg width="20" height="20" viewBox="0 0 20 20" fill="none" xmlns="http://www.w3.org/2000/svg">
<path d="M8.96447 1.14177C8.00178 1.04863 7.01021 1 5.99745 1C4.98467 1 3.9931 1.04863 3.0304 1.14177C1.97107 1.24426 1.16067 2.31798 1.11282 3.62536C1.03892 5.64456 1 7.74066 1 9.89045C1 12.0402 1.03892 14.1364 1.11282 16.1555C1.16067 17.4629 1.97107 18.5366 3.0304 18.6391C3.9931 18.7323 4.98467 18.7809 5.99745 18.7809C7.01021 18.7809 8.00178 18.7323 8.96447 18.6391C10.0238 18.5367 10.8342 17.4629 10.8821 16.1556C10.9084 15.4351 10.9303 14.7049 10.9476 13.9659V5.81501C10.9303 5.07604 10.9084 4.34581 10.8821 3.62536C10.8342 2.31798 10.0238 1.24426 8.96447 1.14177Z" fill="#F2F3F5"/>
<path d="M12.7901 10.018C12.7901 10.8636 12.9321 12.1226 13.0513 13.0298C13.1299 13.6284 13.7271 14.0096 14.2892 13.7895C15.9638 13.1337 17.5284 12.0913 18.5516 10.4801C18.7308 10.1979 18.7308 9.83805 18.5516 9.55586C17.5285 7.9446 15.9639 6.90221 14.2893 6.24646C13.7272 6.02634 13.13 6.40758 13.0514 7.00611C12.9322 7.91335 12.7901 9.17238 12.7901 10.018Z" fill="#F2F3F5" stroke="#505567" stroke-width="1.5" stroke-linecap="round" stroke-linejoin="round"/>
<path d="M10.8821 3.62536C10.8342 2.31798 10.0238 1.24426 8.96447 1.14177C8.00178 1.04863 7.01021 1 5.99745 1C4.98467 1 3.9931 1.04863 3.0304 1.14177C1.97107 1.24426 1.16067 2.31798 1.11282 3.62536C1.03892 5.64455 1 7.74066 1 9.89045C1 12.0402 1.03892 14.1364 1.11282 16.1555C1.16067 17.4629 1.97107 18.5366 3.0304 18.6391C3.9931 18.7323 4.98467 18.7809 5.99745 18.7809C7.01021 18.7809 8.00178 18.7323 8.96447 18.6391C10.0238 18.5367 10.8342 17.4629 10.8821 16.1556" stroke="#505567" stroke-width="1.5" stroke-linecap="round"/>
<path d="M5.48375 10.0187L12.7909 10.0187" stroke="#505567" stroke-width="1.5" stroke-linecap="round" stroke-linejoin="round"/>
</svg>
