<svg width="45" height="30" viewBox="0 0 45 30" fill="none" xmlns="http://www.w3.org/2000/svg">
<g clip-path="url(#clip0_240_7507)">
<path d="M31.6116 22.7969V22.8359H31.6471C31.6549 22.8359 31.6617 22.834 31.6665 22.831C31.671 22.828 31.6736 22.8226 31.6736 22.8162C31.6736 22.8097 31.671 22.8048 31.6665 22.8018C31.6617 22.7984 31.6549 22.7969 31.6471 22.7969H31.6116ZM31.6474 22.7696C31.6658 22.7696 31.68 22.7737 31.6901 22.7821C31.7001 22.7904 31.705 22.8018 31.705 22.8162C31.705 22.8283 31.7012 22.8382 31.693 22.8461C31.6852 22.8537 31.674 22.8586 31.659 22.8605L31.7061 22.9155H31.6695L31.6258 22.8609H31.6116V22.9155H31.581V22.7696H31.6474ZM31.6381 22.9658C31.6549 22.9658 31.6706 22.9624 31.6848 22.956C31.6994 22.9496 31.712 22.9409 31.7229 22.9298C31.7338 22.9189 31.7423 22.906 31.7487 22.8908C31.7547 22.8761 31.758 22.8601 31.758 22.8431C31.758 22.8261 31.7547 22.8101 31.7487 22.7954C31.7423 22.7806 31.7338 22.7673 31.7229 22.7563C31.712 22.7453 31.6994 22.7366 31.6848 22.7302C31.6706 22.7241 31.6549 22.7211 31.6381 22.7211C31.6213 22.7211 31.6052 22.7241 31.5907 22.7302C31.5758 22.7366 31.5627 22.7453 31.5519 22.7563C31.541 22.7673 31.5325 22.7806 31.5265 22.7954C31.5201 22.8101 31.5172 22.8261 31.5172 22.8431C31.5172 22.8601 31.5201 22.8761 31.5265 22.8908C31.5325 22.906 31.541 22.9189 31.5519 22.9298C31.5627 22.9409 31.5758 22.9496 31.5907 22.956C31.6052 22.9624 31.6213 22.9658 31.6381 22.9658ZM31.6381 22.6859C31.6602 22.6859 31.6803 22.69 31.6997 22.6983C31.7188 22.7063 31.7353 22.7176 31.7498 22.7321C31.764 22.7461 31.7752 22.7628 31.7834 22.7821C31.7916 22.801 31.7957 22.8215 31.7957 22.8431C31.7957 22.8647 31.7916 22.8851 31.7834 22.9041C31.7752 22.923 31.764 22.9397 31.7498 22.9541C31.7353 22.9681 31.7188 22.9795 31.6997 22.9878C31.6803 22.9962 31.6602 23.0003 31.6381 23.0003C31.6157 23.0003 31.5952 22.9962 31.5758 22.9878C31.5564 22.9795 31.5396 22.9681 31.5253 22.9541C31.5112 22.9397 31.4999 22.923 31.4918 22.9041C31.4835 22.8851 31.4794 22.8647 31.4794 22.8431C31.4794 22.8215 31.4835 22.801 31.4918 22.7821C31.4999 22.7628 31.5112 22.7461 31.5253 22.7321C31.5396 22.7176 31.5564 22.7063 31.5758 22.6983C31.5952 22.69 31.6157 22.6859 31.6381 22.6859ZM17.089 22.1239C17.089 21.8457 17.2686 21.6173 17.5622 21.6173C17.8426 21.6173 18.0319 21.8359 18.0319 22.1239C18.0319 22.4119 17.8426 22.6305 17.5622 22.6305C17.2686 22.6305 17.089 22.402 17.089 22.1239ZM18.3516 22.1239V21.3327H18.0125V21.5248C17.905 21.3824 17.7418 21.2929 17.52 21.2929C17.0827 21.2929 16.7399 21.6408 16.7399 22.1239C16.7399 22.6074 17.0827 22.9549 17.52 22.9549C17.7418 22.9549 17.905 22.8655 18.0125 22.723V22.9151H18.3516V22.1239ZM29.8098 22.1239C29.8098 21.8457 29.9894 21.6173 30.283 21.6173C30.5638 21.6173 30.7527 21.8359 30.7527 22.1239C30.7527 22.4119 30.5638 22.6305 30.283 22.6305C29.9894 22.6305 29.8098 22.402 29.8098 22.1239ZM31.0728 22.1239V20.6973H30.7333V21.5248C30.6258 21.3824 30.4626 21.2929 30.2408 21.2929C29.8035 21.2929 29.4607 21.6408 29.4607 22.1239C29.4607 22.6074 29.8035 22.9549 30.2408 22.9549C30.4626 22.9549 30.6258 22.8655 30.7333 22.723V22.9151H31.0728V22.1239ZM22.5605 21.601C22.7789 21.601 22.9194 21.7401 22.9552 21.9848H22.146C22.1822 21.7563 22.3189 21.601 22.5605 21.601ZM22.5672 21.2929C22.1101 21.2929 21.7905 21.6306 21.7905 22.1239C21.7905 22.6271 22.1232 22.9549 22.59 22.9549C22.8249 22.9549 23.04 22.8954 23.2293 22.7332L23.0631 22.4782C22.9324 22.5839 22.7659 22.6438 22.6094 22.6438C22.3909 22.6438 22.1919 22.5411 22.143 22.2561H23.301C23.3044 22.2133 23.3077 22.1702 23.3077 22.1239C23.3044 21.6306 23.0041 21.2929 22.5672 21.2929ZM26.6614 22.1239C26.6614 21.8457 26.8411 21.6173 27.1346 21.6173C27.4151 21.6173 27.6044 21.8359 27.6044 22.1239C27.6044 22.4119 27.4151 22.6305 27.1346 22.6305C26.8411 22.6305 26.6614 22.402 26.6614 22.1239ZM27.924 22.1239V21.3327H27.585V21.5248C27.477 21.3824 27.3142 21.2929 27.0924 21.2929C26.6551 21.2929 26.3123 21.6408 26.3123 22.1239C26.3123 22.6074 26.6551 22.9549 27.0924 22.9549C27.3142 22.9549 27.477 22.8655 27.585 22.723V22.9151H27.924V22.1239ZM24.7465 22.1239C24.7465 22.604 25.0759 22.9549 25.5785 22.9549C25.8134 22.9549 25.9699 22.9018 26.1394 22.7662L25.9766 22.488C25.8493 22.5809 25.7156 22.6305 25.5684 22.6305C25.2977 22.6271 25.0987 22.4286 25.0987 22.1239C25.0987 21.8193 25.2977 21.6207 25.5684 21.6173C25.7156 21.6173 25.8493 21.6669 25.9766 21.7597L26.1394 21.4816C25.9699 21.346 25.8134 21.2929 25.5785 21.2929C25.0759 21.2929 24.7465 21.6438 24.7465 22.1239ZM29.1183 21.2929C28.9226 21.2929 28.7952 21.3858 28.7071 21.5248V21.3327H28.371V22.9151H28.7105V22.0281C28.7105 21.7662 28.8213 21.6207 29.0432 21.6207C29.1119 21.6207 29.1836 21.6306 29.2553 21.6605L29.3598 21.3361C29.2848 21.3062 29.1869 21.2929 29.1183 21.2929ZM20.0287 21.4585C19.8654 21.3494 19.6407 21.2929 19.3927 21.2929C18.9976 21.2929 18.7433 21.4851 18.7433 21.7995C18.7433 22.0576 18.9326 22.2167 19.2814 22.2664L19.4416 22.2895C19.6276 22.316 19.7153 22.3657 19.7153 22.4551C19.7153 22.5775 19.5914 22.6472 19.3599 22.6472C19.125 22.6472 18.9554 22.571 18.8412 22.4816L18.6813 22.7495C18.8673 22.8885 19.1022 22.9549 19.3565 22.9549C19.8068 22.9549 20.0679 22.7396 20.0679 22.4384C20.0679 22.1603 19.8625 22.0148 19.523 21.9651L19.3632 21.9416C19.2164 21.922 19.0988 21.8924 19.0988 21.7863C19.0988 21.6703 19.2097 21.601 19.3957 21.601C19.5947 21.601 19.7874 21.6772 19.8819 21.7367L20.0287 21.4585ZM24.4037 21.2929C24.208 21.2929 24.0807 21.3858 23.9929 21.5248V21.3327H23.6569V22.9151H23.9959V22.0281C23.9959 21.7662 24.1069 21.6207 24.3286 21.6207C24.3974 21.6207 24.4691 21.6306 24.5408 21.6605L24.6453 21.3361C24.5703 21.3062 24.4724 21.2929 24.4037 21.2929ZM21.51 21.3327H20.9555V20.8526H20.6127V21.3327H20.2964V21.6472H20.6127V22.3691C20.6127 22.7362 20.7531 22.9549 21.1542 22.9549C21.3013 22.9549 21.4708 22.9087 21.5784 22.8325L21.4805 22.5376C21.3793 22.5972 21.2684 22.6271 21.1803 22.6271C21.0108 22.6271 20.9555 22.521 20.9555 22.3623V21.6472H21.51V21.3327ZM16.44 22.9151V21.922C16.44 21.5479 16.2051 21.2963 15.8265 21.2929C15.6274 21.2895 15.422 21.3524 15.2783 21.5745C15.1707 21.399 15.0012 21.2929 14.7629 21.2929C14.5964 21.2929 14.4336 21.3426 14.3062 21.5279V21.3327H13.9668V22.9151H14.3092V22.0379C14.3092 21.7632 14.4593 21.6173 14.6912 21.6173C14.9164 21.6173 15.0303 21.7662 15.0303 22.0345V22.9151H15.3731V22.0379C15.3731 21.7632 15.5296 21.6173 15.7548 21.6173C15.9863 21.6173 16.0972 21.7662 16.0972 22.0345V22.9151H16.44Z" fill="#9A9C9E"/>
<path d="M31.821 17.6523V17.4211H31.7616L31.6929 17.5799L31.6246 17.4211H31.5648V17.6523H31.607V17.478L31.6712 17.6284H31.7149L31.7792 17.4776V17.6523H31.821ZM31.4442 17.6523V17.4605H31.5204V17.4215H31.3262V17.4605H31.4024V17.6523H31.4442Z" fill="#F79410"/>
<path d="M25.0687 18.6466H19.9297V9.27515H25.0687V18.6466Z" fill="#FF5F00"/>
<path d="M20.2594 13.96C20.2594 12.059 21.1366 10.3656 22.5026 9.27431C21.5037 8.4763 20.243 8 18.8729 8C15.6293 8 13 10.6684 13 13.96C13 17.2517 15.6293 19.9201 18.8729 19.9201C20.243 19.9201 21.5037 19.4438 22.5026 18.6458C21.1366 17.5545 20.2594 15.8611 20.2594 13.96Z" fill="#EB001B"/>
<path d="M32.001 13.96C32.001 17.2517 29.3717 19.9201 26.1281 19.9201C24.758 19.9201 23.4973 19.4438 22.498 18.6458C23.8644 17.5545 24.7416 15.8611 24.7416 13.96C24.7416 12.059 23.8644 10.3656 22.498 9.27431C23.4973 8.4763 24.758 8 26.1281 8C29.3717 8 32.001 10.6684 32.001 13.96Z" fill="#F79E1B"/>
</g>
<rect x="0.5" y="0.5" width="44" height="29" rx="4.5" stroke="#E2E4EB"/>
<defs>
<clipPath id="clip0_240_7507">
<rect width="19" height="15" fill="white" transform="translate(13 8)"/>
</clipPath>
</defs>
</svg>
