<svg width="45" height="30" viewBox="0 0 45 30" fill="none" xmlns="http://www.w3.org/2000/svg">
<g clip-path="url(#clip0_240_7515)">
<path d="M24.9445 18.7712H19.9121V9.68384H24.9445V18.7712Z" fill="#6C6BBD"/>
<path d="M31.5548 17.8071V17.583H31.4967L31.4294 17.737L31.3625 17.583H31.304V17.8071H31.3453V17.6382L31.4082 17.784H31.451L31.5139 17.6378V17.8071H31.5548ZM31.1859 17.8071V17.6213H31.2604V17.5834H31.0703V17.6213H31.1449V17.8071H31.1859Z" fill="#0099DF"/>
<path d="M29.0396 22.7956V22.8335H29.0744C29.082 22.8335 29.0886 22.8316 29.093 22.8287C29.0977 22.8258 29.1003 22.8206 29.1003 22.8144C29.1003 22.8082 29.0977 22.8034 29.093 22.8004C29.0886 22.7971 29.082 22.7956 29.0744 22.7956H29.0396ZM29.0747 22.7692C29.0926 22.7692 29.1065 22.7733 29.1164 22.7813C29.1263 22.7894 29.131 22.8004 29.131 22.8144C29.131 22.8262 29.1274 22.8357 29.1193 22.8434C29.1117 22.8507 29.1003 22.8555 29.086 22.8574L29.1321 22.9106H29.0963L29.0535 22.8577H29.0396V22.9106H29.0096V22.7692H29.0747ZM29.0656 22.9591C29.082 22.9591 29.0974 22.9562 29.1113 22.95C29.1255 22.9437 29.138 22.9353 29.1486 22.9246C29.1592 22.914 29.1676 22.9014 29.1738 22.8867C29.1797 22.8724 29.1829 22.857 29.1829 22.8405C29.1829 22.8239 29.1797 22.8085 29.1738 22.7942C29.1676 22.7798 29.1592 22.767 29.1486 22.7564C29.138 22.7457 29.1255 22.7372 29.1113 22.7313C29.0974 22.7251 29.082 22.7221 29.0656 22.7221C29.0491 22.7221 29.0334 22.7251 29.0191 22.7313C29.0045 22.7372 28.9917 22.7457 28.9811 22.7564C28.9705 22.767 28.9621 22.7798 28.9562 22.7942C28.95 22.8085 28.9471 22.8239 28.9471 22.8405C28.9471 22.857 28.95 22.8724 28.9562 22.8867C28.9621 22.9014 28.9705 22.914 28.9811 22.9246C28.9917 22.9353 29.0045 22.9437 29.0191 22.95C29.0334 22.9562 29.0491 22.9591 29.0656 22.9591ZM29.0656 22.688C29.0871 22.688 29.1069 22.692 29.1255 22.7001C29.1445 22.7078 29.1607 22.7189 29.1749 22.7328C29.1888 22.7464 29.1998 22.7626 29.2078 22.7813C29.2159 22.7997 29.2199 22.8195 29.2199 22.8405C29.2199 22.8614 29.2159 22.8813 29.2078 22.8996C29.1998 22.918 29.1888 22.9342 29.1749 22.9478C29.1607 22.9617 29.1445 22.9728 29.1255 22.9808C29.1069 22.9889 29.0871 22.993 29.0656 22.993C29.0436 22.993 29.0235 22.9889 29.0045 22.9808C28.9855 22.9728 28.9691 22.9617 28.9551 22.9478C28.9412 22.9342 28.9302 22.918 28.9222 22.8996C28.9142 22.8813 28.9102 22.8614 28.9102 22.8405C28.9102 22.8195 28.9142 22.7997 28.9222 22.7813C28.9302 22.7626 28.9412 22.7464 28.9551 22.7328C28.9691 22.7189 28.9855 22.7078 29.0045 22.7001C29.0235 22.692 29.0436 22.688 29.0656 22.688Z" fill="#231F20"/>
<path d="M26.6408 21.3373C26.7077 21.3373 26.8039 21.3502 26.8774 21.3792L26.775 21.6937C26.7048 21.6647 26.6346 21.6552 26.5673 21.6552C26.3501 21.6552 26.2415 21.7963 26.2415 22.0498V22.9103H25.9091V21.3759H26.2382V21.5622C26.3245 21.4274 26.4492 21.3373 26.6408 21.3373ZM25.4129 21.6809H24.8698V22.3742C24.8698 22.5282 24.9239 22.6311 25.0903 22.6311C25.1766 22.6311 25.2852 22.6021 25.384 22.5444L25.4798 22.8299C25.3745 22.9037 25.2084 22.9489 25.0647 22.9489C24.6716 22.9489 24.5345 22.7369 24.5345 22.3805V21.6809H24.2244V21.3759H24.5345V20.9104H24.8698V21.3759H25.4129V21.6809ZM21.1603 22.0083C21.1958 21.7867 21.3296 21.6357 21.5662 21.6357C21.7801 21.6357 21.9176 21.7705 21.9527 22.0083H21.1603ZM22.298 22.1431C22.2947 21.6647 22.0006 21.3373 21.5724 21.3373C21.1252 21.3373 20.8122 21.6647 20.8122 22.1431C20.8122 22.6307 21.138 22.9486 21.5951 22.9486C21.8251 22.9486 22.0358 22.8909 22.2212 22.7336L22.058 22.4863C21.9305 22.5892 21.7673 22.6469 21.6141 22.6469C21.4002 22.6469 21.2053 22.5473 21.1574 22.2714H22.2913C22.2947 22.2295 22.298 22.1879 22.298 22.1431ZM23.7577 21.7676C23.6653 21.7096 23.4769 21.6357 23.282 21.6357C23.0999 21.6357 22.9913 21.7033 22.9913 21.8158C22.9913 21.9182 23.1061 21.9473 23.2498 21.9664L23.4063 21.9888C23.7387 22.0373 23.9398 22.1784 23.9398 22.4481C23.9398 22.7402 23.6843 22.9489 23.2436 22.9489C22.9942 22.9489 22.7642 22.8846 22.5821 22.7497L22.7386 22.4896C22.8505 22.5763 23.0169 22.6502 23.2469 22.6502C23.4736 22.6502 23.595 22.583 23.595 22.4639C23.595 22.3776 23.5087 22.3291 23.3266 22.3037L23.1701 22.2813C22.8282 22.2328 22.6428 22.0788 22.6428 21.8286C22.6428 21.5236 22.8922 21.3373 23.2787 21.3373C23.5215 21.3373 23.742 21.3921 23.9015 21.4979L23.7577 21.7676ZM27.8553 21.6545C27.7869 21.6545 27.7236 21.6666 27.6648 21.6905C27.6062 21.7147 27.5554 21.7485 27.5126 21.7919C27.4698 21.8352 27.4362 21.8874 27.4117 21.948C27.3872 22.0086 27.3751 22.0755 27.3751 22.1482C27.3751 22.2214 27.3872 22.2879 27.4117 22.3485C27.4362 22.4091 27.4698 22.4613 27.5126 22.5047C27.5554 22.5481 27.6062 22.5819 27.6648 22.6061C27.7236 22.6303 27.7869 22.6421 27.8553 22.6421C27.9236 22.6421 27.9872 22.6303 28.0458 22.6061C28.1046 22.5819 28.1558 22.5481 28.1987 22.5047C28.2421 22.4613 28.2758 22.4091 28.3007 22.3485C28.3252 22.2879 28.3373 22.2214 28.3373 22.1482C28.3373 22.0755 28.3252 22.0086 28.3007 21.948C28.2758 21.8874 28.2421 21.8352 28.1987 21.7919C28.1558 21.7485 28.1046 21.7147 28.0458 21.6905C27.9872 21.6666 27.9236 21.6545 27.8553 21.6545ZM27.8553 21.3373C27.9737 21.3373 28.0835 21.3579 28.1844 21.3995C28.2853 21.4406 28.3727 21.4975 28.4462 21.5699C28.5201 21.6423 28.5775 21.7279 28.6192 21.8264C28.6609 21.9252 28.6817 22.0325 28.6817 22.1482C28.6817 22.264 28.6609 22.3713 28.6192 22.4701C28.5775 22.5686 28.5201 22.6546 28.4462 22.727C28.3727 22.7994 28.2853 22.856 28.1844 22.8974C28.0835 22.9386 27.9737 22.9592 27.8553 22.9592C27.7368 22.9592 27.6271 22.9386 27.5261 22.8974C27.4252 22.856 27.3385 22.7994 27.2654 22.727C27.1923 22.6546 27.1348 22.5686 27.0932 22.4701C27.0515 22.3713 27.0306 22.264 27.0306 22.1482C27.0306 22.0325 27.0515 21.9252 27.0932 21.8264C27.1348 21.7279 27.1923 21.6423 27.2654 21.5699C27.3385 21.4975 27.4252 21.4406 27.5261 21.3995C27.6271 21.3579 27.7368 21.3373 27.8553 21.3373ZM19.2192 22.1431C19.2192 21.8734 19.3952 21.6519 19.6826 21.6519C19.9572 21.6519 20.1426 21.8639 20.1426 22.1431C20.1426 22.4224 19.9572 22.634 19.6826 22.634C19.3952 22.634 19.2192 22.4128 19.2192 22.1431ZM20.4556 22.1431V21.3759H20.1236V21.5622C20.0179 21.424 19.8585 21.3373 19.6412 21.3373C19.213 21.3373 18.8777 21.6742 18.8777 22.1431C18.8777 22.6116 19.213 22.9489 19.6412 22.9489C19.8585 22.9489 20.0179 22.8622 20.1236 22.724V22.9103H20.4556V22.1431ZM18.5837 22.9103V21.9473C18.5837 21.5846 18.3537 21.3407 17.9832 21.3373C17.7883 21.334 17.5868 21.395 17.4464 21.6103C17.3411 21.4402 17.1747 21.3373 16.9414 21.3373C16.7787 21.3373 16.6189 21.3855 16.4941 21.5652V21.3759H16.1621V22.9103H16.4974V22.0597C16.4974 21.7933 16.6445 21.6519 16.8712 21.6519C17.0917 21.6519 17.2036 21.7963 17.2036 22.0564V22.9103H17.5389V22.0597C17.5389 21.7933 17.6925 21.6519 17.9126 21.6519C18.1397 21.6519 18.2483 21.7963 18.2483 22.0564V22.9103H18.5837Z" fill="#9A9C9E"/>
<path d="M31.7318 14.2269C31.7318 17.4188 29.1569 20.0063 25.9806 20.0063C24.6389 20.0063 23.4043 19.5444 22.4258 18.7706C23.7638 17.7124 24.6228 16.0703 24.6228 14.2269C24.6228 12.3835 23.7638 10.7414 22.4258 9.68319C23.4043 8.90938 24.6389 8.44751 25.9806 8.44751C29.1569 8.44751 31.7318 11.035 31.7318 14.2269Z" fill="#0099DF"/>
<path d="M20.2339 14.2269C20.2339 12.3835 21.0929 10.7414 22.4306 9.68319C21.4524 8.90938 20.2178 8.44751 18.8761 8.44751C15.6998 8.44751 13.125 11.035 13.125 14.2269C13.125 17.4188 15.6998 20.0063 18.8761 20.0063C20.2178 20.0063 21.4524 19.5444 22.4306 18.7706C21.0929 17.7124 20.2339 16.0703 20.2339 14.2269Z" fill="#EB001B"/>
</g>
<rect x="0.5" y="0.5" width="44" height="29" rx="4.5" stroke="#E2E4EB"/>
<defs>
<clipPath id="clip0_240_7515">
<rect width="19" height="15" fill="white" transform="translate(13 8)"/>
</clipPath>
</defs>
</svg>
