<svg width="45" height="30" viewBox="0 0 45 30" fill="none" xmlns="http://www.w3.org/2000/svg">
<g clip-path="url(#clip0_240_7548)">
<path fill-rule="evenodd" clip-rule="evenodd" d="M25.2996 22.58C29.2764 22.58 32.4996 19.3165 32.4996 15.29C32.4996 11.2635 29.2764 8 25.2996 8C21.3228 8 18.0996 11.2635 18.0996 15.29C18.0996 19.3165 21.3228 22.58 25.2996 22.58ZM25.2996 18.125C26.846 18.125 28.0996 16.8557 28.0996 15.29C28.0996 13.7243 26.846 12.455 25.2996 12.455C23.7532 12.455 22.4996 13.7243 22.4996 15.29C22.4996 16.8557 23.7532 18.125 25.2996 18.125Z" fill="#8A42F9"/>
<path d="M18.1 10.4302H12.5L15.4864 20.1502H18.1V10.4302Z" fill="#8A42F9"/>
</g>
<rect x="0.5" y="0.5" width="44" height="29" rx="4.5" stroke="#E2E4EB"/>
<defs>
<clipPath id="clip0_240_7548">
<rect width="20" height="15" fill="white" transform="translate(12.5 8)"/>
</clipPath>
</defs>
</svg>
