<svg width="45" height="30" viewBox="0 0 45 30" fill="none" xmlns="http://www.w3.org/2000/svg">
<g clip-path="url(#clip0_240_7553)">
<path d="M11.1474 11.4316C10.7292 11.1441 10.1835 11 9.51031 11H6.90408C6.6977 11 6.58369 11.1032 6.56203 11.3094L5.50332 17.9552C5.49232 18.0205 5.50865 18.0802 5.55217 18.1344C5.59543 18.1888 5.64985 18.2158 5.71502 18.2158H6.95297C7.1701 18.2158 7.28944 18.1129 7.31135 17.9064L7.6045 16.1147C7.61521 16.0279 7.65339 15.9573 7.71857 15.9029C7.78369 15.8486 7.86515 15.8132 7.96288 15.7969C8.06062 15.7808 8.15277 15.7726 8.2398 15.7726C8.32659 15.7726 8.4297 15.7781 8.54934 15.789C8.66868 15.7998 8.74476 15.8051 8.77737 15.8051C9.71121 15.8051 10.4442 15.542 10.9764 15.0151C11.5083 14.4885 11.7746 13.7583 11.7746 12.8242C11.7746 12.1835 11.5653 11.7193 11.1474 11.4314V11.4316ZM9.80362 13.4271C9.74915 13.8072 9.60814 14.0569 9.38011 14.1764C9.15203 14.296 8.82626 14.3555 8.40281 14.3555L7.86524 14.3718L8.14222 12.6288C8.16383 12.5095 8.23438 12.4497 8.35392 12.4497H8.66351C9.09766 12.4497 9.41277 12.5123 9.60824 12.637C9.80361 12.762 9.86879 13.0254 9.80362 13.4271Z" fill="#003087"/>
<path d="M38.6504 11H37.4451C37.3253 11 37.2548 11.0597 37.2333 11.1793L36.1745 17.9555L36.1582 17.9881C36.1582 18.0426 36.1799 18.094 36.2235 18.1429C36.2666 18.1916 36.3212 18.2161 36.3863 18.2161H37.4615C37.6675 18.2161 37.7816 18.1131 37.8036 17.9067L38.8623 11.2445V11.2283C38.8623 11.0762 38.7915 11.0002 38.6504 11.0002V11Z" fill="#009CDE"/>
<path d="M24.0899 13.6228C24.0899 13.5686 24.0681 13.517 24.025 13.4682C23.9814 13.4194 23.9325 13.3948 23.8783 13.3948H22.6241C22.5044 13.3948 22.4067 13.4493 22.3308 13.5576L20.6042 16.0988L19.8875 13.6555C19.8329 13.4819 19.7136 13.3948 19.5292 13.3948H18.3073C18.2529 13.3948 18.204 13.4193 18.1609 13.4682C18.1173 13.517 18.0957 13.5687 18.0957 13.6228C18.0957 13.6447 18.2016 13.9649 18.4133 14.5839C18.625 15.203 18.853 15.8709 19.0974 16.5877C19.3418 17.3043 19.4693 17.6845 19.4802 17.7276C18.5897 18.944 18.1446 19.5956 18.1446 19.6823C18.1446 19.8236 18.215 19.8941 18.3563 19.8941H19.6106C19.73 19.8941 19.8277 19.8399 19.9038 19.7313L24.0576 13.7368C24.0791 13.7153 24.0899 13.6774 24.0899 13.6228V13.6228Z" fill="#003087"/>
<path d="M35.7689 13.3948H34.5309C34.3787 13.3948 34.2867 13.574 34.2541 13.9324C33.9714 13.4982 33.456 13.2808 32.7065 13.2808C31.9247 13.2808 31.2595 13.574 30.7112 14.1604C30.1628 14.7468 29.8887 15.4366 29.8887 16.2292C29.8887 16.8701 30.076 17.3804 30.4505 17.7604C30.8252 18.1407 31.3273 18.3305 31.9574 18.3305C32.2723 18.3305 32.5926 18.2652 32.9184 18.135C33.2441 18.0047 33.4991 17.831 33.6841 17.6138C33.6841 17.6247 33.673 17.6734 33.6515 17.7602C33.6295 17.8472 33.6188 17.9126 33.6188 17.9557C33.6188 18.1296 33.6892 18.2163 33.8306 18.2163H34.9547C35.1607 18.2163 35.2803 18.1133 35.3128 17.9068L35.9807 13.6554C35.9914 13.5901 35.9752 13.5306 35.9318 13.4762C35.8882 13.422 35.834 13.3948 35.7689 13.3948ZM33.6432 16.6039C33.3663 16.8754 33.0323 17.011 32.6415 17.011C32.3264 17.011 32.0714 16.9243 31.8759 16.7504C31.6803 16.5771 31.5826 16.3381 31.5826 16.0337C31.5826 15.6322 31.7183 15.2926 31.9899 15.0157C32.261 14.7388 32.598 14.6004 32.9998 14.6004C33.3036 14.6004 33.5561 14.6899 33.7572 14.869C33.9579 15.0483 34.0587 15.2953 34.0587 15.6103C34.0586 16.0012 33.9201 16.3325 33.6432 16.6039Z" fill="#009CDE"/>
<path d="M17.2652 13.3948H16.0272C15.8749 13.3948 15.7828 13.574 15.7502 13.9324C15.457 13.4982 14.9411 13.2808 14.2027 13.2808C13.4209 13.2808 12.7556 13.574 12.2073 14.1604C11.6589 14.7468 11.3848 15.4366 11.3848 16.2292C11.3848 16.8701 11.5721 17.3804 11.9468 17.7604C12.3214 18.1407 12.8235 18.3305 13.4535 18.3305C13.7574 18.3305 14.0725 18.2652 14.3982 18.135C14.724 18.0047 14.9846 17.831 15.1801 17.6138C15.1365 17.744 15.1149 17.858 15.1149 17.9557C15.1149 18.1296 15.1855 18.2163 15.3267 18.2163H16.4506C16.6567 18.2163 16.7763 18.1133 16.8089 17.9068L17.4768 13.6554C17.4875 13.5901 17.4712 13.5306 17.4279 13.4762C17.3845 13.422 17.3302 13.3948 17.2652 13.3948ZM15.1394 16.6119C14.8625 16.8783 14.523 17.011 14.1214 17.011C13.8063 17.011 13.5538 16.9243 13.3639 16.7504C13.1738 16.5771 13.0789 16.3381 13.0789 16.0337C13.0789 15.6322 13.2145 15.2926 13.4861 15.0157C13.7574 14.7388 14.0941 14.6003 14.496 14.6003C14.7999 14.6003 15.0524 14.6899 15.2535 14.869C15.4543 15.0483 15.5548 15.2953 15.5548 15.6103C15.5548 16.0121 15.4164 16.3462 15.1394 16.6119Z" fill="#003087"/>
<path d="M29.6513 11.4316C29.2332 11.1441 28.6877 11 28.0144 11H25.4244C25.2071 11 25.0876 11.1032 25.066 11.3094L24.0072 17.9552C23.9962 18.0205 24.0126 18.0802 24.0561 18.1344C24.0992 18.1888 24.1538 18.2158 24.2189 18.2158H25.5546C25.6849 18.2158 25.7717 18.1453 25.8152 18.0041L26.1085 16.1147C26.1193 16.0279 26.1572 15.9573 26.2225 15.9029C26.2877 15.8486 26.369 15.8132 26.4669 15.7969C26.5645 15.7808 26.6567 15.7726 26.7438 15.7726C26.8306 15.7726 26.9336 15.7781 27.0532 15.789C27.1726 15.7998 27.2489 15.8051 27.2812 15.8051C28.2152 15.8051 28.9481 15.542 29.4803 15.0151C30.0124 14.4885 30.2784 13.7583 30.2784 12.8242C30.2785 12.1835 30.0693 11.7193 29.6513 11.4314V11.4316ZM27.9818 14.1111C27.7429 14.274 27.3844 14.3554 26.9068 14.3554L26.3854 14.3717L26.6623 12.6287C26.6839 12.5094 26.7545 12.4496 26.874 12.4496H27.1672C27.4061 12.4496 27.5961 12.4605 27.7375 12.4822C27.8784 12.504 28.0144 12.5717 28.1446 12.6857C28.275 12.7998 28.3401 12.9654 28.3401 13.1825C28.3401 13.6388 28.2205 13.9481 27.9818 14.1111Z" fill="#009CDE"/>
</g>
<rect x="0.5" y="0.5" width="44" height="29" rx="4.5" stroke="#E2E4EB"/>
<defs>
<clipPath id="clip0_240_7553">
<rect width="34" height="15" fill="white" transform="translate(5.5 8)"/>
</clipPath>
</defs>
</svg>
