<svg width="36" height="31" viewBox="0 0 36 31" fill="none" xmlns="http://www.w3.org/2000/svg">
<path opacity="0.1" d="M23 19.9998H1.33331V27.4998H6.33331L8.83331 24.9998L11.3333 27.4998H23.8333L28 24.1665L29.6666 26.6665H34.6666V18.3332H31.3333H28V11.6665H33L31.3333 6.6665H23V19.9998Z" fill="#E2195B"/>
<path d="M29.1733 25.4937C30.205 26.5254 30.205 28.1971 29.1733 29.2271C28.1417 30.2587 26.47 30.2587 25.44 29.2271C24.4083 28.1954 24.4083 26.5237 25.44 25.4937C26.4717 24.4621 28.1433 24.4621 29.1733 25.4937" stroke="#353949" stroke-width="2" stroke-linecap="round" stroke-linejoin="round"/>
<path d="M10.84 25.4931C11.8716 26.5248 11.8716 28.1964 10.84 29.2264C9.80829 30.2581 8.13662 30.2581 7.10662 29.2264C6.07662 28.1948 6.07495 26.5231 7.10662 25.4931C8.13829 24.4631 9.80829 24.4614 10.84 25.4931" stroke="#353949" stroke-width="2" stroke-linecap="round" stroke-linejoin="round"/>
<path d="M14.6666 1.6665H21.3333C22.2533 1.6665 23 2.41317 23 3.33317V19.9998H1.33331" stroke="#353949" stroke-width="2" stroke-linecap="round" stroke-linejoin="round"/>
<path d="M6.33331 27.3598H2.99998C2.07998 27.3598 1.33331 26.6132 1.33331 25.6932V16.6665" stroke="#353949" stroke-width="2" stroke-linecap="round" stroke-linejoin="round"/>
<path d="M23 6.6665H30.205C30.8867 6.6665 31.5 7.0815 31.7517 7.71484L34.4283 14.4048C34.585 14.7982 34.6667 15.2182 34.6667 15.6415V25.5548C34.6667 26.4748 33.92 27.2215 33 27.2215H29.9483" stroke="#353949" stroke-width="2" stroke-linecap="round" stroke-linejoin="round"/>
<path d="M24.6666 27.3665H11.6166" stroke="#353949" stroke-width="2" stroke-linecap="round" stroke-linejoin="round"/>
<path d="M34.6667 18.3332H28V11.6665H33.3333" stroke="#353949" stroke-width="2" stroke-linecap="round" stroke-linejoin="round"/>
<path d="M1.33331 1.66659H9.66665" stroke="#353949" stroke-width="2" stroke-linecap="round" stroke-linejoin="round"/>
<path d="M1.33331 6.66659H6.33331" stroke="#353949" stroke-width="2" stroke-linecap="round" stroke-linejoin="round"/>
<path d="M2.99998 11.6666H1.33331" stroke="#353949" stroke-width="2" stroke-linecap="round" stroke-linejoin="round"/>
</svg>
