<svg width="36" height="34" viewBox="0 0 36 34" fill="none" xmlns="http://www.w3.org/2000/svg">
<path fill-rule="evenodd" clip-rule="evenodd" d="M19.0117 2.4516L21.4284 1.26993C22.5434 0.72493 23.8917 1.1616 24.4734 2.25993L25.735 4.6366C26.0684 5.26326 26.6717 5.7016 27.3717 5.82493L30.0217 6.28993C31.245 6.50493 32.0767 7.64993 31.9034 8.87993L31.5267 11.5433C31.4267 12.2466 31.6584 12.9566 32.1517 13.4666L34.0217 15.3999C34.885 16.2916 34.885 17.7083 34.0217 18.6016L32.1517 20.5349C31.6584 21.0449 31.4267 21.7549 31.5267 22.4583L31.9034 25.1216C32.0767 26.3516 31.245 27.4966 30.0217 27.7116L27.3717 28.1766C26.6717 28.2999 26.0684 28.7383 25.735 29.3649L24.4734 31.7416C23.8917 32.8383 22.545 33.2766 21.4284 32.7316L19.0117 31.5499C18.3734 31.2383 17.6284 31.2383 16.99 31.5499L14.5734 32.7316C13.4584 33.2766 12.11 32.8399 11.5284 31.7416L10.2667 29.3633C9.93335 28.7366 9.33002 28.2983 8.63002 28.1749L5.98002 27.7099C4.75669 27.4949 3.92502 26.3499 4.09835 25.1199L4.47502 22.4566C4.57502 21.7533 4.34335 21.0433 3.85002 20.5333L1.98002 18.5999C1.11669 17.7083 1.11669 16.2916 1.98002 15.3983L3.85002 13.4649C4.34335 12.9549 4.57502 12.2449 4.47502 11.5416L4.10002 8.87826C3.92502 7.64993 4.75835 6.50326 5.98169 6.28993L8.63169 5.82493C9.33002 5.7016 9.93335 5.26326 10.2667 4.6366L11.5284 2.25993C12.11 1.16326 13.4567 0.72493 14.5734 1.26993L16.99 2.4516C17.6267 2.76326 18.3734 2.76326 19.0117 2.4516Z" fill="#E2195B" fill-opacity="0.1" stroke="#353949" stroke-width="2" stroke-linecap="round" stroke-linejoin="round"/>
<path d="M13 22L23 12" stroke="#353949" stroke-width="2" stroke-linecap="round" stroke-linejoin="round"/>
<path d="M13.415 11.9999C13.185 11.9999 12.9984 12.1866 13 12.4166C13 12.6466 13.1867 12.8333 13.4167 12.8333C13.6467 12.8333 13.8334 12.6466 13.8334 12.4166C13.8334 12.1866 13.6467 11.9999 13.415 11.9999" stroke="#353949" stroke-width="2" stroke-linecap="round" stroke-linejoin="round"/>
<path d="M22.5817 21.1667C22.3517 21.1667 22.165 21.3533 22.1667 21.5833C22.1667 21.8133 22.3533 22 22.5833 22C22.8133 22 23 21.8133 23 21.5833C23 21.3533 22.8133 21.1667 22.5817 21.1667" stroke="#353949" stroke-width="2" stroke-linecap="round" stroke-linejoin="round"/>
</svg>
