<svg width="35" height="35" viewBox="0 0 35 35" fill="none" xmlns="http://www.w3.org/2000/svg">
<path fill-rule="evenodd" clip-rule="evenodd" d="M6.64417 20.5015L1 26.2792L5.51389 28.9876L8.22222 33.5015L15.2621 26.1077" fill="#E2195B" fill-opacity="0.1"/>
<path d="M6.64417 20.5015L1 26.2792L5.51389 28.9876L8.22222 33.5015L15.2621 26.1077" stroke="#353949" stroke-width="2" stroke-linecap="round" stroke-linejoin="round"/>
<path fill-rule="evenodd" clip-rule="evenodd" d="M19.2372 26.1077L26.277 33.5015L28.9854 28.9876L33.4993 26.2792L27.8551 20.5015" fill="#E2195B" fill-opacity="0.1"/>
<path d="M19.2372 26.1077L26.277 33.5015L28.9854 28.9876L33.4993 26.2792L27.8551 20.5015" stroke="#353949" stroke-width="2" stroke-linecap="round" stroke-linejoin="round"/>
<path d="M26.187 4.70184C31.1228 9.63764 31.1228 17.6401 26.187 22.5759C21.2512 27.5117 13.2487 27.5117 8.31293 22.5759C3.37714 17.6401 3.37714 9.63764 8.31293 4.70184C13.2487 -0.233948 21.2512 -0.233948 26.187 4.70184" stroke="#353949" stroke-width="2" stroke-linecap="round" stroke-linejoin="round"/>
<path fill-rule="evenodd" clip-rule="evenodd" d="M17.2489 18.3032L20.4935 20.0077C21.1255 20.3399 21.8639 19.8036 21.743 19.0995L21.1236 15.4866L23.7489 12.9299C24.2599 12.4316 23.9782 11.5631 23.2723 11.4602L19.6449 10.933L18.0235 7.64504C17.7075 7.00406 16.7957 7.00406 16.4798 7.64504L14.8584 10.933L11.2292 11.462C10.5232 11.5649 10.2416 12.4334 10.7525 12.9317L13.3778 15.4884L12.7585 19.1013C12.6375 19.8055 13.376 20.3417 14.008 20.0095L17.2525 18.305H17.2489V18.3032Z" fill="#E2195B" fill-opacity="0.1" stroke="#353949" stroke-width="2" stroke-linecap="round" stroke-linejoin="round"/>
</svg>
