<svg width="36" height="34" viewBox="0 0 36 34" fill="none" xmlns="http://www.w3.org/2000/svg">
<path d="M26.3333 30.2852C24.9533 28.6185 23.1433 27.7852 21.3333 27.7852C23.1433 27.7852 24.9533 26.9518 26.3333 25.2852" stroke="#353949" stroke-width="2" stroke-linecap="round" stroke-linejoin="round"/>
<path d="M14.6666 22.5568V32.6668H21.3333V22.5552" stroke="#353949" stroke-width="2" stroke-linecap="round" stroke-linejoin="round"/>
<path d="M21.3333 27.7835H14.6666" stroke="#353949" stroke-width="2" stroke-linecap="round" stroke-linejoin="round"/>
<path d="M30.4016 13.4284C30.6983 13.2368 30.9833 13.0184 31.2433 12.7584L34.6666 9.33343C33.2566 7.92343 31.3683 7.28009 29.5233 7.40676C29.6483 5.56176 29.0066 3.67343 27.5966 2.26343L24.1733 5.68676C22.5416 7.31676 22.2916 9.78343 23.3833 11.6934" stroke="#353949" stroke-width="2" stroke-linecap="round" stroke-linejoin="round"/>
<path fill-rule="evenodd" clip-rule="evenodd" d="M30.6517 16.5601L22.3317 22.1068C21.7833 22.4718 21.14 22.6668 20.4817 22.6668H15.515C14.8567 22.6668 14.2133 22.4718 13.6667 22.1068L5.34666 16.5601C4.51999 16.0084 4.36999 14.8718 4.98999 14.0934C6.30833 12.4351 8.34166 11.3668 10.6283 11.3668C11.3267 11.3668 12.0083 11.5068 12.655 11.6984C13.9817 10.2484 15.8867 9.34009 17.9983 9.34009C20.11 9.34009 22.015 10.2484 23.36 11.6984C24.0067 11.5068 24.67 11.3668 25.3867 11.3668C27.6583 11.3668 29.69 12.4351 31.01 14.0934C31.6267 14.8718 31.4783 16.0084 30.6517 16.5601V16.5601Z" fill="#E2195B" fill-opacity="0.1" stroke="#353949" stroke-width="2" stroke-linecap="round" stroke-linejoin="round"/>
<path d="M21 9.99678C22.2216 9.08511 23.0233 7.64178 23.0233 6.00011V1.15845C21.0283 1.15845 19.24 2.03845 18.0233 3.43345C16.8066 2.04011 15.0183 1.15845 13.0233 1.15845V6.00011C13.0233 7.63178 13.8166 9.06678 15.0266 9.98011" stroke="#353949" stroke-width="2" stroke-linecap="round" stroke-linejoin="round"/>
<path d="M5.59831 13.4284C5.30165 13.2368 5.01665 13.0184 4.75665 12.7584L1.33331 9.33343C2.74331 7.92343 4.63165 7.28009 6.47665 7.40676C6.35165 5.56176 6.99331 3.67343 8.40331 2.26343L11.8266 5.68676C13.4583 7.31676 13.7083 9.78343 12.6166 11.6934" stroke="#353949" stroke-width="2" stroke-linecap="round" stroke-linejoin="round"/>
</svg>
