<svg width="29" height="33" viewBox="0 0 29 33" fill="none" xmlns="http://www.w3.org/2000/svg">
<path fill-rule="evenodd" clip-rule="evenodd" d="M8.61907 4.80952C4.41119 4.80952 1.00003 8.22069 1.00003 12.4286V23.8571C1.00003 28.065 4.41119 31.4762 8.61907 31.4762H20.0476C24.2555 31.4762 27.6667 28.065 27.6667 23.8571V12.4286C27.6667 8.22069 24.2555 4.80952 20.0476 4.80952M8.61907 4.80952L20.0476 4.80952ZM8.61907 4.80952V6.71429ZM8.61907 4.80952V1ZM20.0476 4.80952V6.71429ZM20.0476 4.80952V1Z" fill="#E2195B" fill-opacity="0.1"/>
<path d="M8.61907 5.80952C9.17136 5.80952 9.61907 5.36181 9.61907 4.80952C9.61907 4.25724 9.17136 3.80952 8.61907 3.80952V5.80952ZM20.0476 3.80952C19.4954 3.80952 19.0476 4.25724 19.0476 4.80952C19.0476 5.36181 19.4954 5.80952 20.0476 5.80952V3.80952ZM8.61907 3.80952C8.06679 3.80952 7.61907 4.25724 7.61907 4.80952C7.61907 5.36181 8.06679 5.80952 8.61907 5.80952V3.80952ZM20.0476 5.80952C20.5999 5.80952 21.0476 5.36181 21.0476 4.80952C21.0476 4.25724 20.5999 3.80952 20.0476 3.80952V5.80952ZM9.61907 4.80952C9.61907 4.25724 9.17136 3.80952 8.61907 3.80952C8.06679 3.80952 7.61907 4.25724 7.61907 4.80952L9.61907 4.80952ZM7.61907 6.71429C7.61907 7.26657 8.06679 7.71429 8.61907 7.71429C9.17136 7.71429 9.61907 7.26657 9.61907 6.71429H7.61907ZM7.61907 4.80952C7.61907 5.36181 8.06679 5.80952 8.61907 5.80952C9.17136 5.80952 9.61907 5.36181 9.61907 4.80952L7.61907 4.80952ZM9.61907 1C9.61907 0.447715 9.17136 0 8.61907 0C8.06679 0 7.61907 0.447715 7.61907 1L9.61907 1ZM21.0476 4.80952C21.0476 4.25724 20.5999 3.80952 20.0476 3.80952C19.4954 3.80952 19.0476 4.25724 19.0476 4.80952H21.0476ZM19.0476 6.71429C19.0476 7.26657 19.4954 7.71429 20.0476 7.71429C20.5999 7.71429 21.0476 7.26657 21.0476 6.71429L19.0476 6.71429ZM19.0476 4.80952C19.0476 5.36181 19.4954 5.80952 20.0476 5.80952C20.5999 5.80952 21.0476 5.36181 21.0476 4.80952H19.0476ZM21.0476 1C21.0476 0.447715 20.5999 0 20.0476 0C19.4954 0 19.0476 0.447715 19.0476 1H21.0476ZM8.61907 3.80952C3.8589 3.80952 2.52724e-05 7.6684 2.52724e-05 12.4286H2.00003C2.00003 8.77297 4.96347 5.80952 8.61907 5.80952V3.80952ZM2.52724e-05 12.4286V23.8571H2.00003V12.4286H2.52724e-05ZM2.52724e-05 23.8571C2.52724e-05 28.6173 3.8589 32.4762 8.61907 32.4762V30.4762C4.96347 30.4762 2.00003 27.5127 2.00003 23.8571H2.52724e-05ZM8.61907 32.4762H20.0476V30.4762H8.61907V32.4762ZM20.0476 32.4762C24.8078 32.4762 28.6667 28.6173 28.6667 23.8571H26.6667C26.6667 27.5127 23.7032 30.4762 20.0476 30.4762V32.4762ZM28.6667 23.8571V12.4286H26.6667V23.8571H28.6667ZM28.6667 12.4286C28.6667 7.6684 24.8078 3.80952 20.0476 3.80952V5.80952C23.7032 5.80952 26.6667 8.77297 26.6667 12.4286H28.6667ZM8.61907 5.80952H20.0476V3.80952L8.61907 3.80952V5.80952ZM7.61907 4.80952V6.71429H9.61907V4.80952L7.61907 4.80952ZM9.61907 4.80952V1L7.61907 1V4.80952L9.61907 4.80952ZM19.0476 4.80952V6.71429L21.0476 6.71429V4.80952H19.0476ZM21.0476 4.80952V1H19.0476V4.80952H21.0476Z" fill="#353949"/>
<path fill-rule="evenodd" clip-rule="evenodd" d="M6.71429 18.1428L10.5238 23.8571L21.9524 14.3333" fill="#E2195B" fill-opacity="0.1"/>
<path d="M6.71429 18.1428L10.5238 23.8571L21.9524 14.3333" stroke="#353949" stroke-width="2" stroke-linecap="round" stroke-linejoin="round"/>
</svg>
