<svg width="18" height="18" viewBox="0 0 18 18" fill="none" xmlns="http://www.w3.org/2000/svg">
<path d="M1 4.83423H17.0011" stroke="#505567" stroke-width="1.5" stroke-linecap="round"/>
<path d="M14.7492 4.83423H3.24682L3.1645 6.32252C3.00678 9.17404 3.14079 12.0342 3.56443 14.8585C3.74917 16.0901 4.80716 17.0012 6.05253 17.0012H11.9435C13.1889 17.0012 14.2469 16.0901 14.4316 14.8585C14.8552 12.0342 14.9892 9.17404 14.8315 6.32252L14.7492 4.83423Z" fill="#F2F3F5" stroke="#505567" stroke-width="1.5" stroke-linecap="round" stroke-linejoin="round"/>
<path d="M5.80261 4.83413V4.19511C5.80261 3.34771 6.13924 2.53503 6.73844 1.93583C7.33764 1.33663 8.15033 1 8.99772 1C9.84512 1 10.6578 1.33663 11.257 1.93583C11.8562 2.53503 12.1928 3.34771 12.1928 4.19511V4.83413" stroke="#505567" stroke-width="1.5" stroke-linecap="round" stroke-linejoin="round"/>
<path d="M7.08093 8.25571V13.5526" stroke="#505567" stroke-width="1.5" stroke-linecap="round" stroke-linejoin="round"/>
<path d="M10.9152 8.25571V13.5526" stroke="#505567" stroke-width="1.5" stroke-linecap="round" stroke-linejoin="round"/>
</svg>
